<?xml version="1.0" encoding="UTF-8"?>
<svg width="512px" height="428px" viewBox="0 0 512 428" version="1.1" xmlns="http://www.w3.org/2000/svg" xmlns:xlink="http://www.w3.org/1999/xlink">
    <!-- Generator: Sketch 49 (51002) - http://www.bohemiancoding.com/sketch -->
    <title>Scalability</title>
    <desc>Created with Sketch.</desc>
    <defs></defs>
    <g id="Scalability" stroke="none" stroke-width="1" fill="none" fill-rule="evenodd">
        <g id="rgb" transform="translate(48.000000, 11.453125)" fill="#909090" fill-rule="nonzero">
            <path d="M403.758141,76.0988906 C390.293656,52.7780625 370.849281,33.4877187 347.526797,20.3155625 C324.894969,7.532625 299.194938,0.77678125 273.205062,0.77678125 C252.112719,0.77678125 231.214156,5.28426562 211.951141,13.8893125 C192.688953,5.2834375 171.790391,0.77678125 150.699703,0.77678125 C124.712312,0.77678125 99.0114531,7.53345312 76.3771406,20.318875 C53.053,33.4918594 33.6077969,52.7805469 20.1457969,76.1005469 C-18.7396406,143.451125 0.48528125,228.670984 62.1607187,273.322656 C69.9922969,349.058828 134.181094,408.318625 211.953625,408.318625 C289.726156,408.318625 353.914953,349.060484 361.747359,273.327625 C389.723906,253.121375 409.751281,224.1635 418.803516,190.375172 C429.215531,151.517891 423.871641,110.933969 403.758141,76.0988906 Z M211.950312,33.5075937 C213.661219,34.3961719 215.358047,35.3104219 217.030859,36.2760156 C247.781625,54.0310156 269.777453,82.6940781 278.967984,116.992531 C279.565062,119.218531 280.099203,121.4495 280.579516,123.684609 C259.987359,113.100344 236.655766,107.119625 211.952797,107.119625 C187.249828,107.119625 163.918234,113.100344 143.326906,123.686266 C143.806391,121.450328 144.341359,119.217703 144.936781,116.992531 C151.399469,92.8767031 164.200625,71.5533125 181.915047,54.84175 C182.189984,54.6107031 182.453328,54.3664062 182.700109,54.1014062 C189.975187,47.3480469 198.062656,41.3631875 206.871422,36.2768437 C208.544234,35.31125 210.241891,34.397 211.950312,33.5075937 Z M283.415016,145.675469 C284.545406,170.727906 278.529078,195.623 265.689828,217.862297 C252.870453,240.0635 234.042203,257.69925 211.952797,269.219297 C189.861734,257.69925 171.035141,240.0635 158.215766,217.862297 C145.375687,195.622172 139.359359,170.727906 140.488094,145.675469 C161.139875,132.457766 185.668109,124.787672 211.951969,124.787672 C238.238312,124.786844 262.764891,132.458594 283.415016,145.675469 Z M61.5445937,250.126875 C15.9521719,209.032828 3.551,140.175062 35.4454062,84.9341562 C59.1239844,43.9212656 103.287062,18.4431719 150.699703,18.4431719 C164.581562,18.4431719 178.368187,20.67 191.537859,24.9464375 C185.191937,29.0406875 179.212047,33.5655625 173.625516,38.4771719 C155.994734,34.880625 137.647625,35.450375 120.259484,40.1889062 C101.317781,45.3506094 83.8940312,55.3435937 69.873875,69.0871562 C66.3899531,72.5023437 66.3344687,78.0946719 69.7496562,81.5794219 C71.4796094,83.3433281 73.7677187,84.2285937 76.0583125,84.2285937 C78.2884531,84.2285937 80.5227344,83.388875 82.2419219,81.7036406 C102.407594,61.9338125 130.457844,52.0070781 158.257172,54.132875 C144.107828,70.8535469 133.707406,90.6308281 127.869125,112.417141 C125.785562,120.195719 124.343797,128.043031 123.514016,135.899453 C87.7887031,161.911687 63.8857031,203.223531 61.5445937,250.126875 Z M79.0221719,257.718297 C79.0221719,218.656469 95.9598125,183.479375 122.873047,159.136641 C124.057266,182.652906 130.804828,205.716187 142.915328,226.696734 C154.873453,247.408141 171.554375,264.927125 191.473266,277.818547 C178.383922,282.076766 164.554234,284.351625 150.433047,284.351625 C127.244719,284.351625 104.307312,278.184578 84.1010625,266.518781 C82.4207969,265.548219 80.7761406,264.541219 79.1538437,263.509375 C79.0718594,261.588125 79.0221719,259.659422 79.0221719,257.718297 Z M211.952797,390.64975 C148.153219,390.64975 94.717625,345.468906 81.9346875,285.425703 C88.6209687,288.850828 95.5325,291.774937 102.612141,294.157453 C108.312125,311.244984 117.984625,326.866734 130.793234,339.567687 C144.735547,353.392406 162.102156,363.483937 181.014875,368.753297 C181.808219,368.974406 182.605703,369.079578 183.389937,369.079578 C187.256453,369.079578 190.805797,366.522328 191.893953,362.615234 C193.203219,357.915625 190.454672,353.044594 185.755062,351.735328 C158.521344,344.147219 135.879578,324.784828 123.830359,299.606516 C132.591922,301.193203 141.492609,302.019672 150.431391,302.019672 C171.632219,302.019672 192.639266,297.519641 211.949484,288.922875 C231.257219,297.517984 252.265094,302.018844 273.467578,302.018844 C297.23725,302.018844 320.760141,296.288219 341.971734,285.422391 C329.193766,345.46725 275.753203,390.64975 211.952797,390.64975 Z M344.752578,263.509375 C343.126969,264.541219 341.479828,265.549047 339.802047,266.517125 C319.594969,278.18375 296.656734,284.350797 273.468406,284.350797 C259.347219,284.350797 245.520016,282.074281 232.429844,277.816891 C252.348734,264.925469 269.031312,247.406484 280.989437,226.696734 C293.101594,205.717844 299.849156,182.652078 301.033375,159.136641 C327.947437,183.478547 344.885078,218.657297 344.885078,257.718297 C344.885078,259.659422 344.834562,261.587297 344.752578,263.509375 Z M401.738344,185.801437 C394.988297,210.991344 381.325062,233.137062 362.363484,250.159172 C361.987516,242.563609 361.041797,235.116281 359.575187,227.856109 C371.518406,214.377547 380.207922,198.195984 384.801531,180.7565 C389.803406,161.770906 389.860547,141.686391 384.967984,122.671812 C383.751469,117.947359 378.93675,115.106062 374.210641,116.319266 C369.486187,117.534953 366.642406,122.3505 367.858094,127.074953 C374.904609,154.453594 369.456375,183.742719 353.673969,206.76625 C343.348906,178.136312 324.581109,153.511187 300.391578,135.900281 C299.561797,128.044687 298.119203,120.197375 296.034812,112.420453 C286.283641,76.0268437 263.802531,45.2305312 232.366906,24.9480937 C245.53575,20.6708281 259.325687,18.444 273.206719,18.444 C320.618531,18.444 364.781609,43.9212656 388.460187,84.9333281 C406.211875,115.681609 410.928875,151.503812 401.738344,185.801437 Z M211.951141,355.316969 C216.829625,355.316969 220.78475,359.272094 220.785578,364.150578 C220.785578,369.029891 216.830453,372.984188 211.951969,372.984188 C211.783859,372.984188 211.614094,372.984188 211.445156,372.980875 C206.565016,372.889781 202.684422,368.860953 202.776344,363.983297 C202.867437,359.103984 206.922766,355.205172 211.773922,355.316969 L211.951141,355.316969 Z M63.0285937,90.2606563 C67.2404375,92.7243281 68.6557031,98.136125 66.190375,102.346313 L66.0885156,102.521875 C66.0885156,102.523531 66.044625,102.599719 66.0437969,102.601375 C64.4074219,105.434391 61.4385937,107.018594 58.3852969,107.018594 C56.8863906,107.018594 55.3667812,106.636828 53.9755312,105.832719 C49.7512656,103.392234 48.3045312,97.9895469 50.7450156,93.7652813 L58.3935781,98.1833281 L50.7847656,93.6965469 L50.9421094,93.4240938 C53.4082656,89.21225 58.8192344,87.7978125 63.0285937,90.2606563 Z" id="Shape"></path>
        </g>
    </g>
</svg>