<?xml version="1.0" encoding="UTF-8"?>
<svg width="443px" height="448px" viewBox="0 0 443 448" version="1.1" xmlns="http://www.w3.org/2000/svg" xmlns:xlink="http://www.w3.org/1999/xlink">
    <!-- Generator: Sketch 49 (51002) - http://www.bohemiancoding.com/sketch -->
    <title>Asset 3</title>
    <desc>Created with Sketch.</desc>
    <defs>
        <polygon id="path-1" points="0.719362712 0.594609199 16.7543722 0.594609199 16.7543722 1.82491998 0.719362712 1.82491998"></polygon>
    </defs>
    <g id="Page-1" stroke="none" stroke-width="1" fill="none" fill-rule="evenodd" opacity="0.678571429">
        <g id="Desktop-HD" transform="translate(-269.000000, -2106.000000)">
            <g id="Asset-3" transform="translate(268.953125, 2105.968750)">
                <g id="Group-15" transform="translate(0.000000, 431.740658)" stroke="#FFFFFF">
                    <path d="M0.614540234,0.15822293 L0.614540234,16.1940936" id="Stroke-1"></path>
                    <path d="M21.654823,0.540234427 L20.8908,15.8120821" id="Stroke-3"></path>
                    <path d="M42.6938755,0.922368955 L41.1670599,15.431424" id="Stroke-5"></path>
                    <path d="M63.732928,1.30438045 L61.4433197,15.0494125" id="Stroke-7"></path>
                    <path d="M84.7730878,1.68651498 L81.7182261,14.667524" id="Stroke-9"></path>
                    <path d="M105.81214,2.0674192 L101.993256,14.2856355" id="Stroke-11"></path>
                    <path d="M126.851193,2.44943069 L122.269515,13.903624" id="Stroke-13"></path>
                </g>
                <path d="M147.890245,434.5721 L142.545775,445.262271" id="Stroke-16" stroke="#FFFFFF"></path>
                <path d="M168.930528,434.954235 L162.820805,444.880382" id="Stroke-17" stroke="#FFFFFF"></path>
                <path d="M189.969458,435.335139 L183.096942,444.498494" id="Stroke-18" stroke="#FFFFFF"></path>
                <path d="M211.00851,435.717151 L203.373201,444.116482" id="Stroke-19" stroke="#FFFFFF"></path>
                <path d="M232.048793,436.099285 L223.649461,443.735824" id="Stroke-20" stroke="#FFFFFF"></path>
                <path d="M253.087845,436.481297 L243.924491,443.353813" id="Stroke-21" stroke="#FFFFFF"></path>
                <path d="M274.126898,436.863431 L264.20075,442.971924" id="Stroke-22" stroke="#FFFFFF"></path>
                <path d="M295.167058,437.244212 L284.476887,442.589913" id="Stroke-23" stroke="#FFFFFF"></path>
                <path d="M316.20611,437.626347 L304.750686,442.208024" id="Stroke-24" stroke="#FFFFFF"></path>
                <path d="M337.245163,438.008358 L325.026946,441.827243" id="Stroke-25" stroke="#FFFFFF"></path>
                <path d="M358.284215,438.390493 L345.303206,441.444124" id="Stroke-26" stroke="#FFFFFF"></path>
                <path d="M379.324375,438.771274 L365.579343,441.062113" id="Stroke-27" stroke="#FFFFFF"></path>
                <path d="M400.363427,439.153409 L385.854372,440.680224" id="Stroke-28" stroke="#FFFFFF"></path>
                <path d="M421.40248,439.53542 L406.130632,440.299443" id="Stroke-29" stroke="#FFFFFF"></path>
                <g id="Group-35" transform="translate(0.000000, 415.947041)">
                    <g id="Group-32" transform="translate(425.687529, 23.375905)">
                        <mask id="mask-2" fill="white">
                            <use xlink:href="#path-1"></use>
                        </mask>
                        <g id="Clip-31"></g>
                        <path d="M16.7552334,0.594609199 L0.719362712,0.594609199" id="Stroke-30" stroke="#FFFFFF" mask="url(#mask-2)"></path>
                    </g>
                    <path d="M0.614540234,0.534447002 L0.614540234,16.5703177" id="Stroke-33" stroke="#FFFFFF"></path>
                </g>
                <path d="M21.6404284,416.850458 L20.9047026,432.150603" id="Stroke-36" stroke="#FFFFFF"></path>
                <path d="M42.6661935,417.219305 L41.1947418,431.782494" id="Stroke-37" stroke="#FFFFFF"></path>
                <path d="M63.6920817,417.588152 L61.4836739,431.414385" id="Stroke-38" stroke="#FFFFFF"></path>
                <path d="M84.7178468,417.956999 L81.7724828,431.047506" id="Stroke-39" stroke="#FFFFFF"></path>
                <path d="M105.743735,418.325847 L102.062645,430.680627" id="Stroke-40" stroke="#FFFFFF"></path>
                <path d="M126.7695,418.694694 L122.351454,430.312518" id="Stroke-41" stroke="#FFFFFF"></path>
                <path d="M147.795265,419.063541 L142.641493,429.94564" id="Stroke-42" stroke="#FFFFFF"></path>
                <path d="M168.821153,419.432388 L162.930425,429.577531" id="Stroke-43" stroke="#FFFFFF"></path>
                <path d="M189.846919,419.801235 L183.219234,429.209422" id="Stroke-44" stroke="#FFFFFF"></path>
                <path d="M210.872807,420.170082 L203.509397,428.842543" id="Stroke-45" stroke="#FFFFFF"></path>
                <path d="M231.898572,420.53893 L223.798206,428.475664" id="Stroke-46" stroke="#FFFFFF"></path>
                <path d="M252.92446,420.907777 L244.087138,428.108786" id="Stroke-47" stroke="#FFFFFF"></path>
                <path d="M273.950225,421.276624 L264.378407,427.740677" id="Stroke-48" stroke="#FFFFFF"></path>
                <path d="M294.976113,421.645471 L284.667339,427.372568" id="Stroke-49" stroke="#FFFFFF"></path>
                <path d="M316.001878,422.014318 L304.956148,427.005689" id="Stroke-50" stroke="#FFFFFF"></path>
                <path d="M337.026536,422.383165 L325.246311,426.63758" id="Stroke-51" stroke="#FFFFFF"></path>
                <path d="M358.052301,422.752013 L345.53512,426.270701" id="Stroke-52" stroke="#FFFFFF"></path>
                <path d="M379.07819,423.12086 L365.825282,425.903823" id="Stroke-53" stroke="#FFFFFF"></path>
                <path d="M400.103955,423.490937 L386.114091,425.535714" id="Stroke-54" stroke="#FFFFFF"></path>
                <path d="M421.12972,423.859784 L406.4029,425.167605" id="Stroke-55" stroke="#FFFFFF"></path>
                <g id="Group-60" transform="translate(0.000000, 400.982889)" stroke="#FFFFFF">
                    <path d="M442.155608,23.2457429 L426.693062,23.8178374" id="Stroke-56"></path>
                    <path d="M0.614540234,0.0813285067 L0.614540234,16.1159689" id="Stroke-58"></path>
                </g>
                <path d="M21.627141,401.419777 L20.918482,416.745758" id="Stroke-61" stroke="#FFFFFF"></path>
                <path d="M42.6397419,401.77546 L41.2211935,416.394013" id="Stroke-62" stroke="#FFFFFF"></path>
                <path d="M63.6512354,402.131143 L61.524028,416.041036" id="Stroke-63" stroke="#FFFFFF"></path>
                <path d="M84.6638362,402.487933 L81.8267395,415.687937" id="Stroke-64" stroke="#FFFFFF"></path>
                <path d="M105.675207,402.843616 L102.130681,415.333731" id="Stroke-65" stroke="#FFFFFF"></path>
                <path d="M126.687808,403.199176 L122.433393,414.980632" id="Stroke-66" stroke="#FFFFFF"></path>
                <path d="M147.700408,403.556089 L142.736104,414.627655" id="Stroke-67" stroke="#FFFFFF"></path>
                <path d="M168.711779,403.911649 L163.040046,414.274556" id="Stroke-68" stroke="#FFFFFF"></path>
                <path d="M189.72438,404.267331 L183.342758,413.92158" id="Stroke-69" stroke="#FFFFFF"></path>
                <path d="M210.735873,404.623014 L203.645592,413.568604" id="Stroke-70" stroke="#FFFFFF"></path>
                <path d="M231.748474,404.979804 L223.948304,413.215505" id="Stroke-71" stroke="#FFFFFF"></path>
                <path d="M252.761075,405.335487 L244.252245,412.862529" id="Stroke-72" stroke="#FFFFFF"></path>
                <path d="M273.772445,405.691047 L264.554957,412.509429" id="Stroke-73" stroke="#FFFFFF"></path>
                <path d="M294.785046,406.04673 L284.857668,412.156453" id="Stroke-74" stroke="#FFFFFF"></path>
                <path d="M315.796417,406.40352 L305.16038,411.803354" id="Stroke-75" stroke="#FFFFFF"></path>
                <path d="M336.809017,406.759203 L325.463091,411.450378" id="Stroke-76" stroke="#FFFFFF"></path>
                <path d="M357.820388,407.114886 L345.767033,411.096171" id="Stroke-77" stroke="#FFFFFF"></path>
                <path d="M378.832989,407.471676 L366.069745,410.743072" id="Stroke-78" stroke="#FFFFFF"></path>
                <path d="M399.84559,407.827359 L386.373686,410.390096" id="Stroke-79" stroke="#FFFFFF"></path>
                <path d="M420.857083,408.182918 L406.676521,410.038227" id="Stroke-80" stroke="#FFFFFF"></path>
                <g id="Group-85" transform="translate(0.000000, 385.189271)" stroke="#FFFFFF">
                    <path d="M441.869684,23.3493301 L426.978002,24.4959797" id="Stroke-81"></path>
                    <path d="M0.614540234,0.456445299 L0.614540234,16.492316" id="Stroke-83"></path>
                </g>
                <path d="M21.6139767,385.989342 L20.9311542,401.342391" id="Stroke-86" stroke="#FFFFFF"></path>
                <path d="M42.6121829,386.331738 L41.2489986,401.004424" id="Stroke-87" stroke="#FFFFFF"></path>
                <path d="M63.6103891,386.675364 L61.5656126,400.665228" id="Stroke-88" stroke="#FFFFFF"></path>
                <path d="M84.6085952,387.017759 L81.8822266,400.326031" id="Stroke-89" stroke="#FFFFFF"></path>
                <path d="M105.607909,387.361385 L102.198718,399.988064" id="Stroke-90" stroke="#FFFFFF"></path>
                <path d="M126.606115,387.70378 L122.515332,399.648868" id="Stroke-91" stroke="#FFFFFF"></path>
                <path d="M147.604321,388.047406 L142.831946,399.309671" id="Stroke-92" stroke="#FFFFFF"></path>
                <path d="M168.602527,388.389802 L163.14856,398.971705" id="Stroke-93" stroke="#FFFFFF"></path>
                <path d="M189.601841,388.733428 L183.465051,398.632508" id="Stroke-94" stroke="#FFFFFF"></path>
                <path d="M210.600047,389.075823 L203.781665,398.294542" id="Stroke-95" stroke="#FFFFFF"></path>
                <path d="M231.598253,389.419449 L224.098279,397.955345" id="Stroke-96" stroke="#FFFFFF"></path>
                <path d="M252.596459,389.761967 L244.416123,397.617502" id="Stroke-97" stroke="#FFFFFF"></path>
                <path d="M273.595773,390.105593 L264.732614,397.278305" id="Stroke-98" stroke="#FFFFFF"></path>
                <path d="M294.593979,390.449219 L285.047997,396.939108" id="Stroke-99" stroke="#FFFFFF"></path>
                <path d="M315.592185,390.791614 L305.364611,396.601142" id="Stroke-100" stroke="#FFFFFF"></path>
                <path d="M336.590391,391.13524 L325.682456,396.261945" id="Stroke-101" stroke="#FFFFFF"></path>
                <path d="M357.589705,391.477636 L345.998947,395.922749" id="Stroke-102" stroke="#FFFFFF"></path>
                <path d="M378.587911,391.821262 L366.31433,395.584782" id="Stroke-103" stroke="#FFFFFF"></path>
                <path d="M399.586117,392.163657 L386.632175,395.245586" id="Stroke-104" stroke="#FFFFFF"></path>
                <path d="M420.584323,392.507283 L406.948789,394.906389" id="Stroke-105" stroke="#FFFFFF"></path>
                <g id="Group-110" transform="translate(0.000000, 370.225119)" stroke="#FFFFFF">
                    <path d="M441.583637,22.624559 L427.26528,24.3420728" id="Stroke-106"></path>
                    <path d="M0.614540234,0.0032037723 L0.614540234,16.0378441" id="Stroke-108"></path>
                </g>
                <path d="M21.5995821,370.558785 L20.9462871,385.9389" id="Stroke-111" stroke="#FFFFFF"></path>
                <path d="M42.5845009,370.887893 L41.2766805,385.614713" id="Stroke-112" stroke="#FFFFFF"></path>
                <path d="M63.5695427,371.218354 L61.6059667,385.290649" id="Stroke-113" stroke="#FFFFFF"></path>
                <path d="M84.5544616,371.548693 L81.9363602,384.966462" id="Stroke-114" stroke="#FFFFFF"></path>
                <path d="M105.53938,371.879154 L102.266754,384.642398" id="Stroke-115" stroke="#FFFFFF"></path>
                <path d="M126.524422,372.208385 L122.59727,384.318334" id="Stroke-116" stroke="#FFFFFF"></path>
                <path d="M147.509341,372.538724 L142.926433,383.994147" id="Stroke-117" stroke="#FFFFFF"></path>
                <path d="M168.494383,372.869185 L163.25695,383.668853" id="Stroke-118" stroke="#FFFFFF"></path>
                <path d="M189.478071,373.199524 L183.588574,383.344666" id="Stroke-119" stroke="#FFFFFF"></path>
                <path d="M210.463113,373.528755 L203.91909,383.020602" id="Stroke-120" stroke="#FFFFFF"></path>
                <path d="M231.448032,373.859216 L224.248253,382.696539" id="Stroke-121" stroke="#FFFFFF"></path>
                <path d="M252.433074,374.189555 L244.57877,382.371121" id="Stroke-122" stroke="#FFFFFF"></path>
                <path d="M273.417993,374.520016 L264.909163,382.047058" id="Stroke-123" stroke="#FFFFFF"></path>
                <path d="M294.402912,374.850355 L285.239557,381.722871" id="Stroke-124" stroke="#FFFFFF"></path>
                <path d="M315.387953,375.179586 L305.570073,381.398807" id="Stroke-125" stroke="#FFFFFF"></path>
                <path d="M336.372872,375.510047 L325.900467,381.073513" id="Stroke-126" stroke="#FFFFFF"></path>
                <path d="M357.357914,375.840386 L346.230983,380.749326" id="Stroke-127" stroke="#FFFFFF"></path>
                <path d="M378.342833,376.170847 L366.561377,380.425262" id="Stroke-128" stroke="#FFFFFF"></path>
                <path d="M399.326644,376.500078 L386.891893,380.101198" id="Stroke-129" stroke="#FFFFFF"></path>
                <path d="M420.311563,376.830417 L407.221057,379.777011" id="Stroke-130" stroke="#FFFFFF"></path>
                <g id="Group-135" transform="translate(0.000000, 354.431502)" stroke="#FFFFFF">
                    <path d="M441.296482,22.7293765 L427.55145,25.0202151" id="Stroke-131"></path>
                    <path d="M0.614540234,0.378320564 L0.614540234,16.4141912" id="Stroke-133"></path>
                </g>
                <path d="M21.5862947,355.126997 L20.9588362,370.535409" id="Stroke-136" stroke="#FFFFFF"></path>
                <path d="M42.5580492,355.444171 L41.3019019,370.226355" id="Stroke-137" stroke="#FFFFFF"></path>
                <path d="M63.5286964,355.761345 L61.6475513,369.91607" id="Stroke-138" stroke="#FFFFFF"></path>
                <path d="M84.5004509,356.078519 L81.9906169,369.605786" id="Stroke-139" stroke="#FFFFFF"></path>
                <path d="M105.470975,356.395693 L102.334913,369.295501" id="Stroke-140" stroke="#FFFFFF"></path>
                <path d="M126.44273,356.71299 L122.677979,368.98657" id="Stroke-141" stroke="#FFFFFF"></path>
                <path d="M147.413254,357.030164 L143.023505,368.676286" id="Stroke-142" stroke="#FFFFFF"></path>
                <path d="M168.385008,357.348569 L163.366571,368.366002" id="Stroke-143" stroke="#FFFFFF"></path>
                <path d="M189.355532,357.665743 L183.710867,368.055717" id="Stroke-144" stroke="#FFFFFF"></path>
                <path d="M210.327287,357.982917 L204.053932,367.746663" id="Stroke-145" stroke="#FFFFFF"></path>
                <path d="M231.297811,358.300091 L224.399459,367.436379" id="Stroke-146" stroke="#FFFFFF"></path>
                <path d="M252.269566,358.617265 L244.742524,367.126094" id="Stroke-147" stroke="#FFFFFF"></path>
                <path d="M273.24132,358.934439 L265.08682,366.81458" id="Stroke-148" stroke="#FFFFFF"></path>
                <path d="M294.211967,359.251613 L285.430009,366.505526" id="Stroke-149" stroke="#FFFFFF"></path>
                <path d="M315.183722,359.568788 L305.775535,366.195241" id="Stroke-150" stroke="#FFFFFF"></path>
                <path d="M336.154246,359.886085 L326.118601,365.88508" id="Stroke-151" stroke="#FFFFFF"></path>
                <path d="M357.126,360.203259 L346.462897,365.574796" id="Stroke-152" stroke="#FFFFFF"></path>
                <path d="M378.096525,360.520433 L366.805963,365.264511" id="Stroke-153" stroke="#FFFFFF"></path>
                <path d="M399.068279,360.837607 L387.150259,364.955457" id="Stroke-154" stroke="#FFFFFF"></path>
                <path d="M420.038803,361.154781 L407.494555,364.645173" id="Stroke-155" stroke="#FFFFFF"></path>
                <g id="Group-160" transform="translate(0.000000, 338.437462)" stroke="#FFFFFF">
                    <path d="M441.010558,23.0344935 L427.83762,25.8974267" id="Stroke-156"></path>
                    <path d="M0.614540234,0.954967226 L0.614540234,16.9908379" id="Stroke-158"></path>
                </g>
                <path d="M21.5731304,339.696439 L20.9727387,355.133148" id="Stroke-161" stroke="#FFFFFF"></path>
                <path d="M42.5304903,340.000449 L41.3297069,354.836766" id="Stroke-162" stroke="#FFFFFF"></path>
                <path d="M63.4878501,340.305566 L61.6879054,354.540261" id="Stroke-163" stroke="#FFFFFF"></path>
                <path d="M84.4450869,340.609575 L82.0459809,354.24511" id="Stroke-164" stroke="#FFFFFF"></path>
                <path d="M105.402447,340.913585 L102.402949,353.949958" id="Stroke-165" stroke="#FFFFFF"></path>
                <path d="M126.361037,341.218702 L122.759917,353.653453" id="Stroke-166" stroke="#FFFFFF"></path>
                <path d="M147.318397,341.522712 L143.118116,353.358302" id="Stroke-167" stroke="#FFFFFF"></path>
                <path d="M168.275634,341.826599 L163.476191,353.063027" id="Stroke-168" stroke="#FFFFFF"></path>
                <path d="M189.232993,342.130609 L183.833159,352.767876" id="Stroke-169" stroke="#FFFFFF"></path>
                <path d="M210.190353,342.435849 L204.191358,352.471494" id="Stroke-170" stroke="#FFFFFF"></path>
                <path d="M231.14882,342.739735 L224.549433,352.176219" id="Stroke-171" stroke="#FFFFFF"></path>
                <path d="M252.10618,343.043745 L244.905171,351.879837" id="Stroke-172" stroke="#FFFFFF"></path>
                <path d="M273.06354,343.347755 L265.26337,351.583455" id="Stroke-173" stroke="#FFFFFF"></path>
                <path d="M294.0209,343.652872 L285.621568,351.288181" id="Stroke-174" stroke="#FFFFFF"></path>
                <path d="M314.97826,343.956882 L305.979767,350.993029" id="Stroke-175" stroke="#FFFFFF"></path>
                <path d="M335.936727,344.260892 L326.336612,350.696647" id="Stroke-176" stroke="#FFFFFF"></path>
                <path d="M356.894087,344.564778 L346.694811,350.401373" id="Stroke-177" stroke="#FFFFFF"></path>
                <path d="M377.851447,344.870019 L367.051779,350.106221" id="Stroke-178" stroke="#FFFFFF"></path>
                <path d="M398.808807,345.173905 L387.408747,349.810947" id="Stroke-179" stroke="#FFFFFF"></path>
                <path d="M419.766043,345.477915 L407.766822,349.514565" id="Stroke-180" stroke="#FFFFFF"></path>
                <g id="Group-185" transform="translate(0.000000, 323.673732)" stroke="#FFFFFF">
                    <path d="M440.724634,22.1094229 L428.125021,25.5456809" id="Stroke-181"></path>
                    <path d="M0.614540234,0.301426141 L0.614540234,16.3360665" id="Stroke-183"></path>
                </g>
                <path d="M21.5587358,324.265881 L20.9866413,339.728427" id="Stroke-186" stroke="#FFFFFF"></path>
                <path d="M42.5028083,324.557834 L41.3573889,339.448285" id="Stroke-187" stroke="#FFFFFF"></path>
                <path d="M63.4470038,324.848556 L61.7294899,339.166913" id="Stroke-188" stroke="#FFFFFF"></path>
                <path d="M84.3910763,325.140509 L82.1002376,338.885541" id="Stroke-189" stroke="#FFFFFF"></path>
                <path d="M105.335149,325.431354 L102.470985,338.603062" id="Stroke-190" stroke="#FFFFFF"></path>
                <path d="M126.279344,325.723307 L122.843086,338.321689" id="Stroke-191" stroke="#FFFFFF"></path>
                <path d="M147.222187,326.01403 L143.213834,338.040317" id="Stroke-192" stroke="#FFFFFF"></path>
                <path d="M168.166382,326.305982 L163.584705,337.760176" id="Stroke-193" stroke="#FFFFFF"></path>
                <path d="M189.110455,326.596705 L183.956683,337.478804" id="Stroke-194" stroke="#FFFFFF"></path>
                <path d="M210.054527,326.888657 L204.32743,337.197431" id="Stroke-195" stroke="#FFFFFF"></path>
                <path d="M230.998723,327.179503 L224.698301,336.916182" id="Stroke-196" stroke="#FFFFFF"></path>
                <path d="M251.942795,327.471456 L245.070279,336.63358" id="Stroke-197" stroke="#FFFFFF"></path>
                <path d="M272.88576,327.762178 L265.44115,336.352208" id="Stroke-198" stroke="#FFFFFF"></path>
                <path d="M293.829833,328.054131 L285.811897,336.072066" id="Stroke-199" stroke="#FFFFFF"></path>
                <path d="M314.774028,328.344853 L306.183998,335.790694" id="Stroke-200" stroke="#FFFFFF"></path>
                <path d="M335.718101,328.636806 L326.554746,335.509322" id="Stroke-201" stroke="#FFFFFF"></path>
                <path d="M356.662173,328.927652 L346.925494,335.228073" id="Stroke-202" stroke="#FFFFFF"></path>
                <path d="M377.606369,329.219604 L367.297595,334.945471" id="Stroke-203" stroke="#FFFFFF"></path>
                <path d="M398.550441,329.510327 L387.668343,334.664099" id="Stroke-204" stroke="#FFFFFF"></path>
                <path d="M419.493407,329.802279 L408.039213,334.383957" id="Stroke-205" stroke="#FFFFFF"></path>
                <path d="M440.437479,330.093002 L428.411191,334.102585" id="Stroke-206" stroke="#FFFFFF"></path>
                <path d="M0.614540234,308.556658 L0.614540234,324.592528" id="Stroke-207" stroke="#FFFFFF"></path>
                <path d="M21.5454484,308.835323 L21.0004207,324.326166" id="Stroke-209" stroke="#FFFFFF"></path>
                <path d="M42.4752493,309.114112 L41.385194,324.057466" id="Stroke-210" stroke="#FFFFFF"></path>
                <path d="M63.4061575,309.39167 L61.7698441,323.791227" id="Stroke-211" stroke="#FFFFFF"></path>
                <path d="M84.3358353,309.670335 L82.1557246,323.524865" id="Stroke-212" stroke="#FFFFFF"></path>
                <path d="M105.266744,309.949124 L102.539145,323.257395" id="Stroke-213" stroke="#FFFFFF"></path>
                <path d="M126.196421,310.227912 L122.925025,322.991156" id="Stroke-214" stroke="#FFFFFF"></path>
                <path d="M147.12733,310.505347 L143.308445,322.723563" id="Stroke-215" stroke="#FFFFFF"></path>
                <path d="M168.057007,310.784135 L163.694325,322.456094" id="Stroke-216" stroke="#FFFFFF"></path>
                <path d="M188.987916,311.062924 L184.078976,322.189855" id="Stroke-217" stroke="#FFFFFF"></path>
                <path d="M209.917593,311.341589 L204.463626,321.923492" id="Stroke-218" stroke="#FFFFFF"></path>
                <path d="M230.848502,311.620378 L224.848276,321.656023" id="Stroke-219" stroke="#FFFFFF"></path>
                <path d="M251.778179,311.897936 L245.234156,321.388553" id="Stroke-220" stroke="#FFFFFF"></path>
                <path d="M272.709088,312.176601 L265.617576,321.122191" id="Stroke-221" stroke="#FFFFFF"></path>
                <path d="M293.638766,312.45539 L286.003457,320.854721" id="Stroke-222" stroke="#FFFFFF"></path>
                <path d="M314.569674,312.734178 L306.388107,320.588482" id="Stroke-223" stroke="#FFFFFF"></path>
                <path d="M335.499475,313.011613 L326.77288,320.320889" id="Stroke-224" stroke="#FFFFFF"></path>
                <path d="M356.430383,313.290402 L347.15753,320.05342" id="Stroke-225" stroke="#FFFFFF"></path>
                <path d="M377.360061,313.56919 L367.543411,319.787181" id="Stroke-226" stroke="#FFFFFF"></path>
                <path d="M398.290969,313.847855 L387.926831,319.519588" id="Stroke-227" stroke="#FFFFFF"></path>
                <path d="M419.220647,314.125413 L408.312711,319.253349" id="Stroke-228" stroke="#FFFFFF"></path>
                <path d="M440.151555,314.404202 L428.696131,318.985879" id="Stroke-229" stroke="#FFFFFF"></path>
                <path d="M0.614540234,293.206562 L0.614540234,309.242433" id="Stroke-230" stroke="#FFFFFF"></path>
                <path d="M21.5322841,293.472063 L21.0130929,308.989973" id="Stroke-232" stroke="#FFFFFF"></path>
                <path d="M42.4487976,293.737564 L41.4116456,308.736283" id="Stroke-233" stroke="#FFFFFF"></path>
                <path d="M63.3651881,294.003189 L61.8100753,308.485177" id="Stroke-234" stroke="#FFFFFF"></path>
                <path d="M84.2817017,294.26869 L82.208628,308.232717" id="Stroke-235" stroke="#FFFFFF"></path>
                <path d="M105.198215,294.534191 L102.608411,307.980257" id="Stroke-236" stroke="#FFFFFF"></path>
                <path d="M126.114729,294.799692 L123.006964,307.726567" id="Stroke-237" stroke="#FFFFFF"></path>
                <path d="M147.031242,295.065193 L143.405516,307.474107" id="Stroke-238" stroke="#FFFFFF"></path>
                <path d="M167.948863,295.330817 L163.802716,307.221771" id="Stroke-239" stroke="#FFFFFF"></path>
                <path d="M188.865377,295.596318 L184.201268,306.969311" id="Stroke-240" stroke="#FFFFFF"></path>
                <path d="M209.78189,295.861819 L204.599821,306.715621" id="Stroke-241" stroke="#FFFFFF"></path>
                <path d="M230.698281,296.12732 L224.998251,306.463161" id="Stroke-242" stroke="#FFFFFF"></path>
                <path d="M251.614794,296.392821 L245.396804,306.210701" id="Stroke-243" stroke="#FFFFFF"></path>
                <path d="M272.531308,296.658445 L265.795356,305.958364" id="Stroke-244" stroke="#FFFFFF"></path>
                <path d="M293.448929,296.923946 L286.195016,305.705905" id="Stroke-245" stroke="#FFFFFF"></path>
                <path d="M314.365442,297.189447 L306.593569,305.453445" id="Stroke-246" stroke="#FFFFFF"></path>
                <path d="M335.281956,297.454948 L326.990891,305.200985" id="Stroke-247" stroke="#FFFFFF"></path>
                <path d="M356.198469,297.72045 L347.389444,304.947295" id="Stroke-248" stroke="#FFFFFF"></path>
                <path d="M377.114983,297.986074 L367.787997,304.694958" id="Stroke-249" stroke="#FFFFFF"></path>
                <path d="M398.031373,298.251575 L388.186426,304.442499" id="Stroke-250" stroke="#FFFFFF"></path>
                <path d="M418.947887,298.517076 L408.584979,304.190039" id="Stroke-251" stroke="#FFFFFF"></path>
                <path d="M439.865631,298.782577 L428.983532,303.936349" id="Stroke-252" stroke="#FFFFFF"></path>
                <path d="M0.614540234,277.796428 L0.614540234,293.832298" id="Stroke-253" stroke="#FFFFFF"></path>
                <path d="M21.5178894,278.048764 L21.0282258,293.593741" id="Stroke-255" stroke="#FFFFFF"></path>
                <path d="M42.4211156,278.302208 L41.4393276,293.355061" id="Stroke-256" stroke="#FFFFFF"></path>
                <path d="M63.3243418,278.554545 L61.8516598,293.117734" id="Stroke-257" stroke="#FFFFFF"></path>
                <path d="M84.227691,278.806882 L82.2628847,292.877946" id="Stroke-258" stroke="#FFFFFF"></path>
                <path d="M105.129687,279.059219 L102.676447,292.640619" id="Stroke-259" stroke="#FFFFFF"></path>
                <path d="M126.033036,279.312663 L123.087672,292.403169" id="Stroke-260" stroke="#FFFFFF"></path>
                <path d="M146.936262,279.564999 L143.500004,292.164612" id="Stroke-261" stroke="#FFFFFF"></path>
                <path d="M167.839488,279.817336 L163.912336,291.926055" id="Stroke-262" stroke="#FFFFFF"></path>
                <path d="M188.742838,280.069673 L184.323561,291.687498" id="Stroke-263" stroke="#FFFFFF"></path>
                <path d="M209.644834,280.323117 L204.737124,291.450048" id="Stroke-264" stroke="#FFFFFF"></path>
                <path d="M230.548183,280.575454 L225.148349,291.21149" id="Stroke-265" stroke="#FFFFFF"></path>
                <path d="M251.451409,280.82779 L245.560681,290.972933" id="Stroke-266" stroke="#FFFFFF"></path>
                <path d="M272.354635,281.080127 L265.973013,290.735606" id="Stroke-267" stroke="#FFFFFF"></path>
                <path d="M293.257984,281.333571 L286.385468,290.495696" id="Stroke-268" stroke="#FFFFFF"></path>
                <path d="M314.15998,281.585908 L306.797801,290.258369" id="Stroke-269" stroke="#FFFFFF"></path>
                <path d="M335.063329,281.838245 L327.209025,290.019811" id="Stroke-270" stroke="#FFFFFF"></path>
                <path d="M355.966556,282.090458 L347.621358,289.781131" id="Stroke-271" stroke="#FFFFFF"></path>
                <path d="M376.869782,282.344025 L368.032459,289.543804" id="Stroke-272" stroke="#FFFFFF"></path>
                <path d="M397.773131,282.596362 L388.446145,289.305247" id="Stroke-273" stroke="#FFFFFF"></path>
                <path d="M418.675127,282.848699 L408.858477,289.06669" id="Stroke-274" stroke="#FFFFFF"></path>
                <path d="M439.578476,283.100913 L429.269702,288.828009" id="Stroke-275" stroke="#FFFFFF"></path>
                <path d="M0.614540234,262.386293 L0.614540234,278.422164" id="Stroke-276" stroke="#FFFFFF"></path>
                <path d="M21.5046021,262.625465 L21.0407749,278.197509" id="Stroke-278" stroke="#FFFFFF"></path>
                <path d="M42.3935567,262.865745 L41.4671327,277.973962" id="Stroke-279" stroke="#FFFFFF"></path>
                <path d="M63.2834955,263.104795 L61.892014,277.749184" id="Stroke-280" stroke="#FFFFFF"></path>
                <path d="M84.1724501,263.345074 L82.3183717,277.525636" id="Stroke-281" stroke="#FFFFFF"></path>
                <path d="M105.062512,263.584247 L102.743376,277.302212" id="Stroke-282" stroke="#FFFFFF"></path>
                <path d="M125.951343,263.824526 L123.169611,277.077434" id="Stroke-283" stroke="#FFFFFF"></path>
                <path d="M146.841405,264.063576 L143.594615,276.853887" id="Stroke-284" stroke="#FFFFFF"></path>
                <path d="M167.730237,264.303855 L164.02085,276.631569" id="Stroke-285" stroke="#FFFFFF"></path>
                <path d="M188.619068,264.543028 L184.447085,276.406915" id="Stroke-286" stroke="#FFFFFF"></path>
                <path d="M209.50913,264.783308 L204.872089,276.183367" id="Stroke-287" stroke="#FFFFFF"></path>
                <path d="M230.397962,265.022357 L225.298324,275.95982" id="Stroke-288" stroke="#FFFFFF"></path>
                <path d="M251.288024,265.262637 L245.724558,275.735042" id="Stroke-289" stroke="#FFFFFF"></path>
                <path d="M272.176855,265.501809 L266.150793,275.511618" id="Stroke-290" stroke="#FFFFFF"></path>
                <path d="M293.066917,265.742089 L286.575797,275.28684" id="Stroke-291" stroke="#FFFFFF"></path>
                <path d="M313.955749,265.981138 L307.002032,275.063292" id="Stroke-292" stroke="#FFFFFF"></path>
                <path d="M334.84581,266.221418 L327.428267,274.839745" id="Stroke-293" stroke="#FFFFFF"></path>
                <path d="M355.734642,266.461698 L347.853271,274.614967" id="Stroke-294" stroke="#FFFFFF"></path>
                <path d="M376.624704,266.70087 L368.279506,274.391543" id="Stroke-295" stroke="#FFFFFF"></path>
                <path d="M397.513535,266.94115 L388.70451,274.167995" id="Stroke-296" stroke="#FFFFFF"></path>
                <path d="M418.402367,267.180199 L409.130745,273.943217" id="Stroke-297" stroke="#FFFFFF"></path>
                <path d="M439.292429,267.420479 L429.555749,273.71967" id="Stroke-298" stroke="#FFFFFF"></path>
                <path d="M0.614540234,246.976158 L0.614540234,263.010799" id="Stroke-299" stroke="#FFFFFF"></path>
                <path d="M21.4914378,247.202044 L21.0546774,262.802384" id="Stroke-301" stroke="#FFFFFF"></path>
                <path d="M42.367105,247.429159 L41.4935843,262.592739" id="Stroke-302" stroke="#FFFFFF"></path>
                <path d="M63.2426492,247.656274 L61.9335985,262.383094" id="Stroke-303" stroke="#FFFFFF"></path>
                <path d="M84.1183164,247.883267 L82.3725054,262.173326" id="Stroke-304" stroke="#FFFFFF"></path>
                <path d="M104.993984,248.110382 L102.812643,261.963681" id="Stroke-305" stroke="#FFFFFF"></path>
                <path d="M125.869651,248.336267 L123.25155,261.754036" id="Stroke-306" stroke="#FFFFFF"></path>
                <path d="M146.745195,248.563382 L143.691564,261.545622" id="Stroke-307" stroke="#FFFFFF"></path>
                <path d="M167.620862,248.790375 L164.130471,261.334623" id="Stroke-308" stroke="#FFFFFF"></path>
                <path d="M188.496529,249.01749 L184.570608,261.126209" id="Stroke-309" stroke="#FFFFFF"></path>
                <path d="M209.372197,249.243375 L205.009515,260.915334" id="Stroke-310" stroke="#FFFFFF"></path>
                <path d="M230.248971,249.470491 L225.449529,260.706919" id="Stroke-311" stroke="#FFFFFF"></path>
                <path d="M251.124638,249.697483 L245.888436,260.495921" id="Stroke-312" stroke="#FFFFFF"></path>
                <path d="M272.000306,249.924598 L266.327343,260.287506" id="Stroke-313" stroke="#FFFFFF"></path>
                <path d="M292.87585,250.150483 L286.766126,260.077861" id="Stroke-314" stroke="#FFFFFF"></path>
                <path d="M313.751517,250.377599 L307.206264,259.868216" id="Stroke-315" stroke="#FFFFFF"></path>
                <path d="M334.627184,250.604714 L327.645171,259.658571" id="Stroke-316" stroke="#FFFFFF"></path>
                <path d="M355.502728,250.831706 L348.085185,259.448803" id="Stroke-317" stroke="#FFFFFF"></path>
                <path d="M376.378396,251.057591 L368.524092,259.239158" id="Stroke-318" stroke="#FFFFFF"></path>
                <path d="M397.254063,251.284707 L388.964229,259.029513" id="Stroke-319" stroke="#FFFFFF"></path>
                <path d="M418.12973,251.511822 L409.403136,258.819868" id="Stroke-320" stroke="#FFFFFF"></path>
                <path d="M439.006505,251.738815 L429.84315,258.611331" id="Stroke-321" stroke="#FFFFFF"></path>
                <path d="M0.614540234,231.566024 L0.614540234,247.600664" id="Stroke-322" stroke="#FFFFFF"></path>
                <path d="M21.4770431,231.779975 L21.06858,247.406152" id="Stroke-324" stroke="#FFFFFF"></path>
                <path d="M42.339423,231.993803 L41.5212663,247.210287" id="Stroke-325" stroke="#FFFFFF"></path>
                <path d="M63.2018029,232.207631 L61.9739527,247.015651" id="Stroke-326" stroke="#FFFFFF"></path>
                <path d="M84.0630754,232.421582 L82.4279924,246.819909" id="Stroke-327" stroke="#FFFFFF"></path>
                <path d="M104.925455,232.63541 L102.880679,246.625274" id="Stroke-328" stroke="#FFFFFF"></path>
                <path d="M125.787958,232.849238 L123.333488,246.429408" id="Stroke-329" stroke="#FFFFFF"></path>
                <path d="M146.650338,233.063066 L143.786175,246.234773" id="Stroke-330" stroke="#FFFFFF"></path>
                <path d="M167.511488,233.277017 L164.240091,246.040261" id="Stroke-331" stroke="#FFFFFF"></path>
                <path d="M188.373991,233.490845 L184.692901,245.844396" id="Stroke-332" stroke="#FFFFFF"></path>
                <path d="M209.23637,233.704673 L205.145587,245.64976" id="Stroke-333" stroke="#FFFFFF"></path>
                <path d="M230.09875,233.918624 L225.598273,245.454018" id="Stroke-334" stroke="#FFFFFF"></path>
                <path d="M250.960023,234.132452 L246.052313,245.259383" id="Stroke-335" stroke="#FFFFFF"></path>
                <path d="M271.822403,234.34628 L266.505,245.063517" id="Stroke-336" stroke="#FFFFFF"></path>
                <path d="M292.684906,234.560108 L286.957809,244.868882" id="Stroke-337" stroke="#FFFFFF"></path>
                <path d="M313.547285,234.774059 L307.411726,244.67314" id="Stroke-338" stroke="#FFFFFF"></path>
                <path d="M334.408435,234.987887 L327.864412,244.478505" id="Stroke-339" stroke="#FFFFFF"></path>
                <path d="M355.270938,235.201715 L348.317221,244.282639" id="Stroke-340" stroke="#FFFFFF"></path>
                <path d="M376.133318,235.415543 L368.769908,244.088004" id="Stroke-341" stroke="#FFFFFF"></path>
                <path d="M396.995698,235.629494 L389.223824,243.892261" id="Stroke-342" stroke="#FFFFFF"></path>
                <path d="M417.85697,235.843322 L409.676634,243.697626" id="Stroke-343" stroke="#FFFFFF"></path>
                <path d="M438.71935,236.05715 L430.12932,243.501761" id="Stroke-344" stroke="#FFFFFF"></path>
                <path d="M0.614540234,216.154782 L0.614540234,232.190653" id="Stroke-345" stroke="#FFFFFF"></path>
                <path d="M21.4637558,216.356553 L21.0811291,232.011027" id="Stroke-347" stroke="#FFFFFF"></path>
                <path d="M42.311741,216.557217 L41.5489483,231.829064" id="Stroke-348" stroke="#FFFFFF"></path>
                <path d="M63.1609565,216.75788 L62.0143069,231.649562" id="Stroke-349" stroke="#FFFFFF"></path>
                <path d="M84.0089418,216.958544 L82.4821261,231.467599" id="Stroke-350" stroke="#FFFFFF"></path>
                <path d="M104.85705,217.160438 L102.948838,231.286866" id="Stroke-351" stroke="#FFFFFF"></path>
                <path d="M125.706143,217.360979 L123.415304,231.106011" id="Stroke-352" stroke="#FFFFFF"></path>
                <path d="M146.554251,217.561642 L143.882016,230.924048" id="Stroke-353" stroke="#FFFFFF"></path>
                <path d="M167.403343,217.762306 L164.348482,230.744545" id="Stroke-354" stroke="#FFFFFF"></path>
                <path d="M188.251452,217.9642 L184.815194,230.562582" id="Stroke-355" stroke="#FFFFFF"></path>
                <path d="M209.099437,218.164864 L205.281782,230.38308" id="Stroke-356" stroke="#FFFFFF"></path>
                <path d="M229.948652,218.365527 L225.748371,230.201117" id="Stroke-357" stroke="#FFFFFF"></path>
                <path d="M250.796638,218.566068 L246.21496,230.021492" id="Stroke-358" stroke="#FFFFFF"></path>
                <path d="M271.645853,218.767962 L266.682779,229.839529" id="Stroke-359" stroke="#FFFFFF"></path>
                <path d="M292.493838,218.968626 L287.148138,229.658796" id="Stroke-360" stroke="#FFFFFF"></path>
                <path d="M313.341824,219.169289 L307.615957,229.478063" id="Stroke-361" stroke="#FFFFFF"></path>
                <path d="M334.191039,219.369953 L328.081316,229.297331" id="Stroke-362" stroke="#FFFFFF"></path>
                <path d="M355.039024,219.571724 L348.549135,229.116475" id="Stroke-363" stroke="#FFFFFF"></path>
                <path d="M375.88824,219.772388 L369.015724,228.935742" id="Stroke-364" stroke="#FFFFFF"></path>
                <path d="M396.736225,219.973051 L389.482313,228.75501" id="Stroke-365" stroke="#FFFFFF"></path>
                <path d="M417.58421,220.173715 L409.948902,228.574277" id="Stroke-366" stroke="#FFFFFF"></path>
                <path d="M438.433426,220.375486 L430.41426,228.393421" id="Stroke-367" stroke="#FFFFFF"></path>
                <path d="M0.614540234,200.744647 L0.614540234,216.780518" id="Stroke-368" stroke="#FFFFFF"></path>
                <path d="M21.4505914,200.933254 L21.0950316,216.613565" id="Stroke-370" stroke="#FFFFFF"></path>
                <path d="M42.2854124,201.12063 L41.575523,216.447842" id="Stroke-371" stroke="#FFFFFF"></path>
                <path d="M63.1201102,201.30936 L62.0558914,216.281012" id="Stroke-372" stroke="#FFFFFF"></path>
                <path d="M83.9549311,201.496736 L82.5363828,216.115289" id="Stroke-373" stroke="#FFFFFF"></path>
                <path d="M104.789752,201.685343 L103.016874,215.948336" id="Stroke-374" stroke="#FFFFFF"></path>
                <path d="M125.62445,201.872842 L123.497243,215.782736" id="Stroke-375" stroke="#FFFFFF"></path>
                <path d="M146.459271,202.061449 L143.976504,215.615783" id="Stroke-376" stroke="#FFFFFF"></path>
                <path d="M167.294092,202.248825 L164.456995,215.44883" id="Stroke-377" stroke="#FFFFFF"></path>
                <path d="M188.128913,202.437555 L184.937486,215.281999" id="Stroke-378" stroke="#FFFFFF"></path>
                <path d="M208.96361,202.624931 L205.417855,215.115046" id="Stroke-379" stroke="#FFFFFF"></path>
                <path d="M229.798431,202.813538 L225.898346,214.949323" id="Stroke-380" stroke="#FFFFFF"></path>
                <path d="M250.633252,203.001037 L246.378838,214.782493" id="Stroke-381" stroke="#FFFFFF"></path>
                <path d="M271.46795,203.189644 L266.859206,214.61554" id="Stroke-382" stroke="#FFFFFF"></path>
                <path d="M292.302771,203.37702 L287.339697,214.449817" id="Stroke-383" stroke="#FFFFFF"></path>
                <path d="M313.137592,203.56575 L307.820189,214.282987" id="Stroke-384" stroke="#FFFFFF"></path>
                <path d="M333.97229,203.753126 L328.300557,214.117264" id="Stroke-385" stroke="#FFFFFF"></path>
                <path d="M354.807111,203.941733 L348.781049,213.950311" id="Stroke-386" stroke="#FFFFFF"></path>
                <path d="M375.641932,204.129232 L369.26031,213.784711" id="Stroke-387" stroke="#FFFFFF"></path>
                <path d="M396.476753,204.317839 L389.740801,213.617758" id="Stroke-388" stroke="#FFFFFF"></path>
                <path d="M417.31145,204.505215 L410.221169,213.450805" id="Stroke-389" stroke="#FFFFFF"></path>
                <path d="M438.147502,204.693822 L430.701661,213.283852" id="Stroke-390" stroke="#FFFFFF"></path>
                <path d="M0.614540234,185.334513 L0.614540234,201.370383" id="Stroke-391" stroke="#FFFFFF"></path>
                <path d="M21.4361968,185.509955 L21.1089341,201.218563" id="Stroke-393" stroke="#FFFFFF"></path>
                <path d="M42.2577304,185.685397 L41.603205,201.066743" id="Stroke-394" stroke="#FFFFFF"></path>
                <path d="M63.0792639,185.859609 L62.0962456,200.913692" id="Stroke-395" stroke="#FFFFFF"></path>
                <path d="M83.8996902,186.034929 L82.5918698,200.761749" id="Stroke-396" stroke="#FFFFFF"></path>
                <path d="M104.721224,186.210371 L103.08491,200.609928" id="Stroke-397" stroke="#FFFFFF"></path>
                <path d="M125.542757,186.385813 L123.577951,200.458108" id="Stroke-398" stroke="#FFFFFF"></path>
                <path d="M146.363184,186.560025 L144.073575,200.305057" id="Stroke-399" stroke="#FFFFFF"></path>
                <path d="M167.184717,186.735468 L164.566616,200.153237" id="Stroke-400" stroke="#FFFFFF"></path>
                <path d="M188.006251,186.910787 L185.059656,200.001294" id="Stroke-401" stroke="#FFFFFF"></path>
                <path d="M208.826677,187.086229 L205.555281,199.849473" id="Stroke-402" stroke="#FFFFFF"></path>
                <path d="M229.64821,187.260441 L226.048321,199.696423" id="Stroke-403" stroke="#FFFFFF"></path>
                <path d="M250.469867,187.435884 L246.542715,199.544602" id="Stroke-404" stroke="#FFFFFF"></path>
                <path d="M271.291401,187.611326 L267.036986,199.392782" id="Stroke-405" stroke="#FFFFFF"></path>
                <path d="M292.111704,187.786768 L287.530026,199.240961" id="Stroke-406" stroke="#FFFFFF"></path>
                <path d="M312.93336,187.96098 L308.02442,199.087911" id="Stroke-407" stroke="#FFFFFF"></path>
                <path d="M333.754894,188.136299 L328.518691,198.935967" id="Stroke-408" stroke="#FFFFFF"></path>
                <path d="M354.575197,188.311742 L349.012962,198.784147" id="Stroke-409" stroke="#FFFFFF"></path>
                <path d="M375.396854,188.487184 L369.506126,198.631096" id="Stroke-410" stroke="#FFFFFF"></path>
                <path d="M396.218387,188.661396 L390.000397,198.479276" id="Stroke-411" stroke="#FFFFFF"></path>
                <path d="M417.038691,188.836838 L410.494667,198.327456" id="Stroke-412" stroke="#FFFFFF"></path>
                <path d="M437.860347,189.012281 L430.987831,198.175635" id="Stroke-413" stroke="#FFFFFF"></path>
                <path d="M0.614540234,169.924378 L0.614540234,185.960249" id="Stroke-414" stroke="#FFFFFF"></path>
                <path d="M21.4229095,170.086533 L21.1227136,185.822208" id="Stroke-416" stroke="#FFFFFF"></path>
                <path d="M42.2300484,170.248811 L41.630887,185.68429" id="Stroke-417" stroke="#FFFFFF"></path>
                <path d="M63.0384176,170.410966 L62.1378301,185.547479" id="Stroke-418" stroke="#FFFFFF"></path>
                <path d="M83.8455565,170.573121 L82.6447732,185.409439" id="Stroke-419" stroke="#FFFFFF"></path>
                <path d="M104.652695,170.735399 L103.152947,185.27029" id="Stroke-420" stroke="#FFFFFF"></path>
                <path d="M125.461065,170.897554 L123.65989,185.13348" id="Stroke-421" stroke="#FFFFFF"></path>
                <path d="M146.268204,171.059832 L144.168063,184.995562" id="Stroke-422" stroke="#FFFFFF"></path>
                <path d="M167.075342,171.221987 L164.676236,184.857521" id="Stroke-423" stroke="#FFFFFF"></path>
                <path d="M187.883712,171.384142 L185.18318,184.720711" id="Stroke-424" stroke="#FFFFFF"></path>
                <path d="M208.690851,171.54642 L205.691353,184.582793" id="Stroke-425" stroke="#FFFFFF"></path>
                <path d="M229.498113,171.708575 L226.198419,184.444752" id="Stroke-426" stroke="#FFFFFF"></path>
                <path d="M250.306359,171.87073 L246.705239,184.305481" id="Stroke-427" stroke="#FFFFFF"></path>
                <path d="M271.113498,172.033008 L267.213412,184.168793" id="Stroke-428" stroke="#FFFFFF"></path>
                <path d="M291.92076,172.195163 L287.721709,184.030752" id="Stroke-429" stroke="#FFFFFF"></path>
                <path d="M312.729006,172.357318 L308.228529,183.892712" id="Stroke-430" stroke="#FFFFFF"></path>
                <path d="M333.536268,172.519596 L328.736825,183.756024" id="Stroke-431" stroke="#FFFFFF"></path>
                <path d="M354.343407,172.681751 L349.243768,183.617983" id="Stroke-432" stroke="#FFFFFF"></path>
                <path d="M375.151653,172.844029 L369.750588,183.480065" id="Stroke-433" stroke="#FFFFFF"></path>
                <path d="M395.958915,173.006184 L390.258885,183.342024" id="Stroke-434" stroke="#FFFFFF"></path>
                <path d="M416.766054,173.168339 L410.767058,183.203984" id="Stroke-435" stroke="#FFFFFF"></path>
                <path d="M437.574423,173.330617 L431.274001,183.066066" id="Stroke-436" stroke="#FFFFFF"></path>
                <path d="M0.614540234,154.514243 L0.614540234,170.550114" id="Stroke-437" stroke="#FFFFFF"></path>
                <path d="M21.4085148,154.663234 L21.1353858,170.427206" id="Stroke-439" stroke="#FFFFFF"></path>
                <path d="M42.2024894,154.812225 L41.658692,170.303068" id="Stroke-440" stroke="#FFFFFF"></path>
                <path d="M62.996341,154.962446 L62.1794146,170.178929" id="Stroke-441" stroke="#FFFFFF"></path>
                <path d="M83.7903155,155.111436 L82.7002602,170.056021" id="Stroke-442" stroke="#FFFFFF"></path>
                <path d="M104.58429,155.260427 L103.222336,169.933113" id="Stroke-443" stroke="#FFFFFF"></path>
                <path d="M125.378142,155.409418 L123.743059,169.808975" id="Stroke-444" stroke="#FFFFFF"></path>
                <path d="M146.172116,155.559515 L144.263904,169.684714" id="Stroke-445" stroke="#FFFFFF"></path>
                <path d="M166.966091,155.708506 L164.78598,169.563036" id="Stroke-446" stroke="#FFFFFF"></path>
                <path d="M187.759942,155.857497 L185.306703,169.438897" id="Stroke-447" stroke="#FFFFFF"></path>
                <path d="M208.553917,156.006487 L205.827548,169.314759" id="Stroke-448" stroke="#FFFFFF"></path>
                <path d="M229.347892,156.156708 L226.348394,169.191851" id="Stroke-449" stroke="#FFFFFF"></path>
                <path d="M250.141743,156.305699 L246.870347,169.068943" id="Stroke-450" stroke="#FFFFFF"></path>
                <path d="M270.935718,156.45469 L267.391192,168.944805" id="Stroke-451" stroke="#FFFFFF"></path>
                <path d="M291.729692,156.60368 L287.912038,168.821897" id="Stroke-452" stroke="#FFFFFF"></path>
                <path d="M312.524774,156.753778 L308.433991,168.697635" id="Stroke-453" stroke="#FFFFFF"></path>
                <path d="M333.318749,156.902769 L328.954836,168.574727" id="Stroke-454" stroke="#FFFFFF"></path>
                <path d="M354.112723,157.051759 L349.475682,168.451819" id="Stroke-455" stroke="#FFFFFF"></path>
                <path d="M374.906575,157.20075 L369.997635,168.327681" id="Stroke-456" stroke="#FFFFFF"></path>
                <path d="M395.700549,157.350971 L390.51848,168.204773" id="Stroke-457" stroke="#FFFFFF"></path>
                <path d="M416.494524,157.499962 L411.039326,168.081865" id="Stroke-458" stroke="#FFFFFF"></path>
                <path d="M437.288376,157.648952 L431.561279,167.957726" id="Stroke-459" stroke="#FFFFFF"></path>
                <path d="M0.614540234,139.104109 L0.614540234,155.138749" id="Stroke-460" stroke="#FFFFFF"></path>
                <path d="M21.3953505,139.239935 L21.1505186,155.030974" id="Stroke-462" stroke="#FFFFFF"></path>
                <path d="M42.1760377,139.376869 L41.6851437,154.921845" id="Stroke-463" stroke="#FFFFFF"></path>
                <path d="M62.9554946,139.512695 L62.2197688,154.81284" id="Stroke-464" stroke="#FFFFFF"></path>
                <path d="M83.7363049,139.649629 L82.7545169,154.702481" id="Stroke-465" stroke="#FFFFFF"></path>
                <path d="M104.516992,139.785332 L103.289142,154.593352" id="Stroke-466" stroke="#FFFFFF"></path>
                <path d="M125.296449,139.922389 L123.824997,154.485577" id="Stroke-467" stroke="#FFFFFF"></path>
                <path d="M146.077259,140.058092 L144.359745,154.376449" id="Stroke-468" stroke="#FFFFFF"></path>
                <path d="M166.857947,140.195025 L164.89314,154.26732" id="Stroke-469" stroke="#FFFFFF"></path>
                <path d="M187.637403,140.330852 L185.428996,154.157084" id="Stroke-470" stroke="#FFFFFF"></path>
                <path d="M208.418214,140.467785 L205.963744,154.049186" id="Stroke-471" stroke="#FFFFFF"></path>
                <path d="M229.198901,140.603612 L226.499599,153.94018" id="Stroke-472" stroke="#FFFFFF"></path>
                <path d="M249.978358,140.740545 L247.032994,153.831052" id="Stroke-473" stroke="#FFFFFF"></path>
                <path d="M270.759168,140.876372 L267.567742,153.720816" id="Stroke-474" stroke="#FFFFFF"></path>
                <path d="M291.539855,141.013305 L288.103597,153.611687" id="Stroke-475" stroke="#FFFFFF"></path>
                <path d="M312.319312,141.149008 L308.638222,153.503789" id="Stroke-476" stroke="#FFFFFF"></path>
                <path d="M333.100123,141.286065 L329.172971,153.394784" id="Stroke-477" stroke="#FFFFFF"></path>
                <path d="M353.88081,141.421768 L349.707596,153.285655" id="Stroke-478" stroke="#FFFFFF"></path>
                <path d="M374.660267,141.558702 L370.242221,153.175296" id="Stroke-479" stroke="#FFFFFF"></path>
                <path d="M395.441077,141.694528 L390.776969,153.066291" id="Stroke-480" stroke="#FFFFFF"></path>
                <path d="M416.221764,141.831462 L411.312824,152.958392" id="Stroke-481" stroke="#FFFFFF"></path>
                <path d="M437.001221,141.967288 L431.847449,152.849387" id="Stroke-482" stroke="#FFFFFF"></path>
                <path d="M0.614540234,123.693974 L0.614540234,139.728615" id="Stroke-483" stroke="#FFFFFF"></path>
                <path d="M21.3820631,123.816513 L21.1630678,139.633389" id="Stroke-485" stroke="#FFFFFF"></path>
                <path d="M42.1483557,123.940282 L41.7128257,139.540623" id="Stroke-486" stroke="#FFFFFF"></path>
                <path d="M62.9146483,124.064052 L62.2613533,139.445397" id="Stroke-487" stroke="#FFFFFF"></path>
                <path d="M83.6821712,124.187821 L82.8086506,139.350171" id="Stroke-488" stroke="#FFFFFF"></path>
                <path d="M104.448464,124.31036 L103.357178,139.254945" id="Stroke-489" stroke="#FFFFFF"></path>
                <path d="M125.214756,124.434129 L123.906936,139.160949" id="Stroke-490" stroke="#FFFFFF"></path>
                <path d="M145.982279,124.557898 L144.454233,139.065723" id="Stroke-491" stroke="#FFFFFF"></path>
                <path d="M166.748572,124.681668 L165.002761,138.971727" id="Stroke-492" stroke="#FFFFFF"></path>
                <path d="M187.514864,124.804207 L185.551288,138.876501" id="Stroke-493" stroke="#FFFFFF"></path>
                <path d="M208.282387,124.927976 L206.101046,138.782506" id="Stroke-494" stroke="#FFFFFF"></path>
                <path d="M229.04868,125.051622 L226.648344,138.687157" id="Stroke-495" stroke="#FFFFFF"></path>
                <path d="M249.814973,125.174284 L247.196871,138.592053" id="Stroke-496" stroke="#FFFFFF"></path>
                <path d="M270.581265,125.29793 L267.745399,138.497935" id="Stroke-497" stroke="#FFFFFF"></path>
                <path d="M291.348788,125.4217 L288.293926,138.402709" id="Stroke-498" stroke="#FFFFFF"></path>
                <path d="M312.115081,125.545469 L308.842454,138.308713" id="Stroke-499" stroke="#FFFFFF"></path>
                <path d="M332.881373,125.668008 L329.390982,138.213487" id="Stroke-500" stroke="#FFFFFF"></path>
                <path d="M353.648896,125.791777 L349.939509,138.119491" id="Stroke-501" stroke="#FFFFFF"></path>
                <path d="M374.415189,125.915546 L370.488037,138.024265" id="Stroke-502" stroke="#FFFFFF"></path>
                <path d="M395.181481,126.039316 L391.036564,137.929039" id="Stroke-503" stroke="#FFFFFF"></path>
                <path d="M415.949004,126.161855 L411.585092,137.833813" id="Stroke-504" stroke="#FFFFFF"></path>
                <path d="M436.715297,126.285624 L432.132389,137.741048" id="Stroke-505" stroke="#FFFFFF"></path>
                <path d="M0.614540234,108.282732 L0.614540234,124.318603" id="Stroke-506" stroke="#FFFFFF"></path>
                <path d="M21.3676685,108.393214 L21.1782006,124.238387" id="Stroke-508" stroke="#FFFFFF"></path>
                <path d="M42.1207968,108.503819 L41.7394004,124.158294" id="Stroke-509" stroke="#FFFFFF"></path>
                <path d="M62.873802,108.614301 L62.3017075,124.076847" id="Stroke-510" stroke="#FFFFFF"></path>
                <path d="M83.6269303,108.724783 L82.8641376,123.997861" id="Stroke-511" stroke="#FFFFFF"></path>
                <path d="M104.380059,108.835388 L103.426568,123.917768" id="Stroke-512" stroke="#FFFFFF"></path>
                <path d="M125.133064,108.94587 L123.987644,123.837551" id="Stroke-513" stroke="#FFFFFF"></path>
                <path d="M145.886192,109.056475 L144.550075,123.756228" id="Stroke-514" stroke="#FFFFFF"></path>
                <path d="M166.63932,109.166957 L165.112505,123.676012" id="Stroke-515" stroke="#FFFFFF"></path>
                <path d="M187.392326,109.277562 L185.674812,123.595918" id="Stroke-516" stroke="#FFFFFF"></path>
                <path d="M208.145454,109.388044 L206.236011,123.514472" id="Stroke-517" stroke="#FFFFFF"></path>
                <path d="M228.898459,109.498525 L226.798319,123.434256" id="Stroke-518" stroke="#FFFFFF"></path>
                <path d="M249.651587,109.60913 L247.360749,123.354162" id="Stroke-519" stroke="#FFFFFF"></path>
                <path d="M270.404716,109.719612 L267.921948,123.273946" id="Stroke-520" stroke="#FFFFFF"></path>
                <path d="M291.157721,109.830217 L288.484255,123.193853" id="Stroke-521" stroke="#FFFFFF"></path>
                <path d="M311.910849,109.940699 L309.046686,123.113637" id="Stroke-522" stroke="#FFFFFF"></path>
                <path d="M332.663977,110.051304 L329.610346,123.033543" id="Stroke-523" stroke="#FFFFFF"></path>
                <path d="M353.416983,110.161786 L350.171423,122.952097" id="Stroke-524" stroke="#FFFFFF"></path>
                <path d="M374.170111,110.272391 L370.733853,122.872004" id="Stroke-525" stroke="#FFFFFF"></path>
                <path d="M394.923239,110.382873 L391.296283,122.791787" id="Stroke-526" stroke="#FFFFFF"></path>
                <path d="M415.676244,110.493355 L411.85736,122.711571" id="Stroke-527" stroke="#FFFFFF"></path>
                <path d="M436.429373,110.60396 L432.41979,122.630248" id="Stroke-528" stroke="#FFFFFF"></path>
                <path d="M0.614540234,92.8725977 L0.614540234,108.908468" id="Stroke-529" stroke="#FFFFFF"></path>
                <path d="M21.3545042,92.9711456 L21.1908728,108.842155" id="Stroke-531" stroke="#FFFFFF"></path>
                <path d="M42.0943451,93.0684632 L41.7658521,108.777071" id="Stroke-532" stroke="#FFFFFF"></path>
                <path d="M62.8329557,93.1657808 L62.343292,108.710757" id="Stroke-533" stroke="#FFFFFF"></path>
                <path d="M83.5729196,93.2630983 L82.9183943,108.644444" id="Stroke-534" stroke="#FFFFFF"></path>
                <path d="M104.31153,93.3615232 L103.494604,108.578007" id="Stroke-535" stroke="#FFFFFF"></path>
                <path d="M125.051371,93.4588408 L124.069583,108.511693" id="Stroke-536" stroke="#FFFFFF"></path>
                <path d="M145.791212,93.5561584 L144.644562,108.44661" id="Stroke-537" stroke="#FFFFFF"></path>
                <path d="M166.529946,93.653476 L165.222125,108.380296" id="Stroke-538" stroke="#FFFFFF"></path>
                <path d="M187.269787,93.7507935 L185.797105,108.313982" id="Stroke-539" stroke="#FFFFFF"></path>
                <path d="M208.009628,93.8493414 L206.373314,108.247668" id="Stroke-540" stroke="#FFFFFF"></path>
                <path d="M228.748361,93.946659 L226.948416,108.182585" id="Stroke-541" stroke="#FFFFFF"></path>
                <path d="M249.488202,94.0439766 L247.523396,108.116271" id="Stroke-542" stroke="#FFFFFF"></path>
                <path d="M270.226813,94.1412942 L268.099605,108.051188" id="Stroke-543" stroke="#FFFFFF"></path>
                <path d="M290.966777,94.2398421 L288.675938,107.984874" id="Stroke-544" stroke="#FFFFFF"></path>
                <path d="M311.706617,94.3371597 L309.252147,107.91856" id="Stroke-545" stroke="#FFFFFF"></path>
                <path d="M332.445228,94.4344772 L329.827127,107.852247" id="Stroke-546" stroke="#FFFFFF"></path>
                <path d="M353.185192,94.5317948 L350.403459,107.785933" id="Stroke-547" stroke="#FFFFFF"></path>
                <path d="M373.923803,94.6303427 L370.978439,107.720849" id="Stroke-548" stroke="#FFFFFF"></path>
                <path d="M394.663644,94.7276603 L391.554648,107.654536" id="Stroke-549" stroke="#FFFFFF"></path>
                <path d="M415.403484,94.8249779 L412.130858,107.588222" id="Stroke-550" stroke="#FFFFFF"></path>
                <path d="M436.142218,94.9222955 L432.70596,107.521908" id="Stroke-551" stroke="#FFFFFF"></path>
                <path d="M0.614540234,77.4624631 L0.614540234,93.4983338" id="Stroke-552" stroke="#FFFFFF"></path>
                <path d="M21.3412168,77.5477236 L21.2046523,93.4470298" id="Stroke-554" stroke="#FFFFFF"></path>
                <path d="M42.0666631,77.6318769 L41.7935341,93.3958489" id="Stroke-555" stroke="#FFFFFF"></path>
                <path d="M62.7921094,77.7171374 L62.3836462,93.3433146" id="Stroke-556" stroke="#FFFFFF"></path>
                <path d="M83.5175556,77.8012907 L82.9737583,93.2921337" id="Stroke-557" stroke="#FFFFFF"></path>
                <path d="M104.244232,77.8865512 L103.56141,93.2395994" id="Stroke-558" stroke="#FFFFFF"></path>
                <path d="M124.969679,77.9707045 L124.151522,93.1884185" id="Stroke-559" stroke="#FFFFFF"></path>
                <path d="M145.695125,78.055965 L144.741634,93.1371145" id="Stroke-560" stroke="#FFFFFF"></path>
                <path d="M166.421801,78.1401183 L165.330516,93.0847033" id="Stroke-561" stroke="#FFFFFF"></path>
                <path d="M187.147248,78.2253788 L185.919397,93.0333993" id="Stroke-562" stroke="#FFFFFF"></path>
                <path d="M207.872694,78.3095321 L206.50951,92.9822184" id="Stroke-563" stroke="#FFFFFF"></path>
                <path d="M228.59814,78.3947926 L227.098391,92.9296841" id="Stroke-564" stroke="#FFFFFF"></path>
                <path d="M249.324817,78.4789458 L247.688503,92.8785032" id="Stroke-565" stroke="#FFFFFF"></path>
                <path d="M270.050263,78.5629761 L268.277385,92.8271992" id="Stroke-566" stroke="#FFFFFF"></path>
                <path d="M290.775709,78.6483596 L288.866267,92.774788" id="Stroke-567" stroke="#FFFFFF"></path>
                <path d="M311.501156,78.7323899 L309.456379,92.723484" id="Stroke-568" stroke="#FFFFFF"></path>
                <path d="M332.227832,78.8176504 L330.046491,92.6721801" id="Stroke-569" stroke="#FFFFFF"></path>
                <path d="M352.953278,78.9018037 L350.634143,92.6197688" id="Stroke-570" stroke="#FFFFFF"></path>
                <path d="M373.678725,78.9870642 L371.224255,92.5684649" id="Stroke-571" stroke="#FFFFFF"></path>
                <path d="M394.404171,79.0712175 L391.814367,92.5172839" id="Stroke-572" stroke="#FFFFFF"></path>
                <path d="M415.130848,79.156478 L412.403249,92.4647497" id="Stroke-573" stroke="#FFFFFF"></path>
                <path d="M435.856294,79.2406312 L432.99213,92.4135688" id="Stroke-574" stroke="#FFFFFF"></path>
                <path d="M0.614540234,62.0523285 L0.614540234,78.0881991" id="Stroke-575" stroke="#FFFFFF"></path>
                <path d="M21.3268222,62.1244247 L21.2185548,78.0507977" id="Stroke-577" stroke="#FFFFFF"></path>
                <path d="M42.0391041,62.1965209 L41.8213391,78.0133962" id="Stroke-578" stroke="#FFFFFF"></path>
                <path d="M62.7512631,62.2673868 L62.4240004,77.9772251" id="Stroke-579" stroke="#FFFFFF"></path>
                <path d="M83.463545,62.339483 L83.028015,77.9398237" id="Stroke-580" stroke="#FFFFFF"></path>
                <path d="M104.175704,62.4115792 L103.630676,77.9011919" id="Stroke-581" stroke="#FFFFFF"></path>
                <path d="M124.887986,62.4824451 L124.233461,77.8637905" id="Stroke-582" stroke="#FFFFFF"></path>
                <path d="M145.600268,62.5545413 L144.836245,77.826389" id="Stroke-583" stroke="#FFFFFF"></path>
                <path d="M166.312427,62.6266375 L165.438906,77.7889876" id="Stroke-584" stroke="#FFFFFF"></path>
                <path d="M187.024709,62.6987337 L186.04169,77.7515861" id="Stroke-585" stroke="#FFFFFF"></path>
                <path d="M207.736991,62.7695996 L206.645705,77.7141847" id="Stroke-586" stroke="#FFFFFF"></path>
                <path d="M228.447919,62.8416959 L227.248366,77.6780135" id="Stroke-587" stroke="#FFFFFF"></path>
                <path d="M249.160201,62.9137921 L247.852381,77.6406121" id="Stroke-588" stroke="#FFFFFF"></path>
                <path d="M269.872483,62.9858883 L268.455165,77.6032106" id="Stroke-589" stroke="#FFFFFF"></path>
                <path d="M290.584642,63.0567542 L289.057826,77.5658092" id="Stroke-590" stroke="#FFFFFF"></path>
                <path d="M311.296924,63.1288504 L309.660611,77.5284077" id="Stroke-591" stroke="#FFFFFF"></path>
                <path d="M332.009083,63.2009466 L330.263272,77.4910063" id="Stroke-592" stroke="#FFFFFF"></path>
                <path d="M352.721365,63.2730428 L350.866056,77.4536048" id="Stroke-593" stroke="#FFFFFF"></path>
                <path d="M373.433647,63.3439087 L371.468841,77.4162034" id="Stroke-594" stroke="#FFFFFF"></path>
                <path d="M394.145806,63.4160049 L392.072732,77.3800323" id="Stroke-595" stroke="#FFFFFF"></path>
                <path d="M414.858088,63.4881011 L412.676747,77.3426308" id="Stroke-596" stroke="#FFFFFF"></path>
                <path d="M435.570247,63.558967 L433.279408,77.3039991" id="Stroke-597" stroke="#FFFFFF"></path>
                <path d="M0.614540234,46.6421938 L0.614540234,62.6780645" id="Stroke-598" stroke="#FFFFFF"></path>
                <path d="M21.3136579,46.7011257 L21.2324573,62.6557959" id="Stroke-600" stroke="#FFFFFF"></path>
                <path d="M42.0126525,46.7599346 L41.8477908,62.6309436" id="Stroke-601" stroke="#FFFFFF"></path>
                <path d="M62.7104167,46.8188665 L62.4655849,62.608675" id="Stroke-602" stroke="#FFFFFF"></path>
                <path d="M83.4094113,46.8776753 L83.0809183,62.5862833" id="Stroke-603" stroke="#FFFFFF"></path>
                <path d="M104.107299,46.9366072 L103.698835,62.5627844" id="Stroke-604" stroke="#FFFFFF"></path>
                <path d="M124.806293,46.9954161 L124.315399,62.5403927" id="Stroke-605" stroke="#FFFFFF"></path>
                <path d="M145.504058,47.054348 L144.931963,62.5168938" id="Stroke-606" stroke="#FFFFFF"></path>
                <path d="M166.203175,47.1131568 L165.54865,62.4945022" id="Stroke-607" stroke="#FFFFFF"></path>
                <path d="M186.900939,47.1720887 L186.165214,62.4722335" id="Stroke-608" stroke="#FFFFFF"></path>
                <path d="M207.599934,47.2308975 L206.781777,62.4473813" id="Stroke-609" stroke="#FFFFFF"></path>
                <path d="M228.298929,47.2898294 L227.399571,62.4251126" id="Stroke-610" stroke="#FFFFFF"></path>
                <path d="M248.996816,47.3486383 L248.015028,62.4014907" id="Stroke-611" stroke="#FFFFFF"></path>
                <path d="M269.695811,47.4075702 L268.631592,62.379222" id="Stroke-612" stroke="#FFFFFF"></path>
                <path d="M290.393575,47.466379 L289.248155,62.3568304" id="Stroke-613" stroke="#FFFFFF"></path>
                <path d="M311.092692,47.5253109 L309.864842,62.3333314" id="Stroke-614" stroke="#FFFFFF"></path>
                <path d="M331.790457,47.5841198 L330.482636,62.3109398" id="Stroke-615" stroke="#FFFFFF"></path>
                <path d="M352.489451,47.6430517 L351.09797,62.2874409" id="Stroke-616" stroke="#FFFFFF"></path>
                <path d="M373.188446,47.7018605 L371.715764,62.2650492" id="Stroke-617" stroke="#FFFFFF"></path>
                <path d="M393.886333,47.7607924 L392.33122,62.2415503" id="Stroke-618" stroke="#FFFFFF"></path>
                <path d="M414.585328,47.8196013 L412.949014,62.2179283" id="Stroke-619" stroke="#FFFFFF"></path>
                <path d="M435.283092,47.8785331 L433.565578,62.1956597" id="Stroke-620" stroke="#FFFFFF"></path>
                <path d="M0.614540234,31.2320592 L0.614540234,47.2666996" id="Stroke-621" stroke="#FFFFFF"></path>
                <path d="M21.3003705,31.2777038 L21.2450065,47.2582104" id="Stroke-623" stroke="#FFFFFF"></path>
                <path d="M41.9849705,31.3233483 L41.8754728,47.2497213" id="Stroke-624" stroke="#FFFFFF"></path>
                <path d="M62.6695704,31.3689928 L62.5059391,47.2412322" id="Stroke-625" stroke="#FFFFFF"></path>
                <path d="M83.3541704,31.4158677 L83.1364054,47.232743" id="Stroke-626" stroke="#FFFFFF"></path>
                <path d="M104.040001,31.4615122 L103.766872,47.2254842" id="Stroke-627" stroke="#FFFFFF"></path>
                <path d="M124.724601,31.5071567 L124.396108,47.2157647" id="Stroke-628" stroke="#FFFFFF"></path>
                <path d="M145.409201,31.5529243 L145.026574,47.2073986" id="Stroke-629" stroke="#FFFFFF"></path>
                <path d="M166.093801,31.5996761 L165.65827,47.1987864" id="Stroke-630" stroke="#FFFFFF"></path>
                <path d="M186.7784,31.6453206 L186.288737,47.1902973" id="Stroke-631" stroke="#FFFFFF"></path>
                <path d="M207.464231,31.6910882 L206.919203,47.1819312" id="Stroke-632" stroke="#FFFFFF"></path>
                <path d="M228.148831,31.7367327 L227.548439,47.173442" id="Stroke-633" stroke="#FFFFFF"></path>
                <path d="M248.833431,31.7836075 L248.178905,47.1637226" id="Stroke-634" stroke="#FFFFFF"></path>
                <path d="M269.518031,31.8292521 L268.809372,47.1552334" id="Stroke-635" stroke="#FFFFFF"></path>
                <path d="M290.202631,31.8748966 L289.439838,47.1467443" id="Stroke-636" stroke="#FFFFFF"></path>
                <path d="M310.888338,31.9205411 L310.070181,47.1382551" id="Stroke-637" stroke="#FFFFFF"></path>
                <path d="M331.572938,31.9661857 L330.699417,47.129766" id="Stroke-638" stroke="#FFFFFF"></path>
                <path d="M352.257538,32.0130605 L351.329883,47.1212769" id="Stroke-639" stroke="#FFFFFF"></path>
                <path d="M372.942138,32.058705 L371.96035,47.1115574" id="Stroke-640" stroke="#FFFFFF"></path>
                <path d="M393.626738,32.1043496 L392.590816,47.1030683" id="Stroke-641" stroke="#FFFFFF"></path>
                <path d="M414.312568,32.1499941 L413.221282,47.0945791" id="Stroke-642" stroke="#FFFFFF"></path>
                <path d="M434.997168,32.1968689 L433.851749,47.0873203" id="Stroke-643" stroke="#FFFFFF"></path>
                <path d="M0.614540234,15.7606551 L0.614540234,31.7965258" id="Stroke-644" stroke="#FFFFFF"></path>
                <path d="M21.2859759,15.7943656 L21.2601393,31.8031695" id="Stroke-646" stroke="#FFFFFF"></path>
                <path d="M41.9574115,15.8267228 L41.9032778,31.8084598" id="Stroke-647" stroke="#FFFFFF"></path>
                <path d="M62.6287241,15.8604333 L62.5475236,31.8138732" id="Stroke-648" stroke="#FFFFFF"></path>
                <path d="M83.3001597,15.8927905 L83.1906621,31.8191635" id="Stroke-649" stroke="#FFFFFF"></path>
                <path d="M103.971472,15.926501 L103.834908,31.8258072" id="Stroke-650" stroke="#FFFFFF"></path>
                <path d="M124.642908,15.9588582 L124.478046,31.8310975" id="Stroke-651" stroke="#FFFFFF"></path>
                <path d="M145.313113,15.9925687 L145.123645,31.8377412" id="Stroke-652" stroke="#FFFFFF"></path>
                <path d="M165.984426,16.0250489 L165.766661,31.8419243" id="Stroke-653" stroke="#FFFFFF"></path>
                <path d="M186.655862,16.0586364 L186.41103,31.8484449" id="Stroke-654" stroke="#FFFFFF"></path>
                <path d="M207.327174,16.0911166 L207.054045,31.8550886" id="Stroke-655" stroke="#FFFFFF"></path>
                <path d="M227.99861,16.1247041 L227.698414,31.8603789" id="Stroke-656" stroke="#FFFFFF"></path>
                <path d="M248.670045,16.1571843 L248.341552,31.8670226" id="Stroke-657" stroke="#FFFFFF"></path>
                <path d="M269.341358,16.1907718 L268.987028,31.8710826" id="Stroke-658" stroke="#FFFFFF"></path>
                <path d="M290.011563,16.223252 L289.630167,31.8777263" id="Stroke-659" stroke="#FFFFFF"></path>
                <path d="M310.682999,16.2568395 L310.274536,31.8830167" id="Stroke-660" stroke="#FFFFFF"></path>
                <path d="M331.354312,16.2893197 L330.918782,31.8896603" id="Stroke-661" stroke="#FFFFFF"></path>
                <path d="M352.025747,16.3229072 L351.56192,31.8937204" id="Stroke-662" stroke="#FFFFFF"></path>
                <path d="M372.69706,16.3553874 L372.206166,31.900364" id="Stroke-663" stroke="#FFFFFF"></path>
                <path d="M393.368495,16.3890979 L392.850535,31.9057774" id="Stroke-664" stroke="#FFFFFF"></path>
                <path d="M414.039808,16.421455 L413.49478,31.9122981" id="Stroke-665" stroke="#FFFFFF"></path>
                <path d="M434.711244,16.4539352 L434.137919,31.9177114" id="Stroke-666" stroke="#FFFFFF"></path>
                <g id="Group-711" transform="translate(0.000000, 0.101998)" stroke="#FFFFFF">
                    <path d="M0.614540234,0.0984248622 L0.614540234,16.1342955" id="Stroke-667"></path>
                    <path d="M21.2728115,0.118848021 L21.2728115,16.1534884" id="Stroke-669"></path>
                    <path d="M41.9297295,0.138040869 L41.9297295,16.1739116" id="Stroke-671"></path>
                    <path d="M62.5878778,0.158464028 L62.5878778,16.1943347" id="Stroke-673"></path>
                    <path d="M83.2460261,0.178887187 L83.2460261,16.2135276" id="Stroke-675"></path>
                    <path d="M103.903067,0.198080035 L103.903067,16.2339507" id="Stroke-677"></path>
                    <path d="M124.561215,0.218503194 L124.561215,16.2543739" id="Stroke-679"></path>
                    <path d="M145.218133,0.238926353 L145.218133,16.274797" id="Stroke-681"></path>
                    <path d="M165.876282,0.259349512 L165.876282,16.2939899" id="Stroke-683"></path>
                    <path d="M186.533323,0.27854236 L186.533323,16.314413" id="Stroke-685"></path>
                    <path d="M207.191471,0.298965519 L207.191471,16.3348362" id="Stroke-687"></path>
                    <path d="M227.848389,0.319388678 L227.848389,16.3552594" id="Stroke-689"></path>
                    <path d="M248.506537,0.339811837 L248.506537,16.3744522" id="Stroke-691"></path>
                    <path d="M269.163578,0.359127716 L269.163578,16.3949984" id="Stroke-693"></path>
                    <path d="M289.821726,0.379550875 L289.821726,16.4154216" id="Stroke-695"></path>
                    <path d="M310.478644,0.399974034 L310.478644,16.4346144" id="Stroke-697"></path>
                    <path d="M331.136916,0.419166882 L331.136916,16.4550376" id="Stroke-699"></path>
                    <path d="M351.793834,0.439590041 L351.793834,16.4754607" id="Stroke-701"></path>
                    <path d="M372.451982,0.4600132 L372.451982,16.4958839" id="Stroke-703"></path>
                    <path d="M393.109023,0.480436359 L393.109023,16.5150767" id="Stroke-705"></path>
                    <path d="M413.767171,0.499629207 L413.767171,16.5354999" id="Stroke-707"></path>
                    <path d="M434.424089,0.520052366 L434.424089,16.555923" id="Stroke-709"></path>
                </g>
            </g>
        </g>
    </g>
</svg>