<?xml version="1.0" encoding="utf-8"?>
<!-- Generator: Adobe Illustrator 22.1.0, SVG Export Plug-In . SVG Version: 6.00 Build 0)  -->
<svg version="1.1" id="Layer_1" xmlns="http://www.w3.org/2000/svg" xmlns:xlink="http://www.w3.org/1999/xlink" x="0px" y="0px"
	 viewBox="0 0 35.1 35.1" style="enable-background:new 0 0 35.1 35.1;" xml:space="preserve">
<style type="text/css">
	.st0{fill:#37A3F9;}
</style>
<title>Asset 2</title>
<g id="Layer_2_1_">
	<g id="Layer_1-2">
		<g id="Page-1">
			<g id="Desktop-HD">
				<g id="Group-6">
					<path id="Fill-1" class="st0" d="M35.1,0v28.1c0,3.9-3.1,7-7,7h0H0V0H35.1z M27.1,12.1c-0.8-1.5-1.8-2.7-3.2-3.7
						c-1.8-1.3-4-2-6.3-2C11.8,6.5,7,11.2,7,17c0,0,0,0,0,0.1c0,5.9,4.7,10.7,10.6,10.8c3.9,0,7.5-2.1,9.4-5.5h-3.8
						c-1.4,1.7-3.4,2.7-5.6,2.7c-4.3,0-7.6-3.8-7.6-8c-0.1-4.3,3.3-7.8,7.6-7.9c0,0,0,0,0.1,0c2.3,0,4.4,1.1,5.8,2.9L27.1,12.1z"/>
				</g>
			</g>
		</g>
	</g>
</g>
</svg>
