<?xml version="1.0" encoding="UTF-8"?>
<svg width="512px" height="428px" viewBox="0 0 512 428" version="1.1" xmlns="http://www.w3.org/2000/svg" xmlns:xlink="http://www.w3.org/1999/xlink">
    <!-- Generator: Sketch 49 (51002) - http://www.bohemiancoding.com/sketch -->
    <title>Complexity</title>
    <desc>Created with Sketch.</desc>
    <defs></defs>
    <g id="Complexity" stroke="none" stroke-width="1" fill="none" fill-rule="evenodd">
        <g id="graphic-design" transform="translate(22.000000, -2.000000)" fill="#909090" fill-rule="nonzero">
            <path d="M419.082219,156.653016 L336.496609,156.653016 L372.313187,94.6197656 C372.314859,94.61475 372.318203,94.6105703 372.322383,94.6055547 C372.325727,94.5980312 372.32907,94.5913437 372.33325,94.5871641 L390.140391,63.7427422 C390.145406,63.7335469 390.15293,63.7268594 390.157945,63.7185 C390.163797,63.7076328 390.168812,63.6959297 390.1755,63.6833906 L404.292812,39.2322187 C408.785141,31.4488047 406.110141,21.4560078 398.324219,16.9544844 L372.719453,2.1734375 C370.252602,0.75234375 367.444687,0 364.597484,0 C358.777687,0 353.358305,3.12055469 350.452586,8.14704687 L264.71382,156.653016 L8.91778125,156.653016 C3.99327344,156.653016 0.0008359375,160.647125 0.0008359375,165.569961 L0.0008359375,419.083055 C0.0008359375,424.007562 3.99327344,428 8.91778125,428 L419.083055,428 C424.007563,428 428,424.008398 428,419.083055 L428,165.569961 C427.999164,160.646289 424.007562,156.653016 419.082219,156.653016 Z M365.13332,18.3856094 L388.085656,31.6352187 L379.169547,47.0791641 L356.218047,33.8270469 L365.13332,18.3856094 Z M347.301937,49.2718281 L370.253437,62.5231094 L361.33482,77.9670547 L338.384156,64.7174453 L347.301937,49.2718281 Z M271.766625,180.100227 L329.467211,80.1605547 L352.417875,93.4101641 L294.717289,193.348164 L281.751898,201.038789 L271.589406,195.173016 L271.766625,180.100227 Z M17.8338906,174.486906 L166.97768,174.486906 C133.594516,187.503289 102.962422,207.4195 76.8644531,233.518305 C50.7664844,259.617109 30.8511094,290.246695 17.8338906,323.633203 L17.8338906,174.486906 Z M262.429203,267.940539 C257.504695,267.940539 253.512258,271.933812 253.512258,276.857484 L253.512258,410.166945 L18.0136172,410.166945 C22.6305,282.038625 126.256656,178.728453 254.512039,174.627344 C254.171813,175.566102 253.973695,176.553344 253.961992,177.558141 L253.698672,200.03232 C253.697836,200.048203 253.698672,200.064922 253.697836,200.081641 L253.431172,222.808273 C253.393555,226.031648 255.098031,229.024305 257.888391,230.63432 C259.269359,231.432641 260.807484,231.828875 262.346445,231.828875 C263.921352,231.828875 265.492914,231.412578 266.895617,230.582492 L305.820211,207.496406 C307.135141,206.716477 308.228547,205.610531 308.99343,204.284734 L319.561352,185.983555 C371.31675,207.703719 406.493836,257.356734 409.893594,313.303523 L271.346148,313.303523 L271.346148,276.856648 C271.346148,271.932977 267.353711,267.940539 262.429203,267.940539 Z M313.306867,410.166945 L271.346148,410.166945 L271.346148,331.137414 L313.306867,331.137414 L313.306867,410.166945 Z M331.139922,331.137414 L409.716375,331.137414 C405.529164,372.527187 372.525516,405.530836 331.139922,409.717211 L331.139922,331.137414 Z M410.166109,410.166945 L380.932539,410.166945 C392.482687,402.43118 402.429508,392.483523 410.166109,380.931703 L410.166109,410.166945 Z M410.166109,247.440008 C406.605852,240.426492 402.533164,233.631156 397.951391,227.100813 C382.179758,204.628305 361.41925,186.704133 337.209664,174.485234 L410.166945,174.485234 L410.166945,247.440008 L410.166109,247.440008 Z M271.346984,251.126492 L271.346984,251.533594 C271.346984,256.457266 267.354547,260.450539 262.430039,260.450539 C257.505531,260.450539 253.513094,256.457266 253.513094,251.533594 L253.513094,251.126492 C253.513094,246.203656 257.505531,242.209547 262.430039,242.209547 C267.355383,242.209547 271.346148,246.20282 271.346984,251.126492 Z" id="Shape"></path>
        </g>
    </g>
</svg>