<?xml version="1.0" encoding="UTF-8"?>
<svg width="512px" height="428px" viewBox="0 0 512 428" version="1.1" xmlns="http://www.w3.org/2000/svg" xmlns:xlink="http://www.w3.org/1999/xlink">
    <!-- Generator: Sketch 49 (51002) - http://www.bohemiancoding.com/sketch -->
    <title>Flexibility</title>
    <desc>Created with Sketch.</desc>
    <defs></defs>
    <g id="Flexibility" stroke="none" stroke-width="1" fill="none" fill-rule="evenodd">
        <g id="vector" transform="translate(65.476562, 75.151426)" fill="#909090" fill-rule="nonzero">
            <path d="M300.764758,27.12904 L230.706327,27.12904 L230.706327,27.1265004 C230.706327,19.6486743 224.643053,13.5815911 217.161418,13.5815911 L162.98178,13.5815911 C155.501414,13.5815911 149.436871,19.6486743 149.436871,27.1265004 L149.436871,27.12904 L79.3860584,27.12904 C73.7938787,11.364528 58.7391823,0.0430306425 41.0839447,0.0430306425 C18.6796716,0.0430306425 0.450486297,18.2696763 0.450486297,40.6739494 C0.450486297,63.0807621 18.6796716,81.3074078 41.0839447,81.3074078 C58.7391823,81.3074078 73.7938787,69.9833709 79.3860584,54.2188588 L149.438141,54.2188588 L149.438141,64.5575344 C82.5122951,81.7315195 33.8029368,139.61769 28.1040943,208.411405 L13.9941259,208.411405 C6.51629975,208.411405 0.449216502,214.475949 0.449216502,221.956315 L0.449216502,276.130873 C0.449216502,283.611239 6.51629975,289.675782 13.9941259,289.675782 L68.1712239,289.675782 C75.6515896,289.675782 81.7161332,283.612508 81.7161332,276.130873 L81.7161332,221.955045 C81.7161332,214.475949 75.6528594,208.410135 68.1712239,208.410135 L55.3234322,208.410135 C60.8610107,152.841341 100.081187,106.194131 153.962422,91.3857753 C156.359796,93.5317298 159.515238,94.8485078 162.98305,94.8485078 L217.162688,94.8485078 C220.634309,94.8485078 223.789751,93.53046 226.183315,91.3857753 C280.064551,106.186512 319.287266,152.834992 324.824845,208.410135 L311.977053,208.410135 C304.496688,208.410135 298.432144,214.475949 298.432144,221.955045 L298.432144,276.129603 C298.432144,283.609969 304.495418,289.674513 311.977053,289.674513 L366.151612,289.674513 C373.631977,289.674513 379.696521,283.611239 379.696521,276.129603 L379.696521,221.955045 C379.696521,214.475949 373.633247,208.410135 366.151612,208.410135 L352.041643,208.410135 C346.34407,139.611341 297.635982,81.7251705 230.707597,64.5562646 L230.707597,54.217589 L300.766028,54.217589 C306.355668,69.9821011 321.410365,81.306138 339.065602,81.306138 C361.472415,81.306138 379.699061,63.0794923 379.699061,40.6726796 C379.699061,18.2684065 361.472415,0.041760847 339.065602,0.041760847 C321.409095,0.0430306425 306.354398,11.364528 300.764758,27.12904 Z M41.0864843,54.217589 C33.6175467,54.217589 27.5415749,48.1416172 27.5415749,40.6726796 C27.5415749,33.2037421 33.6175467,27.1315796 41.0864843,27.1315796 C48.5554218,27.1315796 54.6275843,33.2050119 54.6275843,40.6726796 C54.6288541,48.1416172 48.554152,54.217589 41.0864843,54.217589 Z M54.6288541,262.585964 L27.5403051,262.585964 L27.5403051,235.499954 L54.6288541,235.499954 L54.6288541,262.585964 Z M203.617778,67.7599588 L176.527959,67.7599588 L176.527959,40.6714098 L203.617778,40.6714098 L203.617778,67.7599588 Z M325.519423,235.498684 L352.605432,235.498684 L352.605432,262.584694 L325.519423,262.584694 L325.519423,235.498684 Z M339.064332,27.1315796 C346.53327,27.1315796 352.609242,33.2050119 352.609242,40.6726796 C352.609242,48.1416172 346.53327,54.217589 339.064332,54.217589 C331.595395,54.217589 325.523232,48.1416172 325.523232,40.6726796 C325.523232,33.2050119 331.597934,27.1315796 339.064332,27.1315796 Z" id="Shape"></path>
        </g>
    </g>
</svg>