<?xml version="1.0" encoding="UTF-8"?>
<svg width="52px" height="69px" viewBox="0 0 52 69" version="1.1" xmlns="http://www.w3.org/2000/svg" xmlns:xlink="http://www.w3.org/1999/xlink">
    <!-- Generator: Sketch 51.3 (57544) - http://www.bohemiancoding.com/sketch -->
    <title>Fill 1</title>
    <desc>Created with Sketch.</desc>
    <defs></defs>
    <g id="Page-1" stroke="none" stroke-width="1" fill="none" fill-rule="evenodd">
        <g id="Desktop-HD" transform="translate(-763.000000, -4093.000000)" fill="#4A90E2">
            <path d="M814.331375,4118.66569 C814.331375,4104.49178 802.839596,4093 788.665687,4093 C774.491779,4093 763,4104.49178 763,4118.66569 C763,4123.91324 764.577552,4128.78958 767.280603,4132.85492 L767.274611,4132.85492 L767.313524,4132.90581 C767.747577,4133.5524 768.20859,4134.17806 768.696507,4134.78269 L788.666116,4161.86761 C788.666116,4161.86761 809.587506,4133.55274 810.01818,4132.90597 L810.057094,4132.85508 L810.051101,4132.85508 C812.754152,4128.78996 814.331704,4123.91362 814.331704,4118.66584 L814.331375,4118.66569 Z M788.665687,4129.01718 C782.948229,4129.01718 778.314197,4124.3833 778.314197,4118.66569 C778.314197,4112.94808 782.948075,4108.3142 788.665687,4108.3142 C794.383299,4108.3142 799.017177,4112.94808 799.017177,4118.66569 C799.017177,4124.3833 794.383299,4129.01718 788.665687,4129.01718 Z" id="Fill-1"></path>
        </g>
    </g>
</svg>