<?xml version="1.0" encoding="UTF-8"?>
<svg width="512px" height="428px" viewBox="0 0 512 428" version="1.1" xmlns="http://www.w3.org/2000/svg" xmlns:xlink="http://www.w3.org/1999/xlink">
    <!-- Generator: Sketch 49 (51002) - http://www.bohemiancoding.com/sketch -->
    <title>Security</title>
    <desc>Created with Sketch.</desc>
    <defs></defs>
    <g id="Security" stroke="none" stroke-width="1" fill="none" fill-rule="evenodd">
        <g id="Group" transform="translate(56.500000, 14.500000)" fill="#909090" fill-rule="nonzero">
            <g id="shutter" transform="translate(0.023438, 0.023438)">
                <path d="M312.076494,348.307841 L158.390785,259.57909 C155.826429,258.097531 152.665873,258.097531 150.101517,259.57909 C147.537161,261.059094 145.956883,263.796792 145.956883,266.757578 L145.956883,384.369734 C145.956883,388.201888 148.584202,391.533452 152.309864,392.429695 C167.524216,396.085399 183.22983,397.937736 198.992188,397.937736 C239.941049,397.937736 279.250556,385.608771 312.675025,362.285487 C314.999969,360.663235 316.335393,357.965958 316.21491,355.132651 C316.093649,352.300122 314.532804,349.726438 312.076494,348.307841 Z M198.992965,381.358422 C186.717634,381.358422 174.484279,380.134154 162.536197,377.715155 L162.536197,281.114553 L292.042023,355.881981 C263.97091,372.587997 232.06842,381.358422 198.992965,381.358422 Z M397.249814,182.186675 C397.006515,179.361919 395.337623,176.856639 392.82457,175.546866 C390.310739,174.233984 387.300205,174.300055 384.846227,175.717097 L231.161296,264.445848 C228.596939,265.927407 227.016661,268.66355 227.016661,271.624336 C227.016661,274.585122 228.596939,277.323597 231.161296,278.802824 L303.393905,320.507233 C303.407119,320.515784 303.418002,320.522002 303.431216,320.528221 L333.016535,337.611234 C334.312316,338.359009 335.741018,338.722014 337.15806,338.722014 C339.376512,338.722014 341.564649,337.8351 343.174464,336.13978 C353.944139,324.792561 363.400932,312.116914 371.282111,298.465739 C391.758096,263.003155 400.736841,222.795073 397.249814,182.186675 Z M356.925135,290.174916 C350.78747,300.805452 343.611314,310.79004 335.544358,319.92658 L320.817381,311.425105 C327.832633,303.823759 334.136643,295.573357 339.62292,286.788162 C342.048137,282.903928 340.864289,277.790762 336.98161,275.366322 C333.098153,272.942659 327.984986,274.124953 325.559769,278.009187 C319.960782,286.978604 313.405699,295.321507 306.050762,302.899534 L251.884466,271.624336 L381.388737,196.856908 C381.820924,229.516501 373.463252,261.530924 356.925135,290.174916 Z M275.905777,211.037433 C277.188344,211.777436 278.6186,212.148214 280.050411,212.148214 C281.482222,212.148214 282.912479,211.777436 284.195046,211.037433 L386.052617,152.232133 C389.371744,150.316833 390.943472,146.376632 389.856011,142.700718 C385.417552,127.705568 379.168731,113.178361 371.282888,99.5194131 C350.81079,64.0568289 320.478473,36.1753805 283.566199,18.8933754 C280.999511,17.6908719 277.995195,17.8844229 275.60418,19.4064022 C273.210832,20.9268268 271.76192,23.5658053 271.76192,26.4006666 L271.76192,203.858168 C271.761143,206.819732 273.342198,209.555874 275.905777,211.037433 Z M288.338902,39.9655598 C316.842979,55.9191366 340.387796,79.1631342 356.924358,107.809459 C363.065133,118.444658 368.12311,129.651961 371.998794,141.201281 L288.338902,189.50197 L288.338902,39.9655598 Z M85.9078811,49.6749794 L239.59359,138.40373 C240.876156,139.145287 242.306413,139.514511 243.738224,139.514511 C245.170035,139.514511 246.600291,139.145287 247.882858,138.40373 C250.447214,136.923726 252.027492,134.186029 252.027492,131.225243 L252.027492,47.912033 C252.027492,47.8926002 252.029047,47.8716127 252.027492,47.8521799 L252.027492,13.6146413 C252.027492,9.78248703 249.401728,6.4501452 245.676066,5.55468036 C230.471819,1.90053085 214.763873,0.0466387939 198.992965,0.0466387939 C158.043326,0.0466387939 118.732264,12.375604 85.3085726,35.6988875 C82.9836288,37.3211402 81.6497592,40.0184171 81.7717974,42.8517239 C81.892281,45.6842533 83.4531259,48.2579374 85.9078811,49.6749794 Z M198.992965,16.6259527 C211.273737,16.6259527 223.507092,17.8502211 235.448955,20.2692198 L235.448955,37.2706149 C225.365648,34.997751 215.06858,33.6615495 204.711658,33.3024308 C200.128619,33.1617371 196.298797,36.7233864 196.140225,41.298652 C195.981653,45.874695 199.561181,49.7122905 204.137224,49.8716397 C214.71257,50.2369769 225.215627,51.7434099 235.448955,54.3240899 L235.448955,116.868267 L105.944684,42.100062 C134.013465,25.3963779 165.915955,16.6259527 198.992965,16.6259527 Z M13.1397029,222.267278 L166.821525,133.536972 C169.388213,132.056968 170.966159,129.319271 170.966159,126.358484 C170.966159,123.397698 169.388213,120.661556 166.821525,119.179997 L64.9670627,60.3731414 C61.6479352,58.4555097 57.4504437,59.0664779 54.810688,61.8445954 C44.0441224,73.1824862 34.5881069,85.8596877 26.6999322,99.5186358 C6.22627899,134.984329 -2.75324347,175.190856 0.734561005,215.7977 C0.977082733,218.622456 2.64675156,221.127736 5.16135986,222.439064 C6.36386343,223.065578 7.68063205,223.378058 8.99506873,223.378058 C10.4268797,223.378058 11.8586907,223.00728 13.1397029,222.267278 Z M41.0569076,107.808681 C47.1992368,97.1719272 54.3746152,87.190448 62.43924,78.0570175 L146.097577,126.357707 L16.5964148,201.127467 C16.1634514,168.467097 24.5203459,136.454229 41.0569076,107.808681 Z M122.078598,186.945387 C119.514241,185.463828 116.353686,185.463828 113.789329,186.945387 L41.6974137,228.568956 C41.6468884,228.597717 41.5971403,228.6257 41.546615,228.656015 L11.9325354,245.75302 C8.61340793,247.670651 7.04012595,251.610075 8.12758716,255.284434 C12.5660457,270.273366 18.8133122,284.800573 26.6991549,298.465739 C47.1766947,333.929878 77.5090117,361.809772 114.417399,379.091777 C115.535175,379.614909 116.736124,379.873754 117.932409,379.873754 C119.484704,379.873754 121.029225,379.438459 122.380973,378.577973 C124.772765,377.055994 126.221677,374.41857 126.221677,371.583708 L126.221677,194.123097 C126.223232,191.163089 124.642177,188.426169 122.078598,186.945387 Z M109.64625,358.018815 L109.644695,358.018815 C81.145283,342.065238 57.5981332,318.821241 41.0600169,290.174916 C34.9192423,279.536607 29.8612651,268.329305 25.984804,256.783094 L40.7102259,248.28162 C43.7844998,258.158939 47.7767805,267.744766 52.6427614,276.886747 C54.1344254,279.685851 57.0027113,281.282453 59.9673839,281.282453 C61.2818206,281.282453 62.6141355,280.968418 63.856282,280.307702 C67.8975335,278.157654 69.4288406,273.137765 67.2772376,269.096513 C62.310206,259.765645 58.3630094,249.917087 55.4784,239.756048 L109.64625,208.481627 L109.64625,358.018815 Z M346.779643,254.019746 C350.984908,255.83244 352.923527,260.709304 351.107723,264.913013 L350.942933,265.295452 C349.591962,268.432688 346.536344,270.313009 343.322154,270.313009 C342.230806,270.313009 341.120025,270.096915 340.053552,269.638301 C335.84751,267.83027 333.902672,262.954961 335.71148,258.74892 L335.884821,258.349381 C337.698293,254.145671 342.57671,252.206274 346.779643,254.019746 Z M180.524002,34.235984 C185.08139,33.744722 189.163062,37.0420848 189.651214,41.5932538 C190.140922,46.1452 186.845891,50.232313 182.294722,50.721243 L181.949595,50.7601087 C181.620791,50.7989744 181.295874,50.8184072 180.973289,50.8184072 C176.826323,50.8184072 173.246019,47.7114862 172.751647,43.49223 C172.219188,38.9441703 175.473798,34.8275194 180.019526,34.2942825 L180.524002,34.235984 Z" id="Shape"></path>
            </g>
        </g>
    </g>
</svg>