<?xml version="1.0" encoding="UTF-8"?>
<svg width="34px" height="605px" viewBox="0 0 34 605" version="1.1" xmlns="http://www.w3.org/2000/svg" xmlns:xlink="http://www.w3.org/1999/xlink">
    <!-- Generator: Sketch 51.3 (57544) - http://www.bohemiancoding.com/sketch -->
    <title>BG Grid Copy 2</title>
    <desc>Created with Sketch.</desc>
    <defs></defs>
    <g id="BG-Grid-Copy-2" stroke="none" stroke-width="1" fill="none" fill-rule="evenodd">
        <path d="M0.360932312,141.711156 L0.360932312,164.433835" id="Shape" stroke="#FFFFFF" stroke-width="0.5" stroke-dasharray="4.227999877929688"></path>
        <polyline id="Shape" stroke="#FFFFFF" stroke-width="0.5" points="33.9720494 166.501309 33.9720494 168.846271 31.6270878 168.846271"></polyline>
        <path d="M27.496047,168.846271 L4.7733685,168.846271" id="Shape" stroke="#FFFFFF" stroke-width="0.5" stroke-dasharray="4.227999877929688"></path>
        <polyline id="Shape" stroke="#FFFFFF" stroke-width="0.5" points="2.70589397 168.846271 0.360932312 168.846271 0.360932312 166.501309"></polyline>
        <path d="M0.360932312,162.370268 L0.360932312,139.64759" id="Shape" stroke="#FFFFFF" stroke-width="0.5" stroke-dasharray="4.227999877929688"></path>
        <polyline id="Shape" stroke="#FFFFFF" stroke-width="0.5" points="0.360932312 137.580115 0.360932312 135.235154 2.70589397 135.235154"></polyline>
        <path d="M6.83693476,135.235154 L29.5596132,135.235154" id="Shape" stroke="#FFFFFF" stroke-width="0.5" stroke-dasharray="4.227999877929688"></path>
        <polyline id="Shape" stroke="#FFFFFF" stroke-width="0.5" points="31.6270878 135.235154 33.9720494 135.235154 33.9720494 137.580115"></polyline>
        <path d="M33.9720494,141.711156 L33.9720494,164.433835" id="Shape" stroke="#FFFFFF" stroke-width="0.5" stroke-dasharray="4.227999877929688"></path>
        <polyline id="Shape" stroke="#FFFFFF" stroke-width="0.5" points="33.9720494 200.112426 33.9720494 202.457388 31.6270878 202.457388"></polyline>
        <path d="M27.496047,202.457388 L4.7733685,202.457388" id="Shape" stroke="#FFFFFF" stroke-width="0.5" stroke-dasharray="4.227999877929688"></path>
        <polyline id="Shape" stroke="#FFFFFF" stroke-width="0.5" points="2.70589397 202.457388 0.360932312 202.457388 0.360932312 200.112426"></polyline>
        <path d="M0.360932312,195.981386 L0.360932312,173.258707" id="Shape" stroke="#FFFFFF" stroke-width="0.5" stroke-dasharray="4.227999877929688"></path>
        <polyline id="Shape" stroke="#FFFFFF" stroke-width="0.5" points="0.360932312 171.191233 0.360932312 168.846271 2.70589397 168.846271"></polyline>
        <path d="M6.83693476,168.846271 L29.5596132,168.846271" id="Shape" stroke="#FFFFFF" stroke-width="0.5" stroke-dasharray="4.227999877929688"></path>
        <polyline id="Shape" stroke="#FFFFFF" stroke-width="0.5" points="31.6270878 168.846271 33.9720494 168.846271 33.9720494 171.191233"></polyline>
        <path d="M33.9720494,175.322273 L33.9720494,198.044952" id="Shape" stroke="#FFFFFF" stroke-width="0.5" stroke-dasharray="4.227999877929688"></path>
        <path d="M0.360932312,108.100039 L0.360932312,130.822718" id="Shape" stroke="#FFFFFF" stroke-width="0.5" stroke-dasharray="4.227999877929688"></path>
        <path d="M0.360932312,175.322273 L0.360932312,198.044952" id="Shape" stroke="#FFFFFF" stroke-width="0.5" stroke-dasharray="4.227999877929688"></path>
        <polyline id="Shape" stroke="#FFFFFF" stroke-width="0.5" points="33.9720494 132.890192 33.9720494 135.235154 31.6270878 135.235154"></polyline>
        <path d="M27.496047,135.235154 L4.7733685,135.235154" id="Shape" stroke="#FFFFFF" stroke-width="0.5" stroke-dasharray="4.227999877929688"></path>
        <polyline id="Shape" stroke="#FFFFFF" stroke-width="0.5" points="2.70589397 135.235154 0.360932312 135.235154 0.360932312 132.890192"></polyline>
        <path d="M0.360932312,128.759151 L0.360932312,106.036473" id="Shape" stroke="#FFFFFF" stroke-width="0.5" stroke-dasharray="4.227999877929688"></path>
        <polyline id="Shape" stroke="#FFFFFF" stroke-width="0.5" points="0.360932312 103.968998 0.360932312 101.624037 2.70589397 101.624037"></polyline>
        <path d="M6.83693476,101.624037 L29.5596132,101.624037" id="Shape" stroke="#FFFFFF" stroke-width="0.5" stroke-dasharray="4.227999877929688"></path>
        <polyline id="Shape" stroke="#FFFFFF" stroke-width="0.5" points="31.6270878 101.624037 33.9720494 101.624037 33.9720494 103.968998"></polyline>
        <path d="M33.9720494,108.100039 L33.9720494,130.822718" id="Shape" stroke="#FFFFFF" stroke-width="0.5" stroke-dasharray="4.227999877929688"></path>
        <path d="M0.360932312,242.319782 L0.360932312,265.042461" id="Shape" stroke="#FFFFFF" stroke-width="0.5" stroke-dasharray="4.227999877929688"></path>
        <polyline id="Shape" stroke="#FFFFFF" stroke-width="0.5" points="33.9720494 267.109935 33.9720494 269.454897 31.6270878 269.454897"></polyline>
        <path d="M27.496047,269.454897 L4.7733685,269.454897" id="Shape" stroke="#FFFFFF" stroke-width="0.5" stroke-dasharray="4.227999877929688"></path>
        <polyline id="Shape" stroke="#FFFFFF" stroke-width="0.5" points="2.70589397 269.454897 0.360932312 269.454897 0.360932312 267.109935"></polyline>
        <path d="M0.360932312,262.978894 L0.360932312,240.256216" id="Shape" stroke="#FFFFFF" stroke-width="0.5" stroke-dasharray="4.227999877929688"></path>
        <polyline id="Shape" stroke="#FFFFFF" stroke-width="0.5" points="0.360932312 238.188741 0.360932312 235.84378 2.70589397 235.84378"></polyline>
        <path d="M6.83693476,235.84378 L29.5596132,235.84378" id="Shape" stroke="#FFFFFF" stroke-width="0.5" stroke-dasharray="4.227999877929688"></path>
        <polyline id="Shape" stroke="#FFFFFF" stroke-width="0.5" points="31.6270878 235.84378 33.9720494 235.84378 33.9720494 238.188741"></polyline>
        <path d="M33.9720494,242.319782 L33.9720494,265.042461" id="Shape" stroke="#FFFFFF" stroke-width="0.5" stroke-dasharray="4.227999877929688"></path>
        <polyline id="Shape" stroke="#FFFFFF" stroke-width="0.5" points="33.9720494 300.721052 33.9720494 303.066014 31.6270878 303.066014"></polyline>
        <path d="M27.496047,303.066014 L4.7733685,303.066014" id="Shape" stroke="#FFFFFF" stroke-width="0.5" stroke-dasharray="4.227999877929688"></path>
        <polyline id="Shape" stroke="#FFFFFF" stroke-width="0.5" points="2.70589397 303.066014 0.360932312 303.066014 0.360932312 300.721052"></polyline>
        <path d="M0.360932312,296.590011 L0.360932312,273.867333" id="Shape" stroke="#FFFFFF" stroke-width="0.5" stroke-dasharray="4.227999877929688"></path>
        <polyline id="Shape" stroke="#FFFFFF" stroke-width="0.5" points="0.360932312 271.799858 0.360932312 269.454897 2.70589397 269.454897"></polyline>
        <path d="M6.83693476,269.454897 L29.5596132,269.454897" id="Shape" stroke="#FFFFFF" stroke-width="0.5" stroke-dasharray="4.227999877929688"></path>
        <polyline id="Shape" stroke="#FFFFFF" stroke-width="0.5" points="31.6270878 269.454897 33.9720494 269.454897 33.9720494 271.799858"></polyline>
        <path d="M33.9720494,275.930899 L33.9720494,298.653578" id="Shape" stroke="#FFFFFF" stroke-width="0.5" stroke-dasharray="4.227999877929688"></path>
        <path d="M0.360932312,208.708665 L0.360932312,231.431343" id="Shape" stroke="#FFFFFF" stroke-width="0.5" stroke-dasharray="4.227999877929688"></path>
        <path d="M0.360932312,275.930899 L0.360932312,298.653578" id="Shape" stroke="#FFFFFF" stroke-width="0.5" stroke-dasharray="4.227999877929688"></path>
        <polyline id="Shape" stroke="#FFFFFF" stroke-width="0.5" points="33.9720494 233.498818 33.9720494 235.84378 31.6270878 235.84378"></polyline>
        <path d="M27.496047,235.84378 L4.7733685,235.84378" id="Shape" stroke="#FFFFFF" stroke-width="0.5" stroke-dasharray="4.227999877929688"></path>
        <polyline id="Shape" stroke="#FFFFFF" stroke-width="0.5" points="2.70589397 235.84378 0.360932312 235.84378 0.360932312 233.498818"></polyline>
        <path d="M0.360932312,229.367777 L0.360932312,206.645099" id="Shape" stroke="#FFFFFF" stroke-width="0.5" stroke-dasharray="4.227999877929688"></path>
        <polyline id="Shape" stroke="#FFFFFF" stroke-width="0.5" points="0.360932312 204.577624 0.360932312 202.232663 2.70589397 202.232663"></polyline>
        <path d="M6.83693476,202.232663 L29.5596132,202.232663" id="Shape" stroke="#FFFFFF" stroke-width="0.5" stroke-dasharray="4.227999877929688"></path>
        <polyline id="Shape" stroke="#FFFFFF" stroke-width="0.5" points="31.6270878 202.232663 33.9720494 202.232663 33.9720494 204.577624"></polyline>
        <path d="M33.9720494,208.708665 L33.9720494,231.431343" id="Shape" stroke="#FFFFFF" stroke-width="0.5" stroke-dasharray="4.227999877929688"></path>
        <path d="M0.360932312,242.319782 L0.360932312,265.042461" id="Shape" stroke="#FFFFFF" stroke-width="0.5" stroke-dasharray="4.227999877929688"></path>
        <polyline id="Shape" stroke="#FFFFFF" stroke-width="0.5" points="33.9720494 267.109935 33.9720494 269.454897 31.6270878 269.454897"></polyline>
        <path d="M27.496047,269.454897 L4.7733685,269.454897" id="Shape" stroke="#FFFFFF" stroke-width="0.5" stroke-dasharray="4.227999877929688"></path>
        <polyline id="Shape" stroke="#FFFFFF" stroke-width="0.5" points="2.70589397 269.454897 0.360932312 269.454897 0.360932312 267.109935"></polyline>
        <path d="M0.360932312,262.978894 L0.360932312,240.256216" id="Shape" stroke="#FFFFFF" stroke-width="0.5" stroke-dasharray="4.227999877929688"></path>
        <polyline id="Shape" stroke="#FFFFFF" stroke-width="0.5" points="0.360932312 238.188741 0.360932312 235.84378 2.70589397 235.84378"></polyline>
        <path d="M6.83693476,235.84378 L29.5596132,235.84378" id="Shape" stroke="#FFFFFF" stroke-width="0.5" stroke-dasharray="4.227999877929688"></path>
        <polyline id="Shape" stroke="#FFFFFF" stroke-width="0.5" points="31.6270878 235.84378 33.9720494 235.84378 33.9720494 238.188741"></polyline>
        <path d="M33.9720494,242.319782 L33.9720494,265.042461" id="Shape" stroke="#FFFFFF" stroke-width="0.5" stroke-dasharray="4.227999877929688"></path>
        <polyline id="Shape" stroke="#FFFFFF" stroke-width="0.5" points="33.9720494 300.721052 33.9720494 303.066014 31.6270878 303.066014"></polyline>
        <path d="M27.496047,303.066014 L4.7733685,303.066014" id="Shape" stroke="#FFFFFF" stroke-width="0.5" stroke-dasharray="4.227999877929688"></path>
        <polyline id="Shape" stroke="#FFFFFF" stroke-width="0.5" points="2.70589397 303.066014 0.360932312 303.066014 0.360932312 300.721052"></polyline>
        <path d="M0.360932312,296.590011 L0.360932312,273.867333" id="Shape" stroke="#FFFFFF" stroke-width="0.5" stroke-dasharray="4.227999877929688"></path>
        <polyline id="Shape" stroke="#FFFFFF" stroke-width="0.5" points="0.360932312 271.799858 0.360932312 269.454897 2.70589397 269.454897"></polyline>
        <path d="M6.83693476,269.454897 L29.5596132,269.454897" id="Shape" stroke="#FFFFFF" stroke-width="0.5" stroke-dasharray="4.227999877929688"></path>
        <polyline id="Shape" stroke="#FFFFFF" stroke-width="0.5" points="31.6270878 269.454897 33.9720494 269.454897 33.9720494 271.799858"></polyline>
        <path d="M33.9720494,275.930899 L33.9720494,298.653578" id="Shape" stroke="#FFFFFF" stroke-width="0.5" stroke-dasharray="4.227999877929688"></path>
        <path d="M0.360932312,208.708665 L0.360932312,231.431343" id="Shape" stroke="#FFFFFF" stroke-width="0.5" stroke-dasharray="4.227999877929688"></path>
        <path d="M0.360932312,275.930899 L0.360932312,298.653578" id="Shape" stroke="#FFFFFF" stroke-width="0.5" stroke-dasharray="4.227999877929688"></path>
        <polyline id="Shape" stroke="#FFFFFF" stroke-width="0.5" points="33.9720494 233.498818 33.9720494 235.84378 31.6270878 235.84378"></polyline>
        <path d="M27.496047,235.84378 L4.7733685,235.84378" id="Shape" stroke="#FFFFFF" stroke-width="0.5" stroke-dasharray="4.227999877929688"></path>
        <polyline id="Shape" stroke="#FFFFFF" stroke-width="0.5" points="2.70589397 235.84378 0.360932312 235.84378 0.360932312 233.498818"></polyline>
        <path d="M0.360932312,229.367777 L0.360932312,206.645099" id="Shape" stroke="#FFFFFF" stroke-width="0.5" stroke-dasharray="4.227999877929688"></path>
        <polyline id="Shape" stroke="#FFFFFF" stroke-width="0.5" points="0.360932312 204.577624 0.360932312 202.232663 2.70589397 202.232663"></polyline>
        <path d="M6.83693476,202.232663 L29.5596132,202.232663" id="Shape" stroke="#FFFFFF" stroke-width="0.5" stroke-dasharray="4.227999877929688"></path>
        <polyline id="Shape" stroke="#FFFFFF" stroke-width="0.5" points="31.6270878 202.232663 33.9720494 202.232663 33.9720494 204.577624"></polyline>
        <path d="M33.9720494,208.708665 L33.9720494,231.431343" id="Shape" stroke="#FFFFFF" stroke-width="0.5" stroke-dasharray="4.227999877929688"></path>
        <path d="M0.360932312,409.323526 L0.360932312,432.046205" id="Shape" stroke="#FFFFFF" stroke-width="0.5" stroke-dasharray="4.227999877929688"></path>
        <polyline id="Shape" stroke="#FFFFFF" stroke-width="0.5" points="33.9720494 434.113679 33.9720494 436.458641 31.6270878 436.458641"></polyline>
        <path d="M27.496047,436.458641 L4.7733685,436.458641" id="Shape" stroke="#FFFFFF" stroke-width="0.5" stroke-dasharray="4.227999877929688"></path>
        <polyline id="Shape" stroke="#FFFFFF" stroke-width="0.5" points="2.70589397 436.458641 0.360932312 436.458641 0.360932312 434.113679"></polyline>
        <path d="M0.360932312,429.982638 L0.360932312,407.25996" id="Shape" stroke="#FFFFFF" stroke-width="0.5" stroke-dasharray="4.227999877929688"></path>
        <polyline id="Shape" stroke="#FFFFFF" stroke-width="0.5" points="0.360932312 405.192485 0.360932312 402.847524 2.70589397 402.847524"></polyline>
        <path d="M6.83693476,402.847524 L29.5596132,402.847524" id="Shape" stroke="#FFFFFF" stroke-width="0.5" stroke-dasharray="4.227999877929688"></path>
        <polyline id="Shape" stroke="#FFFFFF" stroke-width="0.5" points="31.6270878 402.847524 33.9720494 402.847524 33.9720494 405.192485"></polyline>
        <path d="M33.9720494,409.323526 L33.9720494,432.046205" id="Shape" stroke="#FFFFFF" stroke-width="0.5" stroke-dasharray="4.227999877929688"></path>
        <polyline id="Shape" stroke="#FFFFFF" stroke-width="0.5" points="33.9720494 467.724796 33.9720494 470.069758 31.6270878 470.069758"></polyline>
        <path d="M27.496047,470.069758 L4.7733685,470.069758" id="Shape" stroke="#FFFFFF" stroke-width="0.5" stroke-dasharray="4.227999877929688"></path>
        <polyline id="Shape" stroke="#FFFFFF" stroke-width="0.5" points="2.70589397 470.069758 0.360932312 470.069758 0.360932312 467.724796"></polyline>
        <path d="M0.360932312,463.593756 L0.360932312,440.871077" id="Shape" stroke="#FFFFFF" stroke-width="0.5" stroke-dasharray="4.227999877929688"></path>
        <polyline id="Shape" stroke="#FFFFFF" stroke-width="0.5" points="0.360932312 438.803603 0.360932312 436.458641 2.70589397 436.458641"></polyline>
        <path d="M6.83693476,436.458641 L29.5596132,436.458641" id="Shape" stroke="#FFFFFF" stroke-width="0.5" stroke-dasharray="4.227999877929688"></path>
        <polyline id="Shape" stroke="#FFFFFF" stroke-width="0.5" points="31.6270878 436.458641 33.9720494 436.458641 33.9720494 438.803603"></polyline>
        <path d="M33.9720494,442.934643 L33.9720494,465.657322" id="Shape" stroke="#FFFFFF" stroke-width="0.5" stroke-dasharray="4.227999877929688"></path>
        <path d="M0.360932312,375.712409 L0.360932312,398.435088" id="Shape" stroke="#FFFFFF" stroke-width="0.5" stroke-dasharray="4.227999877929688"></path>
        <path d="M0.360932312,442.934643 L0.360932312,465.657322" id="Shape" stroke="#FFFFFF" stroke-width="0.5" stroke-dasharray="4.227999877929688"></path>
        <polyline id="Shape" stroke="#FFFFFF" stroke-width="0.5" points="33.9720494 400.502562 33.9720494 402.847524 31.6270878 402.847524"></polyline>
        <path d="M27.496047,402.847524 L4.7733685,402.847524" id="Shape" stroke="#FFFFFF" stroke-width="0.5" stroke-dasharray="4.227999877929688"></path>
        <polyline id="Shape" stroke="#FFFFFF" stroke-width="0.5" points="2.70589397 402.847524 0.360932312 402.847524 0.360932312 400.502562"></polyline>
        <path d="M0.360932312,396.371521 L0.360932312,373.648843" id="Shape" stroke="#FFFFFF" stroke-width="0.5" stroke-dasharray="4.227999877929688"></path>
        <polyline id="Shape" stroke="#FFFFFF" stroke-width="0.5" points="0.360932312 371.581368 0.360932312 369.236407 2.70589397 369.236407"></polyline>
        <path d="M6.83693476,369.236407 L29.5596132,369.236407" id="Shape" stroke="#FFFFFF" stroke-width="0.5" stroke-dasharray="4.227999877929688"></path>
        <polyline id="Shape" stroke="#FFFFFF" stroke-width="0.5" points="31.6270878 369.236407 33.9720494 369.236407 33.9720494 371.581368"></polyline>
        <path d="M33.9720494,375.712409 L33.9720494,398.435088" id="Shape" stroke="#FFFFFF" stroke-width="0.5" stroke-dasharray="4.227999877929688"></path>
        <path d="M0.360932312,41.4835867 L0.360932312,64.2062651" id="Shape" stroke="#FFFFFF" stroke-width="0.5" stroke-dasharray="4.227999877929688"></path>
        <polyline id="Shape" stroke="#FFFFFF" stroke-width="0.5" points="33.9720494 66.2737397 33.9720494 68.6187013 31.6270878 68.6187013"></polyline>
        <path d="M27.496047,68.6187013 L4.7733685,68.6187013" id="Shape" stroke="#FFFFFF" stroke-width="0.5" stroke-dasharray="4.227999877929688"></path>
        <polyline id="Shape" stroke="#FFFFFF" stroke-width="0.5" points="2.70589397 68.6187013 0.360932312 68.6187013 0.360932312 66.2737397"></polyline>
        <path d="M0.360932312,62.1426989 L0.360932312,39.4200204" id="Shape" stroke="#FFFFFF" stroke-width="0.5" stroke-dasharray="4.227999877929688"></path>
        <polyline id="Shape" stroke="#FFFFFF" stroke-width="0.5" points="0.360932312 37.3525459 0.360932312 35.0075842 2.70589397 35.0075842"></polyline>
        <path d="M6.83693476,35.0075842 L29.5596132,35.0075842" id="Shape" stroke="#FFFFFF" stroke-width="0.5" stroke-dasharray="4.227999877929688"></path>
        <polyline id="Shape" stroke="#FFFFFF" stroke-width="0.5" points="31.6270878 35.0075842 33.9720494 35.0075842 33.9720494 37.3525459"></polyline>
        <path d="M33.9720494,41.4835867 L33.9720494,64.2062651" id="Shape" stroke="#FFFFFF" stroke-width="0.5" stroke-dasharray="4.227999877929688"></path>
        <polyline id="Shape" stroke="#FFFFFF" stroke-width="0.5" points="33.9720494 99.8848568 33.9720494 102.229818 31.6270878 102.229818"></polyline>
        <path d="M27.496047,102.229818 L4.7733685,102.229818" id="Shape" stroke="#FFFFFF" stroke-width="0.5" stroke-dasharray="4.227999877929688"></path>
        <polyline id="Shape" stroke="#FFFFFF" stroke-width="0.5" points="2.70589397 102.229818 0.360932312 102.229818 0.360932312 99.8848568"></polyline>
        <path d="M0.360932312,95.753816 L0.360932312,73.0311375" id="Shape" stroke="#FFFFFF" stroke-width="0.5" stroke-dasharray="4.227999877929688"></path>
        <polyline id="Shape" stroke="#FFFFFF" stroke-width="0.5" points="0.360932312 70.963663 0.360932312 68.6187013 2.70589397 68.6187013"></polyline>
        <path d="M6.83693476,68.6187013 L29.5596132,68.6187013" id="Shape" stroke="#FFFFFF" stroke-width="0.5" stroke-dasharray="4.227999877929688"></path>
        <polyline id="Shape" stroke="#FFFFFF" stroke-width="0.5" points="31.6270878 68.6187013 33.9720494 68.6187013 33.9720494 70.963663"></polyline>
        <path d="M33.9720494,75.0947038 L33.9720494,97.8173823" id="Shape" stroke="#FFFFFF" stroke-width="0.5" stroke-dasharray="4.227999877929688"></path>
        <path d="M0.360932312,7.87246953 L0.360932312,30.595148" id="Shape" stroke="#FFFFFF" stroke-width="0.5" stroke-dasharray="4.227999877929688"></path>
        <path d="M0.360932312,75.0947038 L0.360932312,97.8173823" id="Shape" stroke="#FFFFFF" stroke-width="0.5" stroke-dasharray="4.227999877929688"></path>
        <polyline id="Shape" stroke="#FFFFFF" stroke-width="0.5" points="33.9720494 32.6626225 33.9720494 35.0075842 31.6270878 35.0075842"></polyline>
        <path d="M27.496047,35.0075842 L4.7733685,35.0075842" id="Shape" stroke="#FFFFFF" stroke-width="0.5" stroke-dasharray="4.227999877929688"></path>
        <polyline id="Shape" stroke="#FFFFFF" stroke-width="0.5" points="2.70589397 35.0075842 0.360932312 35.0075842 0.360932312 32.6626225"></polyline>
        <path d="M0.360932312,28.5315818 L0.360932312,5.80890327" id="Shape" stroke="#FFFFFF" stroke-width="0.5" stroke-dasharray="4.227999877929688"></path>
        <polyline id="Shape" stroke="#FFFFFF" stroke-width="0.5" points="0.360932312 3.74142874 0.360932312 1.39646708 2.70589397 1.39646708"></polyline>
        <path d="M6.83693476,1.39646708 L29.5596132,1.39646708" id="Shape" stroke="#FFFFFF" stroke-width="0.5" stroke-dasharray="4.227999877929688"></path>
        <polyline id="Shape" stroke="#FFFFFF" stroke-width="0.5" points="31.6270878 1.39646708 33.9720494 1.39646708 33.9720494 3.74142874"></polyline>
        <path d="M33.9720494,7.87246953 L33.9720494,30.595148" id="Shape" stroke="#FFFFFF" stroke-width="0.5" stroke-dasharray="4.227999877929688"></path>
        <path d="M0.360932312,443.188681 L0.360932312,465.911359" id="Shape" stroke="#FFFFFF" stroke-width="0.5" stroke-dasharray="4.227999877929688"></path>
        <polyline id="Shape" stroke="#FFFFFF" stroke-width="0.5" points="33.9720494 467.978834 33.9720494 470.323796 31.6270878 470.323796"></polyline>
        <path d="M27.496047,470.323796 L4.7733685,470.323796" id="Shape" stroke="#FFFFFF" stroke-width="0.5" stroke-dasharray="4.227999877929688"></path>
        <polyline id="Shape" stroke="#FFFFFF" stroke-width="0.5" points="2.70589397 470.323796 0.360932312 470.323796 0.360932312 467.978834"></polyline>
        <path d="M0.360932312,463.847793 L0.360932312,441.125115" id="Shape" stroke="#FFFFFF" stroke-width="0.5" stroke-dasharray="4.227999877929688"></path>
        <polyline id="Shape" stroke="#FFFFFF" stroke-width="0.5" points="0.360932312 439.05764 0.360932312 436.712678 2.70589397 436.712678"></polyline>
        <path d="M6.83693476,436.712678 L29.5596132,436.712678" id="Shape" stroke="#FFFFFF" stroke-width="0.5" stroke-dasharray="4.227999877929688"></path>
        <polyline id="Shape" stroke="#FFFFFF" stroke-width="0.5" points="31.6270878 436.712678 33.9720494 436.712678 33.9720494 439.05764"></polyline>
        <path d="M33.9720494,443.188681 L33.9720494,465.911359" id="Shape" stroke="#FFFFFF" stroke-width="0.5" stroke-dasharray="4.227999877929688"></path>
        <polyline id="Shape" stroke="#FFFFFF" stroke-width="0.5" points="33.9720494 501.589951 33.9720494 503.934913 31.6270878 503.934913"></polyline>
        <path d="M27.496047,503.934913 L4.7733685,503.934913" id="Shape" stroke="#FFFFFF" stroke-width="0.5" stroke-dasharray="4.227999877929688"></path>
        <polyline id="Shape" stroke="#FFFFFF" stroke-width="0.5" points="2.70589397 503.934913 0.360932312 503.934913 0.360932312 501.589951"></polyline>
        <path d="M0.360932312,497.45891 L0.360932312,474.736232" id="Shape" stroke="#FFFFFF" stroke-width="0.5" stroke-dasharray="4.227999877929688"></path>
        <polyline id="Shape" stroke="#FFFFFF" stroke-width="0.5" points="0.360932312 472.668757 0.360932312 470.323796 2.70589397 470.323796"></polyline>
        <path d="M6.83693476,470.323796 L29.5596132,470.323796" id="Shape" stroke="#FFFFFF" stroke-width="0.5" stroke-dasharray="4.227999877929688"></path>
        <polyline id="Shape" stroke="#FFFFFF" stroke-width="0.5" points="31.6270878 470.323796 33.9720494 470.323796 33.9720494 472.668757"></polyline>
        <path d="M33.9720494,476.799798 L33.9720494,499.522476" id="Shape" stroke="#FFFFFF" stroke-width="0.5" stroke-dasharray="4.227999877929688"></path>
        <path d="M0.360932312,409.577564 L0.360932312,432.300242" id="Shape" stroke="#FFFFFF" stroke-width="0.5" stroke-dasharray="4.227999877929688"></path>
        <path d="M0.360932312,476.799798 L0.360932312,499.522476" id="Shape" stroke="#FFFFFF" stroke-width="0.5" stroke-dasharray="4.227999877929688"></path>
        <polyline id="Shape" stroke="#FFFFFF" stroke-width="0.5" points="33.9720494 434.367717 33.9720494 436.712678 31.6270878 436.712678"></polyline>
        <path d="M27.496047,436.712678 L4.7733685,436.712678" id="Shape" stroke="#FFFFFF" stroke-width="0.5" stroke-dasharray="4.227999877929688"></path>
        <polyline id="Shape" stroke="#FFFFFF" stroke-width="0.5" points="2.70589397 436.712678 0.360932312 436.712678 0.360932312 434.367717"></polyline>
        <path d="M0.360932312,430.236676 L0.360932312,407.513998" id="Shape" stroke="#FFFFFF" stroke-width="0.5" stroke-dasharray="4.227999877929688"></path>
        <polyline id="Shape" stroke="#FFFFFF" stroke-width="0.5" points="0.360932312 405.446523 0.360932312 403.101561 2.70589397 403.101561"></polyline>
        <path d="M6.83693476,403.101561 L29.5596132,403.101561" id="Shape" stroke="#FFFFFF" stroke-width="0.5" stroke-dasharray="4.227999877929688"></path>
        <polyline id="Shape" stroke="#FFFFFF" stroke-width="0.5" points="31.6270878 403.101561 33.9720494 403.101561 33.9720494 405.446523"></polyline>
        <path d="M33.9720494,409.577564 L33.9720494,432.300242" id="Shape" stroke="#FFFFFF" stroke-width="0.5" stroke-dasharray="4.227999877929688"></path>
        <path d="M0.360932312,342.922029 L0.360932312,365.644707" id="Shape" stroke="#FFFFFF" stroke-width="0.5" stroke-dasharray="4.227999877929688"></path>
        <polyline id="Shape" stroke="#FFFFFF" stroke-width="0.5" points="33.9720494 367.712182 33.9720494 370.057143 31.6270878 370.057143"></polyline>
        <path d="M27.496047,370.057143 L4.7733685,370.057143" id="Shape" stroke="#FFFFFF" stroke-width="0.5" stroke-dasharray="4.227999877929688"></path>
        <polyline id="Shape" stroke="#FFFFFF" stroke-width="0.5" points="2.70589397 370.057143 0.360932312 370.057143 0.360932312 367.712182"></polyline>
        <path d="M0.360932312,363.581141 L0.360932312,340.858462" id="Shape" stroke="#FFFFFF" stroke-width="0.5" stroke-dasharray="4.227999877929688"></path>
        <polyline id="Shape" stroke="#FFFFFF" stroke-width="0.5" points="0.360932312 338.790988 0.360932312 336.446026 2.70589397 336.446026"></polyline>
        <path d="M6.83693476,336.446026 L29.5596132,336.446026" id="Shape" stroke="#FFFFFF" stroke-width="0.5" stroke-dasharray="4.227999877929688"></path>
        <polyline id="Shape" stroke="#FFFFFF" stroke-width="0.5" points="31.6270878 336.446026 33.9720494 336.446026 33.9720494 338.790988"></polyline>
        <path d="M33.9720494,342.922029 L33.9720494,365.644707" id="Shape" stroke="#FFFFFF" stroke-width="0.5" stroke-dasharray="4.227999877929688"></path>
        <polyline id="Shape" stroke="#FFFFFF" stroke-width="0.5" points="33.9720494 401.323299 33.9720494 403.66826 31.6270878 403.66826"></polyline>
        <path d="M27.496047,403.66826 L4.7733685,403.66826" id="Shape" stroke="#FFFFFF" stroke-width="0.5" stroke-dasharray="4.227999877929688"></path>
        <polyline id="Shape" stroke="#FFFFFF" stroke-width="0.5" points="2.70589397 403.66826 0.360932312 403.66826 0.360932312 401.323299"></polyline>
        <path d="M0.360932312,397.192258 L0.360932312,374.469579" id="Shape" stroke="#FFFFFF" stroke-width="0.5" stroke-dasharray="4.227999877929688"></path>
        <polyline id="Shape" stroke="#FFFFFF" stroke-width="0.5" points="0.360932312 372.402105 0.360932312 370.057143 2.70589397 370.057143"></polyline>
        <path d="M6.83693476,370.057143 L29.5596132,370.057143" id="Shape" stroke="#FFFFFF" stroke-width="0.5" stroke-dasharray="4.227999877929688"></path>
        <polyline id="Shape" stroke="#FFFFFF" stroke-width="0.5" points="31.6270878 370.057143 33.9720494 370.057143 33.9720494 372.402105"></polyline>
        <path d="M33.9720494,376.533146 L33.9720494,399.255824" id="Shape" stroke="#FFFFFF" stroke-width="0.5" stroke-dasharray="4.227999877929688"></path>
        <path d="M0.360932312,309.310911 L0.360932312,332.03359" id="Shape" stroke="#FFFFFF" stroke-width="0.5" stroke-dasharray="4.227999877929688"></path>
        <path d="M0.360932312,376.533146 L0.360932312,399.255824" id="Shape" stroke="#FFFFFF" stroke-width="0.5" stroke-dasharray="4.227999877929688"></path>
        <polyline id="Shape" stroke="#FFFFFF" stroke-width="0.5" points="33.9720494 334.101064 33.9720494 336.446026 31.6270878 336.446026"></polyline>
        <path d="M27.496047,336.446026 L4.7733685,336.446026" id="Shape" stroke="#FFFFFF" stroke-width="0.5" stroke-dasharray="4.227999877929688"></path>
        <polyline id="Shape" stroke="#FFFFFF" stroke-width="0.5" points="2.70589397 336.446026 0.360932312 336.446026 0.360932312 334.101064"></polyline>
        <path d="M0.360932312,329.970024 L0.360932312,307.247345" id="Shape" stroke="#FFFFFF" stroke-width="0.5" stroke-dasharray="4.227999877929688"></path>
        <polyline id="Shape" stroke="#FFFFFF" stroke-width="0.5" points="0.360932312 305.179871 0.360932312 302.834909 2.70589397 302.834909"></polyline>
        <path d="M6.83693476,302.834909 L29.5596132,302.834909" id="Shape" stroke="#FFFFFF" stroke-width="0.5" stroke-dasharray="4.227999877929688"></path>
        <polyline id="Shape" stroke="#FFFFFF" stroke-width="0.5" points="31.6270878 302.834909 33.9720494 302.834909 33.9720494 305.179871"></polyline>
        <path d="M33.9720494,309.310911 L33.9720494,332.03359" id="Shape" stroke="#FFFFFF" stroke-width="0.5" stroke-dasharray="4.227999877929688"></path>
    </g>
</svg>