<?xml version="1.0" encoding="UTF-8"?>
<svg width="65px" height="39px" viewBox="0 0 65 39" version="1.1" xmlns="http://www.w3.org/2000/svg" xmlns:xlink="http://www.w3.org/1999/xlink">
    <!-- Generator: Sketch 49 (51002) - http://www.bohemiancoding.com/sketch -->
    <title>Group 6</title>
    <desc>Created with Sketch.</desc>
    <defs>
        <polygon id="path-1" points="0.520261863 0.298158727 15.2747964 0.298158727 15.2747964 23.9549518 0.520261863 23.9549518"></polygon>
    </defs>
    <g id="Page-1" stroke="none" stroke-width="1" fill="none" fill-rule="evenodd">
        <g id="Desktop-HD" transform="translate(-109.000000, -58.000000)">
            <g id="Group-6" transform="translate(109.235650, 58.132380)">
                <path d="M38.4733456,9.57067445e-05 L38.4733456,30.7784277 C38.4733456,35.0287642 35.0279028,38.4732499 30.7785234,38.4732499 L0.000191413489,38.4732499 L0.000191413489,9.57067445e-05 L38.4733456,9.57067445e-05 Z M29.7075649,13.3081185 C28.7610252,11.626551 27.8125714,10.4350021 26.2238394,9.30374834 C24.2666365,7.89781626 21.7294507,7.10249321 19.3147695,7.10249321 C12.8641349,7.10249321 7.66821578,12.2687433 7.66821578,18.7490469 C7.66821578,25.1384292 12.8335088,30.5793576 19.2841434,30.5793576 C23.6254013,30.5793576 27.4153884,28.3178073 29.5553912,24.5574893 L25.4897687,24.5574893 C23.961332,26.3615614 21.6988245,27.5531104 19.3147695,27.5531104 C14.6069548,27.5531104 10.9691414,23.3649832 10.9691414,18.7796731 C10.9691414,14.0728154 14.6069548,10.1296975 19.3760218,10.1296975 C22.0347552,10.1296975 24.0532104,11.3518727 25.7347779,13.3081185 L29.7075649,13.3081185 Z" id="Fill-1" fill="#FEFEFE"></path>
                <g id="Group-5" transform="translate(48.810440, 6.567843)">
                    <mask id="mask-2" fill="white">
                        <use xlink:href="#path-1"></use>
                    </mask>
                    <g id="Clip-4"></g>
                    <path d="M7.88202465,23.9549518 C3.87765446,23.9549518 0.550888021,20.8435256 0.520261863,16.8085292 L3.7235666,16.8085292 C3.8470283,19.303604 5.47978536,21.0291966 7.97486019,21.0291966 C10.2536378,21.0291966 12.0711089,19.0882639 12.0711089,16.8391554 C12.0711089,14.4369161 10.1617593,12.7429067 7.82077233,12.7429067 L6.64932178,12.7429067 L6.64932178,9.53864491 L7.75856295,9.53864491 C9.69949573,9.53864491 11.0853294,8.3068991 11.0853294,6.36596633 C11.0853294,4.64133079 9.79233127,3.22487097 8.03611251,3.22487097 C6.12676295,3.22487097 5.17160964,4.64133079 4.98689563,6.42817571 L1.78263382,6.42817571 C1.93672168,3.74838687 3.26226009,1.68399239 5.81858724,0.729796145 C6.5574433,0.482872744 7.35850876,0.298158727 8.12894805,0.298158727 C11.7638902,0.298158727 14.2895912,3.00857373 14.2895912,6.61288973 C14.2895912,8.64570098 13.6426136,9.72431599 12.1945706,11.0479403 C14.1651724,12.3112693 15.2753707,14.3747067 15.2753707,16.7166507 C15.2753707,21.0291966 12.1333182,23.9549518 7.88202465,23.9549518" id="Fill-3" fill="#FEFEFE" mask="url(#mask-2)"></path>
                </g>
            </g>
        </g>
    </g>
</svg>