<?xml version="1.0" encoding="UTF-8"?>
<svg width="512px" height="428px" viewBox="0 0 512 428" version="1.1" xmlns="http://www.w3.org/2000/svg" xmlns:xlink="http://www.w3.org/1999/xlink">
    <!-- Generator: Sketch 49 (51002) - http://www.bohemiancoding.com/sketch -->
    <title>Censor-resistance</title>
    <desc>Created with Sketch.</desc>
    <defs></defs>
    <g id="Censor-resistance" stroke="none" stroke-width="1" fill="none" fill-rule="evenodd">
        <g id="visualization" transform="translate(14.500000, 23.000000)" fill="#909090" fill-rule="nonzero">
            <path d="M481.438552,186.174192 C469.216433,163.896818 454.24034,143.464522 437.022113,125.395734 L458.255103,104.161803 C462.173897,100.24301 462.174837,93.8882611 458.255103,89.9685271 C454.33631,86.0487931 447.982502,86.049734 444.061828,89.9675862 L422.670768,111.356764 C410.43736,100.208197 397.264946,90.1745813 383.30501,81.4055172 L398.530438,55.0305813 C401.302291,50.2301773 399.65668,44.0918325 394.856276,41.3209212 C390.056813,38.5500099 383.917527,40.1946798 381.146616,44.9950837 L365.925892,71.3606108 C351.257468,63.6039409 335.969,57.2633054 320.262778,52.3829261 L328.129532,23.0310246 C329.564384,17.6764384 326.387951,12.174133 321.034305,10.7383399 C315.678778,9.3025468 310.177414,12.4808621 308.741621,17.8345074 L300.885217,47.1515961 C284.815813,43.465202 268.401103,41.2804631 251.843379,40.650069 L251.843379,10.3506946 C251.843379,4.80793103 247.348764,0.314256158 241.806941,0.314256158 C236.264177,0.314256158 231.770502,4.80699015 231.770502,10.3506946 L231.770502,40.6538325 C215.210897,41.2851675 198.798069,43.4699064 182.726783,47.1572414 L174.872261,17.8401527 C173.437409,12.4846256 167.933222,9.30725123 162.579576,10.7439852 C157.225931,12.1778966 154.048557,17.6820837 155.48435,23.0347882 L163.348281,52.3885714 C147.642059,57.2680099 132.353591,63.6077044 117.686108,71.3653153 L102.463502,44.9988473 C99.6916502,40.1984433 93.5542463,38.5537734 88.7538424,41.3256256 C83.9543793,44.0965369 82.3087685,50.2348818 85.0806207,55.0352857 L100.30699,81.4092808 C86.3479951,90.1774039 73.1765222,100.211961 60.9402906,111.361468 L39.5501724,89.9713498 C35.6323202,86.0516158 29.2766305,86.0516158 25.3568966,89.9713498 C21.4381034,93.8901429 21.4381034,100.244892 25.3568966,104.164626 L46.5898867,125.397616 C29.3716601,143.466404 14.3955665,163.897759 2.17438916,186.175133 C0.525014778,189.182207 0.525014778,192.823438 2.17438916,195.829571 C14.3955665,218.106005 29.3716601,238.53736 46.5898867,256.605207 L25.3568966,277.838197 C21.4381034,281.75699 21.4381034,288.111739 25.3559557,292.031473 C27.3158227,293.99134 29.8844433,294.970803 32.453064,294.970803 C35.0216847,294.970803 37.5893645,293.990399 39.5482906,292.031473 L60.9384089,270.642296 C73.1736995,281.790862 86.3461133,291.824478 100.30699,300.593542 L85.077798,326.967537 C82.3059458,331.767941 83.9506158,337.905345 88.7510197,340.677197 C90.3317094,341.589857 92.0582365,342.022665 93.7603005,342.022665 C97.2284089,342.022665 100.601488,340.222749 102.46068,337.003975 L117.685167,310.637507 C132.35265,318.394177 147.640177,324.732931 163.345458,329.612369 L155.481527,358.967094 C154.046675,364.32168 157.224049,369.823985 162.576754,371.257897 C163.447074,371.490296 164.321158,371.602261 165.181128,371.602261 C169.611764,371.602261 173.667926,368.645054 174.869438,364.160788 L182.723961,334.841818 C198.796187,338.529153 215.208074,340.714833 231.76768,341.345227 L231.76768,371.650246 C231.76768,377.19301 236.260414,381.686685 241.804118,381.686685 C247.345941,381.686685 251.840557,377.193951 251.840557,371.650246 L251.840557,341.345227 C268.398281,340.714833 284.811108,338.530094 300.882394,334.842759 L308.738798,364.161729 C309.94031,368.645995 313.995532,371.602261 318.427108,371.602261 C319.286138,371.602261 320.160222,371.491236 321.031483,371.257897 C326.386069,369.823044 329.562502,364.319798 328.126709,358.965212 L320.259956,329.611429 C335.966177,324.732931 351.254645,318.393236 365.922128,310.636567 L381.144734,337.003034 C383.002985,340.222749 386.377005,342.021724 389.845113,342.021724 C391.547177,342.021724 393.273704,341.587975 394.854394,340.676256 C399.653857,337.905345 401.299468,331.767 398.527616,326.966596 L383.301246,300.593542 C397.261182,291.825419 410.433596,281.790862 422.668887,270.642296 L444.059005,292.030532 C446.017931,293.990399 448.587493,294.969862 451.155172,294.969862 C453.723793,294.969862 456.291473,293.989458 458.250399,292.030532 C462.170133,288.111739 462.169192,281.75699 458.250399,277.837256 L437.01835,256.605207 C454.236576,238.53736 469.213611,218.105064 481.433847,195.828631 C483.087926,192.821557 483.087926,189.180325 481.438552,186.174192 Z M241.807882,321.468995 C152.405768,321.468995 68.8653793,271.62364 22.4871921,191 C68.8672611,110.375419 152.40765,60.5291232 241.807882,60.5291232 C331.208113,60.5291232 414.748502,110.375419 461.128571,191.001882 C414.751325,271.62364 331.209995,321.468995 241.807882,321.468995 Z M241.807882,80.6029409 C180.934394,80.6029409 131.410823,130.127453 131.410823,191 C131.410823,251.873488 180.935335,301.397059 241.807882,301.397059 C302.680429,301.397059 352.207764,251.872547 352.207764,191 C352.207764,130.127453 302.68231,80.6029409 241.807882,80.6029409 Z M241.807882,281.326064 C192.002044,281.326064 151.482759,240.805837 151.482759,191.000941 C151.482759,141.196044 192.002044,100.675818 241.807882,100.675818 C291.613719,100.675818 332.134887,141.196044 332.134887,191.000941 C332.135828,240.805837 291.61466,281.326064 241.807882,281.326064 Z M271.918138,191.000941 C271.918138,174.398054 258.410768,160.891626 241.807882,160.891626 C225.205936,160.891626 211.699507,174.398054 211.699507,191.000941 C211.699507,207.602887 225.205936,221.109315 241.807882,221.109315 C258.410768,221.109315 271.918138,207.602887 271.918138,191.000941 Z M231.772384,191.000941 C231.772384,185.465704 236.274527,180.963562 241.808823,180.963562 C247.344059,180.963562 251.847143,185.466645 251.847143,191.000941 C251.847143,196.535236 247.344059,201.036438 241.808823,201.036438 C236.275468,201.036438 231.772384,196.534296 231.772384,191.000941 Z M220.630404,133.745163 C223.380616,138.557798 221.710542,144.688616 216.899788,147.438828 C201.311177,156.350906 191.628512,173.042236 191.628512,191 C191.628512,196.543704 187.134837,201.036438 181.592074,201.036438 C176.04931,201.036438 171.555635,196.542764 171.555635,191 C171.555635,165.859507 185.111931,142.490704 206.935798,130.013606 C211.749374,127.262453 217.879251,128.932527 220.630404,133.745163 Z M291.989133,191.000941 C291.989133,185.457236 296.481867,180.964502 302.02369,180.965443 C307.565512,180.965443 312.060128,185.459118 312.060128,191.001882 C312.060128,216.141433 298.502892,239.509296 276.678084,251.988276 C275.108685,252.886823 273.39533,253.313044 271.706438,253.313044 C268.224217,253.313044 264.837966,251.497133 262.98536,248.256719 C260.234207,243.445025 261.904281,237.314207 266.715975,234.562113 C282.306468,225.649094 291.989133,208.957764 291.989133,191.000941 Z M240.8303,140.827217 C235.34399,140.827217 230.863488,136.413517 230.796685,130.912153 C230.730823,125.37033 235.169926,120.822084 240.711749,120.755281 C241.075872,120.750576 241.4447,120.746813 241.808823,120.746813 C247.351586,120.746813 251.845261,125.240488 251.845261,130.783251 C251.845261,136.326015 247.350645,140.81969 241.808823,140.81969 C241.523734,140.81969 241.237704,140.823453 240.953557,140.826276 C240.912158,140.827217 240.8717,140.827217 240.8303,140.827217 Z M242.60199,241.174665 C248.120291,241.089985 252.718404,245.484867 252.817197,251.02669 C252.917872,256.568512 248.507936,261.143103 242.965172,261.243778 C242.579409,261.251305 242.194586,261.253187 241.807882,261.253187 C236.264177,261.253187 231.771443,256.759512 231.771443,251.216749 C231.771443,245.673044 236.265118,241.18031 241.807882,241.18031 C242.073212,241.18031 242.33666,241.179369 242.60199,241.174665 Z" id="Shape"></path>
        </g>
    </g>
</svg>