<?xml version="1.0" encoding="UTF-8"?>
<svg width="104px" height="105px" viewBox="0 0 104 105" version="1.1" xmlns="http://www.w3.org/2000/svg" xmlns:xlink="http://www.w3.org/1999/xlink">
    <!-- Generator: Sketch 49 (51002) - http://www.bohemiancoding.com/sketch -->
    <title>Group 119</title>
    <desc>Created with Sketch.</desc>
    <defs>
        <polygon id="path-1" points="0.7217 0.7104 1.222 0.7104 1.222 11.7474 0.7217 11.7474"></polygon>
        <polygon id="path-3" points="0.3273 0.5005 11.3643 0.5005 11.3643 1 0.3273 1"></polygon>
        <polygon id="path-5" points="0.7217 0.7837 1.222 0.7837 1.222 11.8207 0.7217 11.8207"></polygon>
        <polygon id="path-7" points="0.253 0.5005 11.29 0.5005 11.29 1 0.253 1"></polygon>
        <polygon id="path-9" points="0.1788 0.5005 11.2158 0.5005 11.2158 1 0.1788 1"></polygon>
        <polygon id="path-11" points="0.7217 0.6362 1.222 0.6362 1.222 11.6732 0.7217 11.6732"></polygon>
    </defs>
    <g id="Symbols" stroke="none" stroke-width="1" fill="none" fill-rule="evenodd" opacity="0.564341518">
        <g id="Teczt" transform="translate(0.000000, -4.000000)">
            <g id="Group-119" transform="translate(0.000000, 5.000000)">
                <polyline id="Stroke-1" stroke="#2796E7" points="68.6475 62.6473 68.6475 68.6473 62.6475 68.6473"></polyline>
                <path d="M55.29,68.6473 L44.253,68.6473" id="Stroke-2" stroke="#2796E7" stroke-dasharray="7.358000000000001,7.358"></path>
                <polyline id="Stroke-3" stroke="#2796E7" points="40.5732 68.6473 34.5732 68.6473 34.5732 62.6473"></polyline>
                <path d="M34.5732,55.2898 L34.5732,44.2528" id="Stroke-4" stroke="#2796E7" stroke-dasharray="7.358000000000001,7.358"></path>
                <polyline id="Stroke-5" stroke="#2796E7" points="34.5732 40.5731 34.5732 34.5731 40.5732 34.5731"></polyline>
                <path d="M47.9316,34.5731 L58.9686,34.5731" id="Stroke-6" stroke="#2796E7" stroke-dasharray="7.358000000000001,7.358"></path>
                <polyline id="Stroke-7" stroke="#2796E7" points="62.6475 34.5731 68.6475 34.5731 68.6475 40.5731"></polyline>
                <path d="M68.6475,47.9314 L68.6475,58.9684" id="Stroke-8" stroke="#2796E7" stroke-dasharray="7.358000000000001,7.358"></path>
                <polyline id="Stroke-9" stroke="#2796E7" points="102.7217 62.6473 102.7217 68.6473 96.7217 68.6473"></polyline>
                <path d="M89.3643,68.6473 L78.3273,68.6473" id="Stroke-11" stroke="#2796E7" stroke-dasharray="7.358000000000001,7.358"></path>
                <polyline id="Stroke-12" stroke="#2796E7" points="74.6475 68.6473 68.6475 68.6473 68.6475 62.6473"></polyline>
                <path d="M68.6475,55.2898 L68.6475,44.2528" id="Stroke-13" stroke="#2796E7" stroke-dasharray="7.358000000000001,7.358"></path>
                <polyline id="Stroke-14" stroke="#2796E7" points="68.6475 40.5731 68.6475 34.5731 74.6475 34.5731"></polyline>
                <path d="M82.0059,34.5731 L93.0419,34.5731" id="Stroke-15" stroke="#2796E7" stroke-dasharray="7.358000000000001,7.358"></path>
                <g id="Group-28" transform="translate(68.000000, 34.221000)">
                    <polyline id="Stroke-16" stroke="#2796E7" points="28.7217 0.3521 34.7217 0.3521 34.7217 6.3521"></polyline>
                    <g id="Group-20" transform="translate(34.000000, 13.000000)">
                        <mask id="mask-2" fill="white">
                            <use xlink:href="#path-1"></use>
                        </mask>
                        <g id="Clip-19"></g>
                        <path d="M0.7217,0.7104 L0.7217,11.7474" id="Stroke-18" stroke="#2796E7" stroke-dasharray="7.358000000000001,7.358" mask="url(#mask-2)"></path>
                    </g>
                    <polyline id="Stroke-21" stroke="#2796E7" points="34.7217 62.5005 34.7217 68.5005 28.7217 68.5005"></polyline>
                    <g id="Group-25" transform="translate(10.000000, 68.000000)">
                        <mask id="mask-4" fill="white">
                            <use xlink:href="#path-3"></use>
                        </mask>
                        <g id="Clip-24"></g>
                        <path d="M11.3643,0.5005 L0.3273,0.5005" id="Stroke-23" stroke="#2796E7" stroke-dasharray="7.358000000000001,7.358" mask="url(#mask-4)"></path>
                    </g>
                    <polyline id="Stroke-26" stroke="#2796E7" points="6.6475 68.5005 0.6475 68.5005 0.6475 62.5005"></polyline>
                </g>
                <path d="M68.6475,89.3631 L68.6475,78.3261" id="Stroke-29" stroke="#2796E7" stroke-dasharray="7.358000000000001,7.358"></path>
                <polyline id="Stroke-30" stroke="#2796E7" points="68.6475 74.6473 68.6475 68.6473 74.6475 68.6473"></polyline>
                <path d="M82.0059,68.6473 L93.0419,68.6473" id="Stroke-31" stroke="#2796E7" stroke-dasharray="7.358000000000001,7.358"></path>
                <g id="Group-37" transform="translate(96.000000, 68.221000)">
                    <polyline id="Stroke-32" stroke="#2796E7" points="0.7217 0.4263 6.7217 0.4263 6.7217 6.4263"></polyline>
                    <g id="Group-36" transform="translate(6.000000, 13.000000)">
                        <mask id="mask-6" fill="white">
                            <use xlink:href="#path-5"></use>
                        </mask>
                        <g id="Clip-35"></g>
                        <path d="M0.7217,0.7837 L0.7217,11.8207" id="Stroke-34" stroke="#2796E7" stroke-dasharray="7.358000000000001,7.358" mask="url(#mask-6)"></path>
                    </g>
                </g>
                <polyline id="Stroke-38" stroke="#2796E7" points="68.6475 28.5731 68.6475 34.5731 62.6475 34.5731"></polyline>
                <path d="M55.29,34.5731 L44.253,34.5731" id="Stroke-39" stroke="#2796E7" stroke-dasharray="7.358000000000001,7.358"></path>
                <polyline id="Stroke-40" stroke="#2796E7" points="40.5732 34.5731 34.5732 34.5731 34.5732 28.5731"></polyline>
                <path d="M34.5732,21.2156 L34.5732,10.1786" id="Stroke-41" stroke="#2796E7" stroke-dasharray="7.358000000000001,7.358"></path>
                <g id="Group-48" transform="translate(34.000000, 0.221000)" stroke="#2796E7">
                    <polyline id="Stroke-42" points="0.5732 6.2788 0.5732 0.2788 6.5732 0.2788"></polyline>
                    <path d="M13.9316,0.2788 L24.9686,0.2788" id="Stroke-44" stroke-dasharray="7.358000000000001,7.358"></path>
                    <polyline id="Stroke-46" points="28.6475 0.2788 34.6475 0.2788 34.6475 6.2788"></polyline>
                </g>
                <path d="M68.6475,13.8572 L68.6475,24.8942" id="Stroke-49" stroke="#2796E7" stroke-dasharray="7.358000000000001,7.358"></path>
                <polyline id="Stroke-50" stroke="#2796E7" points="34.5732 28.5731 34.5732 34.5731 28.5732 34.5731"></polyline>
                <path d="M21.2158,34.5731 L10.1788,34.5731" id="Stroke-51" stroke="#2796E7" stroke-dasharray="7.358000000000001,7.358"></path>
                <g id="Group-62" transform="translate(0.000000, 0.221000)" stroke="#2796E7">
                    <polyline id="Stroke-52" points="6.5 34.3521 0.5 34.3521 0.5 28.3521"></polyline>
                    <path d="M0.5,20.9946 L0.5,9.9576" id="Stroke-54" stroke-dasharray="7.358000000000001,7.358"></path>
                    <polyline id="Stroke-56" points="0.5 6.2788 0.5 0.2788 6.5 0.2788"></polyline>
                    <path d="M13.8584,0.2788 L24.8954,0.2788" id="Stroke-58" stroke-dasharray="7.358000000000001,7.358"></path>
                    <polyline id="Stroke-60" points="28.5732 0.2788 34.5732 0.2788 34.5732 6.2788"></polyline>
                </g>
                <path d="M34.5732,13.8572 L34.5732,24.8942" id="Stroke-63" stroke="#2796E7" stroke-dasharray="7.358000000000001,7.358"></path>
                <polyline id="Stroke-64" stroke="#2796E7" points="34.5732 62.6473 34.5732 68.6473 28.5732 68.6473"></polyline>
                <path d="M21.2158,68.6473 L10.1788,68.6473" id="Stroke-65" stroke="#2796E7" stroke-dasharray="7.358000000000001,7.358"></path>
                <g id="Group-72" transform="translate(0.000000, 34.221000)" stroke="#2796E7">
                    <polyline id="Stroke-66" points="6.5 34.4263 0.5 34.4263 0.5 28.4263"></polyline>
                    <path d="M0.5,21.0688 L0.5,10.0318" id="Stroke-68" stroke-dasharray="7.358000000000001,7.358"></path>
                    <polyline id="Stroke-70" points="0.5 6.3521 0.5 0.3521 6.5 0.3521"></polyline>
                </g>
                <path d="M13.8584,34.5731 L24.8954,34.5731" id="Stroke-73" stroke="#2796E7" stroke-dasharray="7.358000000000001,7.358"></path>
                <polyline id="Stroke-74" stroke="#2796E7" points="28.5732 34.5731 34.5732 34.5731 34.5732 40.5731"></polyline>
                <path d="M34.5732,47.9314 L34.5732,58.9684" id="Stroke-75" stroke="#2796E7" stroke-dasharray="7.358000000000001,7.358"></path>
                <g id="Group-83" transform="translate(34.000000, 96.221000)">
                    <polyline id="Stroke-76" stroke="#2796E7" points="34.6475 0.5005 34.6475 6.5005 28.6475 6.5005"></polyline>
                    <g id="Group-80" transform="translate(10.000000, 6.000000)">
                        <mask id="mask-8" fill="white">
                            <use xlink:href="#path-7"></use>
                        </mask>
                        <g id="Clip-79"></g>
                        <path d="M11.29,0.5005 L0.253,0.5005" id="Stroke-78" stroke="#2796E7" stroke-dasharray="7.358000000000001,7.358" mask="url(#mask-8)"></path>
                    </g>
                    <polyline id="Stroke-81" stroke="#2796E7" points="6.5732 6.5005 0.5732 6.5005 0.5732 0.5005"></polyline>
                </g>
                <path d="M34.5732,89.3631 L34.5732,78.3261" id="Stroke-84" stroke="#2796E7" stroke-dasharray="7.358000000000001,7.358"></path>
                <polyline id="Stroke-85" stroke="#2796E7" points="34.5732 74.6473 34.5732 68.6473 40.5732 68.6473"></polyline>
                <path d="M47.9316,68.6473 L58.9686,68.6473" id="Stroke-86" stroke="#2796E7" stroke-dasharray="7.358000000000001,7.358"></path>
                <polyline id="Stroke-87" stroke="#2796E7" points="62.6475 68.6473 68.6475 68.6473 68.6475 74.6473"></polyline>
                <path d="M68.6475,82.0047 L68.6475,93.0417" id="Stroke-88" stroke="#2796E7" stroke-dasharray="7.358000000000001,7.358"></path>
                <g id="Group-100" transform="translate(0.000000, 68.221000)">
                    <polyline id="Stroke-89" stroke="#2796E7" points="34.5732 28.5005 34.5732 34.5005 28.5732 34.5005"></polyline>
                    <g id="Group-93" transform="translate(10.000000, 34.000000)">
                        <mask id="mask-10" fill="white">
                            <use xlink:href="#path-9"></use>
                        </mask>
                        <g id="Clip-92"></g>
                        <path d="M11.2158,0.5005 L0.1788,0.5005" id="Stroke-91" stroke="#2796E7" stroke-dasharray="7.358000000000001,7.358" mask="url(#mask-10)"></path>
                    </g>
                    <polyline id="Stroke-94" stroke="#2796E7" points="6.5 34.5005 0.5 34.5005 0.5 28.5005"></polyline>
                    <path d="M0.5,21.1421 L0.5,10.1051" id="Stroke-96" stroke="#2796E7" stroke-dasharray="7.358000000000001,7.358"></path>
                    <polyline id="Stroke-98" stroke="#2796E7" points="0.5 6.4263 0.5 0.4263 6.5 0.4263"></polyline>
                </g>
                <path d="M13.8584,68.6473 L24.8954,68.6473" id="Stroke-101" stroke="#2796E7" stroke-dasharray="7.358000000000001,7.358"></path>
                <polyline id="Stroke-102" stroke="#2796E7" points="28.5732 68.6473 34.5732 68.6473 34.5732 74.6473"></polyline>
                <path d="M34.5732,82.0047 L34.5732,93.0417" id="Stroke-103" stroke="#2796E7" stroke-dasharray="7.358000000000001,7.358"></path>
                <polyline id="Stroke-104" stroke="#2796E7" points="102.7217 28.5731 102.7217 34.5731 96.7217 34.5731"></polyline>
                <path d="M89.3643,34.5731 L78.3273,34.5731" id="Stroke-106" stroke="#2796E7" stroke-dasharray="7.358000000000001,7.358"></path>
                <polyline id="Stroke-107" stroke="#2796E7" points="74.6475 34.5731 68.6475 34.5731 68.6475 28.5731"></polyline>
                <path d="M68.6475,21.2156 L68.6475,10.1786" id="Stroke-108" stroke="#2796E7" stroke-dasharray="7.358000000000001,7.358"></path>
                <g id="Group-118" transform="translate(68.000000, 0.221000)">
                    <polyline id="Stroke-109" stroke="#2796E7" points="0.6475 6.2788 0.6475 0.2788 6.6475 0.2788"></polyline>
                    <path d="M14.0059,0.2788 L25.0419,0.2788" id="Stroke-111" stroke="#2796E7" stroke-dasharray="7.358000000000001,7.358"></path>
                    <polyline id="Stroke-113" stroke="#2796E7" points="28.7217 0.2788 34.7217 0.2788 34.7217 6.2788"></polyline>
                    <g id="Group-117" transform="translate(34.000000, 13.000000)">
                        <mask id="mask-12" fill="white">
                            <use xlink:href="#path-11"></use>
                        </mask>
                        <g id="Clip-116"></g>
                        <path d="M0.7217,0.6362 L0.7217,11.6732" id="Stroke-115" stroke="#2796E7" stroke-dasharray="7.358000000000001,7.358" mask="url(#mask-12)"></path>
                    </g>
                </g>
            </g>
        </g>
    </g>
</svg>