<?xml version="1.0" encoding="UTF-8"?>
<svg width="178px" height="206px" viewBox="0 0 178 206" version="1.1" xmlns="http://www.w3.org/2000/svg" xmlns:xlink="http://www.w3.org/1999/xlink">
    <!-- Generator: Sketch 49 (51002) - http://www.bohemiancoding.com/sketch -->
    <title>Group 1176 Copy</title>
    <desc>Created with Sketch.</desc>
    <defs>
        <polygon id="path-1" points="0.8712 0.5 11.9082 0.5 11.9082 1 0.8712 1"></polygon>
        <polygon id="path-3" points="0.797 0.5 11.834 0.5 11.834 1 0.797 1"></polygon>
    </defs>
    <g id="Page-1" stroke="none" stroke-width="1" fill="none" fill-rule="evenodd">
        <g id="Desktop-HD" transform="translate(-1262.000000, -3346.000000)">
            <g id="Group-1176-Copy" transform="translate(1262.015625, 3345.015625)">
                <g id="Group-145" transform="translate(0.000000, 68.839000)" stroke="#FFFFFF">
                    <polyline id="Stroke-1" points="68.6484 62.7715 68.6484 68.7715 62.6484 68.7715"></polyline>
                    <path d="M55.29,68.7715 L44.254,68.7715" id="Stroke-3" stroke-dasharray="7.358000000000001,7.358"></path>
                    <polyline id="Stroke-5" points="40.5742 68.7715 34.5742 68.7715 34.5742 62.7715"></polyline>
                    <path d="M34.5742,55.4141 L34.5742,44.3771" id="Stroke-7" stroke-dasharray="7.358000000000001,7.358"></path>
                    <polyline id="Stroke-9" points="34.5742 40.6982 34.5742 34.6982 40.5742 34.6982"></polyline>
                    <path d="M47.9316,34.6982 L58.9686,34.6982" id="Stroke-11" stroke-dasharray="7.358000000000001,7.358"></path>
                    <polyline id="Stroke-13" points="62.6484 34.6982 68.6484 34.6982 68.6484 40.6982"></polyline>
                    <path d="M68.6484,48.0557 L68.6484,59.0927" id="Stroke-15" stroke-dasharray="7.358000000000001,7.358"></path>
                    <polyline id="Stroke-17" points="102.7217 62.7715 102.7217 68.7715 96.7217 68.7715"></polyline>
                    <path d="M89.3633,68.7715 L78.3273,68.7715" id="Stroke-19" stroke-dasharray="7.358000000000001,7.358"></path>
                    <polyline id="Stroke-21" points="74.6484 68.7715 68.6484 68.7715 68.6484 62.7715"></polyline>
                    <path d="M68.6484,55.4141 L68.6484,44.3771" id="Stroke-23" stroke-dasharray="7.358000000000001,7.358"></path>
                    <polyline id="Stroke-25" points="68.6484 40.6982 68.6484 34.6982 74.6484 34.6982"></polyline>
                    <path d="M82.0059,34.6982 L93.0429,34.6982" id="Stroke-27" stroke-dasharray="7.358000000000001,7.358"></path>
                    <polyline id="Stroke-29" points="96.7217 34.6982 102.7217 34.6982 102.7217 40.6982"></polyline>
                    <path d="M102.7217,48.0557 L102.7217,59.0927" id="Stroke-31" stroke-dasharray="7.358000000000001,7.358"></path>
                    <polyline id="Stroke-33" points="102.7217 96.8457 102.7217 102.8457 96.7217 102.8457"></polyline>
                    <path d="M89.3633,102.8457 L78.3273,102.8457" id="Stroke-35" stroke-dasharray="7.358000000000001,7.358"></path>
                    <polyline id="Stroke-37" points="74.6484 102.8457 68.6484 102.8457 68.6484 96.8457"></polyline>
                    <path d="M68.6484,89.4873 L68.6484,78.4513" id="Stroke-39" stroke-dasharray="7.358000000000001,7.358"></path>
                    <polyline id="Stroke-41" points="68.6484 74.7715 68.6484 68.7715 74.6484 68.7715"></polyline>
                    <path d="M82.0059,68.7715 L93.0429,68.7715" id="Stroke-43" stroke-dasharray="7.358000000000001,7.358"></path>
                    <polyline id="Stroke-45" points="96.7217 68.7715 102.7217 68.7715 102.7217 74.7715"></polyline>
                    <path d="M102.7217,82.1299 L102.7217,93.1669" id="Stroke-47" stroke-dasharray="7.358000000000001,7.358"></path>
                    <polyline id="Stroke-49" points="68.6484 28.6982 68.6484 34.6982 62.6484 34.6982"></polyline>
                    <path d="M55.29,34.6982 L44.254,34.6982" id="Stroke-51" stroke-dasharray="7.358000000000001,7.358"></path>
                    <polyline id="Stroke-53" points="40.5742 34.6982 34.5742 34.6982 34.5742 28.6982"></polyline>
                    <path d="M34.5742,21.3398 L34.5742,10.3038" id="Stroke-55" stroke-dasharray="7.358000000000001,7.358"></path>
                    <polyline id="Stroke-57" points="34.5742 6.624 34.5742 0.624 40.5742 0.624"></polyline>
                    <path d="M47.9316,0.624 L58.9686,0.624" id="Stroke-59" stroke-dasharray="7.358000000000001,7.358"></path>
                    <polyline id="Stroke-61" points="62.6484 0.624 68.6484 0.624 68.6484 6.624"></polyline>
                    <path d="M68.6484,13.9824 L68.6484,25.0194" id="Stroke-63" stroke-dasharray="7.358000000000001,7.358"></path>
                    <polyline id="Stroke-65" points="34.5742 28.6982 34.5742 34.6982 28.5742 34.6982"></polyline>
                    <path d="M21.2168,34.6982 L10.1798,34.6982" id="Stroke-67" stroke-dasharray="7.358000000000001,7.358"></path>
                    <polyline id="Stroke-69" points="6.5 34.6982 0.5 34.6982 0.5 28.6982"></polyline>
                    <path d="M0.5,21.3398 L0.5,10.3038" id="Stroke-71" stroke-dasharray="7.358000000000001,7.358"></path>
                    <polyline id="Stroke-73" points="0.5 6.624 0.5 0.624 6.5 0.624"></polyline>
                    <path d="M13.8584,0.624 L24.8954,0.624" id="Stroke-75" stroke-dasharray="7.358000000000001,7.358"></path>
                    <polyline id="Stroke-77" points="28.5742 0.624 34.5742 0.624 34.5742 6.624"></polyline>
                    <path d="M34.5742,13.9824 L34.5742,25.0194" id="Stroke-79" stroke-dasharray="7.358000000000001,7.358"></path>
                    <polyline id="Stroke-81" points="34.5742 62.7715 34.5742 68.7715 28.5742 68.7715"></polyline>
                    <path d="M21.2168,68.7715 L10.1798,68.7715" id="Stroke-83" stroke-dasharray="7.358000000000001,7.358"></path>
                    <polyline id="Stroke-85" points="6.5 68.7715 0.5 68.7715 0.5 62.7715"></polyline>
                    <path d="M0.5,55.4141 L0.5,44.3771" id="Stroke-87" stroke-dasharray="7.358000000000001,7.358"></path>
                    <polyline id="Stroke-89" points="0.5 40.6982 0.5 34.6982 6.5 34.6982"></polyline>
                    <path d="M13.8584,34.6982 L24.8954,34.6982" id="Stroke-91" stroke-dasharray="7.358000000000001,7.358"></path>
                    <polyline id="Stroke-93" points="28.5742 34.6982 34.5742 34.6982 34.5742 40.6982"></polyline>
                    <path d="M34.5742,48.0557 L34.5742,59.0927" id="Stroke-95" stroke-dasharray="7.358000000000001,7.358"></path>
                    <polyline id="Stroke-97" points="68.6484 96.8457 68.6484 102.8457 62.6484 102.8457"></polyline>
                    <path d="M55.29,102.8457 L44.254,102.8457" id="Stroke-99" stroke-dasharray="7.358000000000001,7.358"></path>
                    <polyline id="Stroke-101" points="40.5742 102.8457 34.5742 102.8457 34.5742 96.8457"></polyline>
                    <path d="M34.5742,89.4873 L34.5742,78.4513" id="Stroke-103" stroke-dasharray="7.358000000000001,7.358"></path>
                    <polyline id="Stroke-105" points="34.5742 74.7715 34.5742 68.7715 40.5742 68.7715"></polyline>
                    <path d="M47.9316,68.7715 L58.9686,68.7715" id="Stroke-107" stroke-dasharray="7.358000000000001,7.358"></path>
                    <polyline id="Stroke-109" points="62.6484 68.7715 68.6484 68.7715 68.6484 74.7715"></polyline>
                    <path d="M68.6484,82.1299 L68.6484,93.1669" id="Stroke-111" stroke-dasharray="7.358000000000001,7.358"></path>
                    <polyline id="Stroke-113" points="34.5742 96.8457 34.5742 102.8457 28.5742 102.8457"></polyline>
                    <path d="M21.2168,102.8457 L10.1798,102.8457" id="Stroke-115" stroke-dasharray="7.358000000000001,7.358"></path>
                    <polyline id="Stroke-117" points="6.5 102.8457 0.5 102.8457 0.5 96.8457"></polyline>
                    <path d="M0.5,89.4873 L0.5,78.4513" id="Stroke-119" stroke-dasharray="7.358000000000001,7.358"></path>
                    <polyline id="Stroke-121" points="0.5 74.7715 0.5 68.7715 6.5 68.7715"></polyline>
                    <path d="M13.8584,68.7715 L24.8954,68.7715" id="Stroke-123" stroke-dasharray="7.358000000000001,7.358"></path>
                    <polyline id="Stroke-125" points="28.5742 68.7715 34.5742 68.7715 34.5742 74.7715"></polyline>
                    <path d="M34.5742,82.1299 L34.5742,93.1669" id="Stroke-127" stroke-dasharray="7.358000000000001,7.358"></path>
                    <polyline id="Stroke-129" points="102.7217 28.6982 102.7217 34.6982 96.7217 34.6982"></polyline>
                    <path d="M89.3633,34.6982 L78.3273,34.6982" id="Stroke-131" stroke-dasharray="7.358000000000001,7.358"></path>
                    <polyline id="Stroke-133" points="74.6484 34.6982 68.6484 34.6982 68.6484 28.6982"></polyline>
                    <path d="M68.6484,21.3398 L68.6484,10.3038" id="Stroke-135" stroke-dasharray="7.358000000000001,7.358"></path>
                    <polyline id="Stroke-137" points="68.6484 6.624 68.6484 0.624 74.6484 0.624"></polyline>
                    <path d="M82.0059,0.624 L93.0429,0.624" id="Stroke-139" stroke-dasharray="7.358000000000001,7.358"></path>
                    <polyline id="Stroke-141" points="96.7217 0.624 102.7217 0.624 102.7217 6.624"></polyline>
                    <path d="M102.7217,13.9824 L102.7217,25.0194" id="Stroke-143" stroke-dasharray="7.358000000000001,7.358"></path>
                </g>
                <g id="Group-290" transform="translate(103.000000, 68.839000)" stroke="#FFFFFF">
                    <polyline id="Stroke-146" points="68.2656 62.7715 68.2656 68.7715 62.2656 68.7715"></polyline>
                    <path d="M54.9082,68.7715 L43.8712,68.7715" id="Stroke-148" stroke-dasharray="7.358000000000001,7.358"></path>
                    <polyline id="Stroke-150" points="40.1914 68.7715 34.1914 68.7715 34.1914 62.7715"></polyline>
                    <path d="M34.1914,55.4141 L34.1914,44.3771" id="Stroke-152" stroke-dasharray="7.358000000000001,7.358"></path>
                    <polyline id="Stroke-154" points="34.1914 40.6982 34.1914 34.6982 40.1914 34.6982"></polyline>
                    <path d="M47.5498,34.6982 L58.5858,34.6982" id="Stroke-156" stroke-dasharray="7.358000000000001,7.358"></path>
                    <polyline id="Stroke-158" points="62.2656 34.6982 68.2656 34.6982 68.2656 40.6982"></polyline>
                    <path d="M68.2656,48.0557 L68.2656,59.0927" id="Stroke-160" stroke-dasharray="7.358000000000001,7.358"></path>
                    <polyline id="Stroke-166" points="74.2656 68.7715 68.2656 68.7715 68.2656 62.7715"></polyline>
                    <path d="M68.2656,55.4141 L68.2656,44.3771" id="Stroke-168" stroke-dasharray="7.358000000000001,7.358"></path>
                    <polyline id="Stroke-170" points="68.2656 40.6982 68.2656 34.6982 74.2656 34.6982"></polyline>
                    <polyline id="Stroke-182" points="74.2656 102.8457 68.2656 102.8457 68.2656 96.8457"></polyline>
                    <path d="M68.2656,89.4873 L68.2656,78.4513" id="Stroke-184" stroke-dasharray="7.358000000000001,7.358"></path>
                    <polyline id="Stroke-186" points="68.2656 74.7715 68.2656 68.7715 74.2656 68.7715"></polyline>
                    <polyline id="Stroke-194" points="68.2656 28.6982 68.2656 34.6982 62.2656 34.6982"></polyline>
                    <path d="M54.9082,34.6982 L43.8712,34.6982" id="Stroke-196" stroke-dasharray="7.358000000000001,7.358"></path>
                    <polyline id="Stroke-198" points="40.1914 34.6982 34.1914 34.6982 34.1914 28.6982"></polyline>
                    <path d="M34.1914,21.3398 L34.1914,10.3038" id="Stroke-200" stroke-dasharray="7.358000000000001,7.358"></path>
                    <polyline id="Stroke-202" points="34.1914 6.624 34.1914 0.624 40.1914 0.624"></polyline>
                    <path d="M47.5498,0.624 L58.5858,0.624" id="Stroke-204" stroke-dasharray="7.358000000000001,7.358"></path>
                    <polyline id="Stroke-206" points="62.2656 0.624 68.2656 0.624 68.2656 6.624"></polyline>
                    <path d="M68.2656,13.9824 L68.2656,25.0194" id="Stroke-208" stroke-dasharray="7.358000000000001,7.358"></path>
                    <polyline id="Stroke-210" points="34.1914 28.6982 34.1914 34.6982 28.1914 34.6982"></polyline>
                    <path d="M20.834,34.6982 L9.797,34.6982" id="Stroke-212" stroke-dasharray="7.358000000000001,7.358"></path>
                    <polyline id="Stroke-214" points="6.1182 34.6982 0.1182 34.6982 0.1182 28.6982"></polyline>
                    <path d="M0.1182,21.3398 L0.1182,10.3038" id="Stroke-216" stroke-dasharray="7.358000000000001,7.358"></path>
                    <polyline id="Stroke-218" points="0.1182 6.624 0.1182 0.624 6.1182 0.624"></polyline>
                    <path d="M13.4766,0.624 L24.5126,0.624" id="Stroke-220" stroke-dasharray="7.358000000000001,7.358"></path>
                    <polyline id="Stroke-222" points="28.1914 0.624 34.1914 0.624 34.1914 6.624"></polyline>
                    <path d="M34.1914,13.9824 L34.1914,25.0194" id="Stroke-224" stroke-dasharray="7.358000000000001,7.358"></path>
                    <polyline id="Stroke-226" points="34.1914 62.7715 34.1914 68.7715 28.1914 68.7715"></polyline>
                    <path d="M20.834,68.7715 L9.797,68.7715" id="Stroke-228" stroke-dasharray="7.358000000000001,7.358"></path>
                    <polyline id="Stroke-230" points="6.1182 68.7715 0.1182 68.7715 0.1182 62.7715"></polyline>
                    <path d="M0.1182,55.4141 L0.1182,44.3771" id="Stroke-232" stroke-dasharray="7.358000000000001,7.358"></path>
                    <polyline id="Stroke-234" points="0.1182 40.6982 0.1182 34.6982 6.1182 34.6982"></polyline>
                    <path d="M13.4766,34.6982 L24.5126,34.6982" id="Stroke-236" stroke-dasharray="7.358000000000001,7.358"></path>
                    <polyline id="Stroke-238" points="28.1914 34.6982 34.1914 34.6982 34.1914 40.6982"></polyline>
                    <path d="M34.1914,48.0557 L34.1914,59.0927" id="Stroke-240" stroke-dasharray="7.358000000000001,7.358"></path>
                    <polyline id="Stroke-242" points="68.2656 96.8457 68.2656 102.8457 62.2656 102.8457"></polyline>
                    <path d="M54.9082,102.8457 L43.8712,102.8457" id="Stroke-244" stroke-dasharray="7.358000000000001,7.358"></path>
                    <polyline id="Stroke-246" points="40.1914 102.8457 34.1914 102.8457 34.1914 96.8457"></polyline>
                    <path d="M34.1914,89.4873 L34.1914,78.4513" id="Stroke-248" stroke-dasharray="7.358000000000001,7.358"></path>
                    <polyline id="Stroke-250" points="34.1914 74.7715 34.1914 68.7715 40.1914 68.7715"></polyline>
                    <path d="M47.5498,68.7715 L58.5858,68.7715" id="Stroke-252" stroke-dasharray="7.358000000000001,7.358"></path>
                    <polyline id="Stroke-254" points="62.2656 68.7715 68.2656 68.7715 68.2656 74.7715"></polyline>
                    <path d="M68.2656,82.1299 L68.2656,93.1669" id="Stroke-256" stroke-dasharray="7.358000000000001,7.358"></path>
                    <polyline id="Stroke-258" points="34.1914 96.8457 34.1914 102.8457 28.1914 102.8457"></polyline>
                    <path d="M20.834,102.8457 L9.797,102.8457" id="Stroke-260" stroke-dasharray="7.358000000000001,7.358"></path>
                    <polyline id="Stroke-262" points="6.1182 102.8457 0.1182 102.8457 0.1182 96.8457"></polyline>
                    <path d="M0.1182,89.4873 L0.1182,78.4513" id="Stroke-264" stroke-dasharray="7.358000000000001,7.358"></path>
                    <polyline id="Stroke-266" points="0.1182 74.7715 0.1182 68.7715 6.1182 68.7715"></polyline>
                    <path d="M13.4766,68.7715 L24.5126,68.7715" id="Stroke-268" stroke-dasharray="7.358000000000001,7.358"></path>
                    <polyline id="Stroke-270" points="28.1914 68.7715 34.1914 68.7715 34.1914 74.7715"></polyline>
                    <path d="M34.1914,82.1299 L34.1914,93.1669" id="Stroke-272" stroke-dasharray="7.358000000000001,7.358"></path>
                    <polyline id="Stroke-278" points="74.2656 34.6982 68.2656 34.6982 68.2656 28.6982"></polyline>
                    <path d="M68.2656,21.3398 L68.2656,10.3038" id="Stroke-280" stroke-dasharray="7.358000000000001,7.358"></path>
                    <polyline id="Stroke-282" points="68.2656 6.624 68.2656 0.624 74.2656 0.624"></polyline>
                </g>
                <g id="Group-586" transform="translate(103.000000, 103.839000)">
                    <polyline id="Stroke-439" stroke="#FFFFFF" points="68.2656 62.4268 68.2656 68.4268 62.2656 68.4268"></polyline>
                    <path d="M54.9082,68.4268 L43.8712,68.4268" id="Stroke-441" stroke="#FFFFFF" stroke-dasharray="7.358000000000001,7.358"></path>
                    <polyline id="Stroke-443" stroke="#FFFFFF" points="40.1914 68.4268 34.1914 68.4268 34.1914 62.4268"></polyline>
                    <path d="M34.1914,55.0684 L34.1914,44.0324" id="Stroke-445" stroke="#FFFFFF" stroke-dasharray="7.358000000000001,7.358"></path>
                    <polyline id="Stroke-447" stroke="#FFFFFF" points="34.1914 40.3535 34.1914 34.3535 40.1914 34.3535"></polyline>
                    <path d="M47.5498,34.3535 L58.5858,34.3535" id="Stroke-449" stroke="#FFFFFF" stroke-dasharray="7.358000000000001,7.358"></path>
                    <polyline id="Stroke-451" stroke="#FFFFFF" points="62.2656 34.3535 68.2656 34.3535 68.2656 40.3535"></polyline>
                    <path d="M68.2656,47.7109 L68.2656,58.7479" id="Stroke-453" stroke="#FFFFFF" stroke-dasharray="7.358000000000001,7.358"></path>
                    <polyline id="Stroke-459" stroke="#FFFFFF" points="74.2656 68.4268 68.2656 68.4268 68.2656 62.4268"></polyline>
                    <path d="M68.2656,55.0684 L68.2656,44.0324" id="Stroke-461" stroke="#FFFFFF" stroke-dasharray="7.358000000000001,7.358"></path>
                    <polyline id="Stroke-463" stroke="#FFFFFF" points="68.2656 40.3535 68.2656 34.3535 74.2656 34.3535"></polyline>
                    <polyline id="Stroke-476" stroke="#FFFFFF" points="74.2656 102.5 68.2656 102.5 68.2656 96.5"></polyline>
                    <path d="M68.2656,89.1426 L68.2656,78.1056" id="Stroke-478" stroke="#FFFFFF" stroke-dasharray="7.358000000000001,7.358"></path>
                    <polyline id="Stroke-480" stroke="#FFFFFF" points="68.2656 74.4268 68.2656 68.4268 74.2656 68.4268"></polyline>
                    <polyline id="Stroke-488" stroke="#FFFFFF" points="68.2656 28.3535 68.2656 34.3535 62.2656 34.3535"></polyline>
                    <path d="M54.9082,34.3535 L43.8712,34.3535" id="Stroke-490" stroke="#FFFFFF" stroke-dasharray="7.358000000000001,7.358"></path>
                    <polyline id="Stroke-492" stroke="#FFFFFF" points="40.1914 34.3535 34.1914 34.3535 34.1914 28.3535"></polyline>
                    <path d="M34.1914,20.9951 L34.1914,9.9581" id="Stroke-494" stroke="#FFFFFF" stroke-dasharray="7.358000000000001,7.358"></path>
                    <polyline id="Stroke-496" stroke="#FFFFFF" points="34.1914 6.2793 34.1914 0.2793 40.1914 0.2793"></polyline>
                    <path d="M47.5498,0.2793 L58.5858,0.2793" id="Stroke-498" stroke="#FFFFFF" stroke-dasharray="7.358000000000001,7.358"></path>
                    <polyline id="Stroke-500" stroke="#FFFFFF" points="62.2656 0.2793 68.2656 0.2793 68.2656 6.2793"></polyline>
                    <path d="M68.2656,13.6367 L68.2656,24.6737" id="Stroke-502" stroke="#FFFFFF" stroke-dasharray="7.358000000000001,7.358"></path>
                    <polyline id="Stroke-504" stroke="#FFFFFF" points="34.1914 28.3535 34.1914 34.3535 28.1914 34.3535"></polyline>
                    <path d="M20.834,34.3535 L9.797,34.3535" id="Stroke-506" stroke="#FFFFFF" stroke-dasharray="7.358000000000001,7.358"></path>
                    <polyline id="Stroke-508" stroke="#FFFFFF" points="6.1182 34.3535 0.1182 34.3535 0.1182 28.3535"></polyline>
                    <path d="M0.1182,20.9951 L0.1182,9.9581" id="Stroke-510" stroke="#FFFFFF" stroke-dasharray="7.358000000000001,7.358"></path>
                    <polyline id="Stroke-512" stroke="#FFFFFF" points="0.1182 6.2793 0.1182 0.2793 6.1182 0.2793"></polyline>
                    <path d="M13.4766,0.2793 L24.5126,0.2793" id="Stroke-514" stroke="#FFFFFF" stroke-dasharray="7.358000000000001,7.358"></path>
                    <polyline id="Stroke-516" stroke="#FFFFFF" points="28.1914 0.2793 34.1914 0.2793 34.1914 6.2793"></polyline>
                    <path d="M34.1914,13.6367 L34.1914,24.6737" id="Stroke-518" stroke="#FFFFFF" stroke-dasharray="7.358000000000001,7.358"></path>
                    <polyline id="Stroke-520" stroke="#FFFFFF" points="34.1914 62.4268 34.1914 68.4268 28.1914 68.4268"></polyline>
                    <path d="M20.834,68.4268 L9.797,68.4268" id="Stroke-522" stroke="#FFFFFF" stroke-dasharray="7.358000000000001,7.358"></path>
                    <polyline id="Stroke-524" stroke="#FFFFFF" points="6.1182 68.4268 0.1182 68.4268 0.1182 62.4268"></polyline>
                    <path d="M0.1182,55.0684 L0.1182,44.0324" id="Stroke-526" stroke="#FFFFFF" stroke-dasharray="7.358000000000001,7.358"></path>
                    <polyline id="Stroke-528" stroke="#FFFFFF" points="0.1182 40.3535 0.1182 34.3535 6.1182 34.3535"></polyline>
                    <path d="M13.4766,34.3535 L24.5126,34.3535" id="Stroke-530" stroke="#FFFFFF" stroke-dasharray="7.358000000000001,7.358"></path>
                    <polyline id="Stroke-532" stroke="#FFFFFF" points="28.1914 34.3535 34.1914 34.3535 34.1914 40.3535"></polyline>
                    <path d="M34.1914,47.7109 L34.1914,58.7479" id="Stroke-534" stroke="#FFFFFF" stroke-dasharray="7.358000000000001,7.358"></path>
                    <polyline id="Stroke-536" stroke="#FFFFFF" points="68.2656 96.5 68.2656 102.5 62.2656 102.5"></polyline>
                    <g id="Group-540" transform="translate(43.000000, 102.000000)">
                        <mask id="mask-2" fill="white">
                            <use xlink:href="#path-1"></use>
                        </mask>
                        <g id="Clip-539"></g>
                        <path d="M11.9082,0.5 L0.8712,0.5" id="Stroke-538" stroke="#FFFFFF" stroke-dasharray="7.358000000000001,7.358" mask="url(#mask-2)"></path>
                    </g>
                    <polyline id="Stroke-541" stroke="#FFFFFF" points="40.1914 102.5 34.1914 102.5 34.1914 96.5"></polyline>
                    <path d="M34.1914,89.1426 L34.1914,78.1056" id="Stroke-543" stroke="#FFFFFF" stroke-dasharray="7.358000000000001,7.358"></path>
                    <polyline id="Stroke-545" stroke="#FFFFFF" points="34.1914 74.4268 34.1914 68.4268 40.1914 68.4268"></polyline>
                    <path d="M47.5498,68.4268 L58.5858,68.4268" id="Stroke-547" stroke="#FFFFFF" stroke-dasharray="7.358000000000001,7.358"></path>
                    <polyline id="Stroke-549" stroke="#FFFFFF" points="62.2656 68.4268 68.2656 68.4268 68.2656 74.4268"></polyline>
                    <path d="M68.2656,81.7852 L68.2656,92.8212" id="Stroke-551" stroke="#FFFFFF" stroke-dasharray="7.358000000000001,7.358"></path>
                    <polyline id="Stroke-553" stroke="#FFFFFF" points="34.1914 96.5 34.1914 102.5 28.1914 102.5"></polyline>
                    <g id="Group-557" transform="translate(9.000000, 102.000000)">
                        <mask id="mask-4" fill="white">
                            <use xlink:href="#path-3"></use>
                        </mask>
                        <g id="Clip-556"></g>
                        <path d="M11.834,0.5 L0.797,0.5" id="Stroke-555" stroke="#FFFFFF" stroke-dasharray="7.358000000000001,7.358" mask="url(#mask-4)"></path>
                    </g>
                    <polyline id="Stroke-558" stroke="#FFFFFF" points="6.1182 102.5 0.1182 102.5 0.1182 96.5"></polyline>
                    <path d="M0.1182,89.1426 L0.1182,78.1056" id="Stroke-560" stroke="#FFFFFF" stroke-dasharray="7.358000000000001,7.358"></path>
                    <polyline id="Stroke-562" stroke="#FFFFFF" points="0.1182 74.4268 0.1182 68.4268 6.1182 68.4268"></polyline>
                    <path d="M13.4766,68.4268 L24.5126,68.4268" id="Stroke-564" stroke="#FFFFFF" stroke-dasharray="7.358000000000001,7.358"></path>
                    <polyline id="Stroke-566" stroke="#FFFFFF" points="28.1914 68.4268 34.1914 68.4268 34.1914 74.4268"></polyline>
                    <path d="M34.1914,81.7852 L34.1914,92.8212" id="Stroke-568" stroke="#FFFFFF" stroke-dasharray="7.358000000000001,7.358"></path>
                    <polyline id="Stroke-574" stroke="#FFFFFF" points="74.2656 34.3535 68.2656 34.3535 68.2656 28.3535"></polyline>
                    <path d="M68.2656,20.9951 L68.2656,9.9581" id="Stroke-576" stroke="#FFFFFF" stroke-dasharray="7.358000000000001,7.358"></path>
                    <polyline id="Stroke-578" stroke="#FFFFFF" points="68.2656 6.2793 68.2656 0.2793 74.2656 0.2793"></polyline>
                </g>
                <g id="Group-882" transform="translate(0.000000, 0.839000)" stroke="#FFFFFF">
                    <polyline id="Stroke-738" points="68.6484 62.8096 68.6484 68.8096 62.6484 68.8096"></polyline>
                    <path d="M55.29,68.8096 L44.254,68.8096" id="Stroke-740" stroke-dasharray="7.358000000000001,7.358"></path>
                    <polyline id="Stroke-742" points="40.5742 68.8096 34.5742 68.8096 34.5742 62.8096"></polyline>
                    <path d="M34.5742,55.4512 L34.5742,44.4142" id="Stroke-744" stroke-dasharray="7.358000000000001,7.358"></path>
                    <polyline id="Stroke-746" points="34.5742 40.7354 34.5742 34.7354 40.5742 34.7354"></polyline>
                    <path d="M47.9316,34.7354 L58.9686,34.7354" id="Stroke-748" stroke-dasharray="7.358000000000001,7.358"></path>
                    <polyline id="Stroke-750" points="62.6484 34.7354 68.6484 34.7354 68.6484 40.7354"></polyline>
                    <path d="M68.6484,48.0938 L68.6484,59.1298" id="Stroke-752" stroke-dasharray="7.358000000000001,7.358"></path>
                    <polyline id="Stroke-754" points="102.7217 62.8096 102.7217 68.8096 96.7217 68.8096"></polyline>
                    <path d="M89.3633,68.8096 L78.3273,68.8096" id="Stroke-756" stroke-dasharray="7.358000000000001,7.358"></path>
                    <polyline id="Stroke-758" points="74.6484 68.8096 68.6484 68.8096 68.6484 62.8096"></polyline>
                    <path d="M68.6484,55.4512 L68.6484,44.4142" id="Stroke-760" stroke-dasharray="7.358000000000001,7.358"></path>
                    <polyline id="Stroke-762" points="68.6484 40.7354 68.6484 34.7354 74.6484 34.7354"></polyline>
                    <path d="M82.0059,34.7354 L93.0429,34.7354" id="Stroke-764" stroke-dasharray="7.358000000000001,7.358"></path>
                    <polyline id="Stroke-766" points="96.7217 34.7354 102.7217 34.7354 102.7217 40.7354"></polyline>
                    <path d="M102.7217,48.0938 L102.7217,59.1298" id="Stroke-768" stroke-dasharray="7.358000000000001,7.358"></path>
                    <polyline id="Stroke-770" points="102.7217 96.8828 102.7217 102.8828 96.7217 102.8828"></polyline>
                    <path d="M89.3633,102.8828 L78.3273,102.8828" id="Stroke-772" stroke-dasharray="7.358000000000001,7.358"></path>
                    <polyline id="Stroke-774" points="74.6484 102.8828 68.6484 102.8828 68.6484 96.8828"></polyline>
                    <path d="M68.6484,89.5254 L68.6484,78.4884" id="Stroke-776" stroke-dasharray="7.358000000000001,7.358"></path>
                    <polyline id="Stroke-778" points="68.6484 74.8096 68.6484 68.8096 74.6484 68.8096"></polyline>
                    <path d="M82.0059,68.8096 L93.0429,68.8096" id="Stroke-780" stroke-dasharray="7.358000000000001,7.358"></path>
                    <polyline id="Stroke-782" points="96.7217 68.8096 102.7217 68.8096 102.7217 74.8096"></polyline>
                    <path d="M102.7217,82.167 L102.7217,93.204" id="Stroke-784" stroke-dasharray="7.358000000000001,7.358"></path>
                    <polyline id="Stroke-786" points="68.6484 28.7354 68.6484 34.7354 62.6484 34.7354"></polyline>
                    <path d="M55.29,34.7354 L44.254,34.7354" id="Stroke-788" stroke-dasharray="7.358000000000001,7.358"></path>
                    <polyline id="Stroke-790" points="40.5742 34.7354 34.5742 34.7354 34.5742 28.7354"></polyline>
                    <path d="M34.5742,21.3779 L34.5742,10.3409" id="Stroke-792" stroke-dasharray="7.358000000000001,7.358"></path>
                    <polyline id="Stroke-794" points="34.5742 6.6621 34.5742 0.6621 40.5742 0.6621"></polyline>
                    <path d="M47.9316,0.6621 L58.9686,0.6621" id="Stroke-796" stroke-dasharray="7.358000000000001,7.358"></path>
                    <polyline id="Stroke-798" points="62.6484 0.6621 68.6484 0.6621 68.6484 6.6621"></polyline>
                    <path d="M68.6484,14.0195 L68.6484,25.0565" id="Stroke-800" stroke-dasharray="7.358000000000001,7.358"></path>
                    <polyline id="Stroke-802" points="34.5742 28.7354 34.5742 34.7354 28.5742 34.7354"></polyline>
                    <path d="M21.2168,34.7354 L10.1798,34.7354" id="Stroke-804" stroke-dasharray="7.358000000000001,7.358"></path>
                    <polyline id="Stroke-806" points="6.5 34.7354 0.5 34.7354 0.5 28.7354"></polyline>
                    <path d="M0.5,21.3779 L0.5,10.3409" id="Stroke-808" stroke-dasharray="7.358000000000001,7.358"></path>
                    <polyline id="Stroke-810" points="0.5 6.6621 0.5 0.6621 6.5 0.6621"></polyline>
                    <path d="M13.8584,0.6621 L24.8954,0.6621" id="Stroke-812" stroke-dasharray="7.358000000000001,7.358"></path>
                    <polyline id="Stroke-814" points="28.5742 0.6621 34.5742 0.6621 34.5742 6.6621"></polyline>
                    <path d="M34.5742,14.0195 L34.5742,25.0565" id="Stroke-816" stroke-dasharray="7.358000000000001,7.358"></path>
                    <polyline id="Stroke-818" points="34.5742 62.8096 34.5742 68.8096 28.5742 68.8096"></polyline>
                    <path d="M21.2168,68.8096 L10.1798,68.8096" id="Stroke-820" stroke-dasharray="7.358000000000001,7.358"></path>
                    <polyline id="Stroke-822" points="6.5 68.8096 0.5 68.8096 0.5 62.8096"></polyline>
                    <path d="M0.5,55.4512 L0.5,44.4142" id="Stroke-824" stroke-dasharray="7.358000000000001,7.358"></path>
                    <polyline id="Stroke-826" points="0.5 40.7354 0.5 34.7354 6.5 34.7354"></polyline>
                    <path d="M13.8584,34.7354 L24.8954,34.7354" id="Stroke-828" stroke-dasharray="7.358000000000001,7.358"></path>
                    <polyline id="Stroke-830" points="28.5742 34.7354 34.5742 34.7354 34.5742 40.7354"></polyline>
                    <path d="M34.5742,48.0938 L34.5742,59.1298" id="Stroke-832" stroke-dasharray="7.358000000000001,7.358"></path>
                    <polyline id="Stroke-834" points="68.6484 96.8828 68.6484 102.8828 62.6484 102.8828"></polyline>
                    <path d="M55.29,102.8828 L44.254,102.8828" id="Stroke-836" stroke-dasharray="7.358000000000001,7.358"></path>
                    <polyline id="Stroke-838" points="40.5742 102.8828 34.5742 102.8828 34.5742 96.8828"></polyline>
                    <path d="M34.5742,89.5254 L34.5742,78.4884" id="Stroke-840" stroke-dasharray="7.358000000000001,7.358"></path>
                    <polyline id="Stroke-842" points="34.5742 74.8096 34.5742 68.8096 40.5742 68.8096"></polyline>
                    <path d="M47.9316,68.8096 L58.9686,68.8096" id="Stroke-844" stroke-dasharray="7.358000000000001,7.358"></path>
                    <polyline id="Stroke-846" points="62.6484 68.8096 68.6484 68.8096 68.6484 74.8096"></polyline>
                    <path d="M68.6484,82.167 L68.6484,93.204" id="Stroke-848" stroke-dasharray="7.358000000000001,7.358"></path>
                    <polyline id="Stroke-850" points="34.5742 96.8828 34.5742 102.8828 28.5742 102.8828"></polyline>
                    <path d="M21.2168,102.8828 L10.1798,102.8828" id="Stroke-852" stroke-dasharray="7.358000000000001,7.358"></path>
                    <polyline id="Stroke-854" points="6.5 102.8828 0.5 102.8828 0.5 96.8828"></polyline>
                    <path d="M0.5,89.5254 L0.5,78.4884" id="Stroke-856" stroke-dasharray="7.358000000000001,7.358"></path>
                    <polyline id="Stroke-858" points="0.5 74.8096 0.5 68.8096 6.5 68.8096"></polyline>
                    <path d="M13.8584,68.8096 L24.8954,68.8096" id="Stroke-860" stroke-dasharray="7.358000000000001,7.358"></path>
                    <polyline id="Stroke-862" points="28.5742 68.8096 34.5742 68.8096 34.5742 74.8096"></polyline>
                    <path d="M34.5742,82.167 L34.5742,93.204" id="Stroke-864" stroke-dasharray="7.358000000000001,7.358"></path>
                    <polyline id="Stroke-866" points="102.7217 28.7354 102.7217 34.7354 96.7217 34.7354"></polyline>
                    <path d="M89.3633,34.7354 L78.3273,34.7354" id="Stroke-868" stroke-dasharray="7.358000000000001,7.358"></path>
                    <polyline id="Stroke-870" points="74.6484 34.7354 68.6484 34.7354 68.6484 28.7354"></polyline>
                    <path d="M68.6484,21.3779 L68.6484,10.3409" id="Stroke-872" stroke-dasharray="7.358000000000001,7.358"></path>
                    <polyline id="Stroke-874" points="68.6484 6.6621 68.6484 0.6621 74.6484 0.6621"></polyline>
                    <path d="M82.0059,0.6621 L93.0429,0.6621" id="Stroke-876" stroke-dasharray="7.358000000000001,7.358"></path>
                    <polyline id="Stroke-878" points="96.7217 0.6621 102.7217 0.6621 102.7217 6.6621"></polyline>
                    <path d="M102.7217,14.0195 L102.7217,25.0565" id="Stroke-880" stroke-dasharray="7.358000000000001,7.358"></path>
                </g>
                <g id="Group-1027" transform="translate(103.000000, 0.839000)" stroke="#FFFFFF">
                    <polyline id="Stroke-883" points="68.2656 62.8096 68.2656 68.8096 62.2656 68.8096"></polyline>
                    <path d="M54.9082,68.8096 L43.8712,68.8096" id="Stroke-885" stroke-dasharray="7.358000000000001,7.358"></path>
                    <polyline id="Stroke-887" points="40.1914 68.8096 34.1914 68.8096 34.1914 62.8096"></polyline>
                    <path d="M34.1914,55.4512 L34.1914,44.4142" id="Stroke-889" stroke-dasharray="7.358000000000001,7.358"></path>
                    <polyline id="Stroke-891" points="34.1914 40.7354 34.1914 34.7354 40.1914 34.7354"></polyline>
                    <path d="M47.5498,34.7354 L58.5858,34.7354" id="Stroke-893" stroke-dasharray="7.358000000000001,7.358"></path>
                    <polyline id="Stroke-895" points="62.2656 34.7354 68.2656 34.7354 68.2656 40.7354"></polyline>
                    <path d="M68.2656,48.0938 L68.2656,59.1298" id="Stroke-897" stroke-dasharray="7.358000000000001,7.358"></path>
                    <polyline id="Stroke-903" points="74.2656 68.8096 68.2656 68.8096 68.2656 62.8096"></polyline>
                    <path d="M68.2656,55.4512 L68.2656,44.4142" id="Stroke-905" stroke-dasharray="7.358000000000001,7.358"></path>
                    <polyline id="Stroke-907" points="68.2656 40.7354 68.2656 34.7354 74.2656 34.7354"></polyline>
                    <polyline id="Stroke-919" points="74.2656 102.8828 68.2656 102.8828 68.2656 96.8828"></polyline>
                    <path d="M68.2656,89.5254 L68.2656,78.4884" id="Stroke-921" stroke-dasharray="7.358000000000001,7.358"></path>
                    <polyline id="Stroke-923" points="68.2656 74.8096 68.2656 68.8096 74.2656 68.8096"></polyline>
                    <polyline id="Stroke-931" points="68.2656 28.7354 68.2656 34.7354 62.2656 34.7354"></polyline>
                    <path d="M54.9082,34.7354 L43.8712,34.7354" id="Stroke-933" stroke-dasharray="7.358000000000001,7.358"></path>
                    <polyline id="Stroke-935" points="40.1914 34.7354 34.1914 34.7354 34.1914 28.7354"></polyline>
                    <path d="M34.1914,21.3779 L34.1914,10.3409" id="Stroke-937" stroke-dasharray="7.358000000000001,7.358"></path>
                    <polyline id="Stroke-939" points="34.1914 6.6621 34.1914 0.6621 40.1914 0.6621"></polyline>
                    <path d="M47.5498,0.6621 L58.5858,0.6621" id="Stroke-941" stroke-dasharray="7.358000000000001,7.358"></path>
                    <polyline id="Stroke-943" points="62.2656 0.6621 68.2656 0.6621 68.2656 6.6621"></polyline>
                    <path d="M68.2656,14.0195 L68.2656,25.0565" id="Stroke-945" stroke-dasharray="7.358000000000001,7.358"></path>
                    <polyline id="Stroke-947" points="34.1914 28.7354 34.1914 34.7354 28.1914 34.7354"></polyline>
                    <path d="M20.834,34.7354 L9.797,34.7354" id="Stroke-949" stroke-dasharray="7.358000000000001,7.358"></path>
                    <polyline id="Stroke-951" points="6.1182 34.7354 0.1182 34.7354 0.1182 28.7354"></polyline>
                    <path d="M0.1182,21.3779 L0.1182,10.3409" id="Stroke-953" stroke-dasharray="7.358000000000001,7.358"></path>
                    <polyline id="Stroke-955" points="0.1182 6.6621 0.1182 0.6621 6.1182 0.6621"></polyline>
                    <path d="M13.4766,0.6621 L24.5126,0.6621" id="Stroke-957" stroke-dasharray="7.358000000000001,7.358"></path>
                    <polyline id="Stroke-959" points="28.1914 0.6621 34.1914 0.6621 34.1914 6.6621"></polyline>
                    <path d="M34.1914,14.0195 L34.1914,25.0565" id="Stroke-961" stroke-dasharray="7.358000000000001,7.358"></path>
                    <polyline id="Stroke-963" points="34.1914 62.8096 34.1914 68.8096 28.1914 68.8096"></polyline>
                    <path d="M20.834,68.8096 L9.797,68.8096" id="Stroke-965" stroke-dasharray="7.358000000000001,7.358"></path>
                    <polyline id="Stroke-967" points="6.1182 68.8096 0.1182 68.8096 0.1182 62.8096"></polyline>
                    <path d="M0.1182,55.4512 L0.1182,44.4142" id="Stroke-969" stroke-dasharray="7.358000000000001,7.358"></path>
                    <polyline id="Stroke-971" points="0.1182 40.7354 0.1182 34.7354 6.1182 34.7354"></polyline>
                    <path d="M13.4766,34.7354 L24.5126,34.7354" id="Stroke-973" stroke-dasharray="7.358000000000001,7.358"></path>
                    <polyline id="Stroke-975" points="28.1914 34.7354 34.1914 34.7354 34.1914 40.7354"></polyline>
                    <path d="M34.1914,48.0938 L34.1914,59.1298" id="Stroke-977" stroke-dasharray="7.358000000000001,7.358"></path>
                    <polyline id="Stroke-979" points="68.2656 96.8828 68.2656 102.8828 62.2656 102.8828"></polyline>
                    <path d="M54.9082,102.8828 L43.8712,102.8828" id="Stroke-981" stroke-dasharray="7.358000000000001,7.358"></path>
                    <polyline id="Stroke-983" points="40.1914 102.8828 34.1914 102.8828 34.1914 96.8828"></polyline>
                    <path d="M34.1914,89.5254 L34.1914,78.4884" id="Stroke-985" stroke-dasharray="7.358000000000001,7.358"></path>
                    <polyline id="Stroke-987" points="34.1914 74.8096 34.1914 68.8096 40.1914 68.8096"></polyline>
                    <path d="M47.5498,68.8096 L58.5858,68.8096" id="Stroke-989" stroke-dasharray="7.358000000000001,7.358"></path>
                    <polyline id="Stroke-991" points="62.2656 68.8096 68.2656 68.8096 68.2656 74.8096"></polyline>
                    <path d="M68.2656,82.167 L68.2656,93.204" id="Stroke-993" stroke-dasharray="7.358000000000001,7.358"></path>
                    <polyline id="Stroke-995" points="34.1914 96.8828 34.1914 102.8828 28.1914 102.8828"></polyline>
                    <path d="M20.834,102.8828 L9.797,102.8828" id="Stroke-997" stroke-dasharray="7.358000000000001,7.358"></path>
                    <polyline id="Stroke-999" points="6.1182 102.8828 0.1182 102.8828 0.1182 96.8828"></polyline>
                    <path d="M0.1182,89.5254 L0.1182,78.4884" id="Stroke-1001" stroke-dasharray="7.358000000000001,7.358"></path>
                    <polyline id="Stroke-1003" points="0.1182 74.8096 0.1182 68.8096 6.1182 68.8096"></polyline>
                    <path d="M13.4766,68.8096 L24.5126,68.8096" id="Stroke-1005" stroke-dasharray="7.358000000000001,7.358"></path>
                    <polyline id="Stroke-1007" points="28.1914 68.8096 34.1914 68.8096 34.1914 74.8096"></polyline>
                    <path d="M34.1914,82.167 L34.1914,93.204" id="Stroke-1009" stroke-dasharray="7.358000000000001,7.358"></path>
                    <polyline id="Stroke-1015" points="74.2656 34.7354 68.2656 34.7354 68.2656 28.7354"></polyline>
                    <path d="M68.2656,21.3779 L68.2656,10.3409" id="Stroke-1017" stroke-dasharray="7.358000000000001,7.358"></path>
                    <polyline id="Stroke-1019" points="68.2656 6.6621 68.2656 0.6621 74.2656 0.6621"></polyline>
                </g>
            </g>
        </g>
    </g>
</svg>