<?xml version="1.0" encoding="UTF-8"?>
<svg width="512px" height="428px" viewBox="0 0 512 428" version="1.1" xmlns="http://www.w3.org/2000/svg" xmlns:xlink="http://www.w3.org/1999/xlink">
    <!-- Generator: Sketch 49 (51002) - http://www.bohemiancoding.com/sketch -->
    <title>Shape</title>
    <desc>Created with Sketch.</desc>
    <defs></defs>
    <g id="Symbols" stroke="none" stroke-width="1" fill="none" fill-rule="evenodd">
        <g id="Interoperability" fill="#909090" fill-rule="nonzero">
            <path d="M512,214 C512,209.682 509.396,205.79 505.406,204.141 L406.608,163.335 L505.406,122.527 C509.395,120.879 512,116.987 512,112.668 C512,108.35 509.396,104.458 505.406,102.809 L260.074,1.474 C257.466,0.397 254.536,0.397 251.928,1.474 L62.485,79.724 C62.464,79.733 62.441,79.741 62.422,79.75 L6.596,102.809 C2.604,104.458 0,108.35 0,112.668 C0,116.986 2.604,120.878 6.596,122.527 L105.392,163.335 L6.596,204.141 C2.604,205.79 0,209.682 0,214 C0,218.318 2.604,222.21 6.596,223.859 L105.394,264.668 L6.596,305.477 C2.604,307.125 0,311.017 0,315.335 C0,319.653 2.604,323.545 6.596,325.194 L251.928,426.526 C253.233,427.065 254.617,427.333 256.001,427.333 C257.384,427.333 258.77,427.063 260.072,426.526 L505.406,325.194 C509.395,323.546 512,319.654 512,315.335 C512,311.017 509.396,307.125 505.406,305.476 L406.606,264.668 L505.406,223.858 C509.395,222.21 512,218.318 512,214 Z M38.608,112.668 L66.546,101.128 L98.163,114.185 C99.494,114.735 100.873,114.996 102.23,114.996 C106.42,114.996 110.394,112.512 112.095,108.399 C114.342,102.954 111.751,96.717 106.307,94.468 L94.488,89.587 L256,22.874 L473.392,112.668 L256.001,202.46 L38.608,112.668 Z M473.391,315.335 L256.001,405.127 L38.608,315.335 L66.545,303.796 L135.789,332.397 C137.122,332.947 138.502,333.208 139.858,333.208 C144.048,333.208 148.022,330.724 149.72,326.611 C151.97,321.167 149.379,314.929 143.932,312.68 L94.484,292.256 L133.334,276.21 L251.926,325.195 C253.231,325.734 254.614,326.002 255.999,326.002 C257.382,326.002 258.768,325.733 260.073,325.195 L378.665,276.21 L473.391,315.335 Z M256.001,303.795 L38.608,214 L66.543,202.462 L113.412,221.818 C114.743,222.368 116.122,222.629 117.479,222.629 C121.669,222.629 125.643,220.145 127.344,216.032 C129.593,210.587 127,204.35 121.556,202.101 L94.486,190.92 L133.334,174.875 L251.928,223.86 C253.233,224.399 254.617,224.667 256.001,224.667 C257.384,224.667 258.77,224.397 260.072,223.86 L378.666,174.876 L473.394,214.001 L256.001,303.795 Z M134.875,106.266 C140.317,108.52 142.903,114.758 140.648,120.202 C138.948,124.311 134.976,126.791 130.79,126.791 C129.43,126.791 128.048,126.53 126.713,125.977 L126.477,125.879 C121.033,123.625 118.448,117.386 120.702,111.943 C122.956,106.499 129.195,103.915 134.637,106.168 L134.875,106.266 Z M172.534,324.49 C177.969,326.761 180.536,333.009 178.265,338.444 C176.556,342.536 172.593,345.001 168.418,345.001 C167.046,345.001 165.655,344.735 164.311,344.174 L164.075,344.076 C158.639,341.805 156.075,335.558 158.346,330.122 C160.617,324.685 166.862,322.12 172.3,324.392 L172.534,324.49 Z" id="Shape"></path>
        </g>
    </g>
</svg>